<?xml version="1.0" encoding="utf-8"?>
<!-- Generator: Adobe Illustrator 27.0.0, SVG Export Plug-In . SVG Version: 6.00 Build 0)  -->
<svg version="1.1" id="Capa_1" xmlns="http://www.w3.org/2000/svg" xmlns:xlink="http://www.w3.org/1999/xlink" x="0px" y="0px"
	 viewBox="0 0 576.3 143.2" style="enable-background:new 0 0 576.3 143.2;" xml:space="preserve">
<style type="text/css">
	.st0{fill:#31363F;}
</style>
<path class="st0" d="M24.3,143.2c0.5-2,0.9-3.9,1.3-5.9c0.5-2.5,0.4-5.1-0.2-7.6c-0.3-1.2-0.4-2.5-0.7-3.7c-0.6-2.7-1.2-5.5-1.9-8.2
	c-0.2-0.9-1-1.4-2-1.7c-2.8-0.8-5.6-1.2-8.5-1.2c-0.5,0-0.9-0.2-1.2-0.5c-1-1.4-2.6-1.5-4.1-1.6c-1.6-0.1-3.2-0.3-4.7-0.9
	c-2-0.8-3.1-2.3-2.3-3.9c0.4-0.9,1-1.7,1.6-2.4c0.9-1,1.7-2,2.4-3.1c1.2-2,3.2-3.2,4.8-4.8c1.4-1.4,2.8-2.9,3.7-4.6
	c0.6-1.1,1.5-1.8,2.4-2.7c0.6-0.5,1.3-0.8,2.1-0.7c0.7,0,1.4,0.1,2,0.1c0.8,0,1.4,0.3,1.7,1.1c0.3,0.7,0.7,1.1,1.4,1.1
	c0.6,0,1.3,0.1,1.5,0.8c0.2,0.8,0.2,1.5-0.3,2.3C22,97,20,97.3,18,97.8c-1.4,0.4-2.6,0.9-3.5,2.1c-1.1,1.5-2.3,2.9-3,4.6
	c-0.1,0.2-0.4,0.4-0.1,0.6c0.2,0.2,0.5,0.1,0.7,0c1.1-0.5,2.3-0.2,3.4-0.2c1.8-0.1,3.6-0.3,5.4-0.6c1.2-0.2,2.3-0.5,3.5-0.7
	c0.5-0.1,1-0.3,1.4-0.6c1.2-0.9,2.5-0.9,3.8-0.2c1.4,0.8,2.9,0.8,4.3,0.6c1.1-0.1,1.4-1.4,1.5-2.2c0.2-1.5,0.6-3.1-1.1-4.2
	c-0.8-0.6-0.9-2.8-0.1-3.4c1.1-0.8,1.7-2,2.3-3.1c1.5-2.4,3.6-3.6,6.3-4c2.2-0.4,4.3-0.1,6.1,1.3c1.9,1.4,3.1,4.9,2.3,7.2
	c-0.2,0.6-0.2,1.2,0,1.9c0.9,2.2,0,4-2.4,4.5c-0.8,0.2-1.7,2.4-1.3,3.1c0.2,0.4,0.6,0.4,1,0.3c3.2-0.8,6.2,0.1,9.3,0.9
	c0.7,0.2,0.8,0,0.9-0.7c0.4-2.7-0.2-5.3-0.9-7.9c-0.3-1.1-0.3-2.3,0-3.3s0.3-2,0.3-3.1c0.1-1.5-0.3-1.9-1.7-2.3
	c-3.2-1-6.2-2.5-9.1-4.3c-2-1.7-4.3-3.1-6.3-4.8c-1.6-1.3-2.4-3-2.5-5.1c-0.2-3.4-0.6-6.7-0.5-10.1c0.1-2.2,0.7-4.4,0.5-6.7
	c-0.1-0.6,0.4-1,0.9-1.1c1-0.3,1.2-0.9,1.2-1.9c0-2.1,0.8-4.2,1.2-6.2c0.1-0.3,0.2-0.7,0.5-0.8c1.5,0,3-1.2,4.6-0.4
	c0.3-0.7,0.5-1.3,0.8-1.9c0.3-0.7,0.7-1.1,1.5-0.9c0.8,0.2,1,0.8,0.8,1.6c-0.8,3.2-1.4,6.4-2.9,9.3c-0.2,0.4-0.3,0.8,0,1.2
	c1,1.7,0.7,3.4,0.4,5.2c-0.1,0.3-0.2,0.6-0.1,0.8c0.7,1.6,0.3,3.2,0.3,4.9c0,1.8,0.8,3.4,0.8,5.2c0,0.4,0.3,0.9,0.8,1
	c3,0.6,5.4,2.5,8.1,3.6c1.2,0.5,2.5,0.2,3.7,0.8c0.3,0.2,0.7-0.2,0.9-0.4c1-1,2.1-1.3,3.4-0.7c0.8,0.3,1.1,0,1.1-0.7
	c0-0.8,0.1-1.6-0.3-2.5c-0.4-0.8-0.5-1.6-0.3-2.6c0.3-1.2,0.2-2.5,0.1-3.7c-0.2-1.6,0.5-2.9,1.5-4c0.6-0.6,1.3-1.2,1.9-1.7
	s1-1,1.3-1.7c1.1-2.1,3-2.2,4.3-0.2c1.1,1.7,2.8,2.6,4.6,3.2c0.5,0.2,0.8,0.5,1.1,0.9c0.2,0.5,0.5,0.9,0.9,1.3
	c0.5,0.4,0.6,0.9,0.3,1.5c-0.5,1-0.2,2.2-0.4,3.3c-0.3,1.8-0.9,3.6-1.8,5.2c-0.4,0.7-0.7,1.4-1,2.1c-0.2,0.4,0.1,0.5,0.4,0.5
	c1.7,0.2,3.4,0.6,5.1,0.9s3.5-0.3,5.2,0.1c0.5,0.1,0.6-0.3,0.6-0.7c0-0.4,0.1-0.8,0.4-1.1c0.3-0.4,0.7-0.8,1.3-0.8
	c0.6,0.1,0.6,0.7,0.8,1.2c0.9,1.8,2.2,3.3,3.6,4.7c0.3,0.3,0.8,0.2,1.1,0c0.4-0.3,0.2-0.6,0.1-1c-0.6-1.2-0.3-2.5-0.6-3.8
	c-0.5-2.4-1.6-4.6-2.2-6.9c-0.6-2-1.2-4-1.6-6.1c-0.4-1.6-0.2-3.1-0.5-4.6c-0.3-1.3-0.7-2.7-0.8-4C91.4,53,90,50.7,90,48.1
	c0-1.3-0.5-2.6-0.3-3.9c0.3-2.3,0.3-4.6,0.8-6.8c0.3-1.4,0-2.8,0.5-4.1c0.2-0.4-0.3-1.2-0.5-1.8c-0.1-0.2-0.3-0.5-0.3-0.7
	c0.5-1.6-0.2-3.3,0.3-4.9c0.1-0.2,0-0.4,0.1-0.6c0.1-1.2,0.8-1.6,1.9-1.2c0.3,0.1,0.7,0.4,1,0c0.3-0.3,0.1-0.7,0-1s-0.2-0.5-0.3-0.8
	c-0.3-0.7-0.1-1.2,0.6-1.6s1.2,0,1.5,0.5c0.4,0.5,0.6,1.1,0.9,1.7c0.1,0,0.2,0,0.2-0.1c0.4-0.6,0.6-1.5,1.7-1.4
	c1.1,0.2,1,1.2,1.2,1.9c0.3,0.9,0.2,1.9-0.1,2.8c-0.4,1.5-0.4,3.1-1.4,4.4c-1.9,2.7-1.4,5.6-0.9,8.5c0,0.1,0.1,0.2,0.1,0.4
	c-0.1,3,1.1,5.9,0.8,8.9c-0.1,1.2,0.3,2.2,1,3.2c1.3,1.8,1.7,3.9,2.4,5.9c0.9,2.9,2.2,5.6,4.9,7.3c0,0,0.1,0,0.3,0
	c-0.2-0.7-0.4-1.4-1-2c-0.8-0.9-1-2.2-0.9-3.2c0.1-1.7-0.3-3.4,0.4-5c0.7-1.6,1.7-2.9,3.3-3.8c1.2-0.7,2.5-0.8,3.7-1.1
	c1-0.2,1.9,0.2,2.8,0.5c2.7,0.8,5.7,2.6,5.6,6.5c0,0.3,0,0.6,0.1,0.8c0.9,1.3,0.2,2.7,0,4c-0.2,1-1.2,1.7-1.5,2.8
	c-0.1,0.5-0.9,1.2-0.3,1.6c0.7,0.5,1-0.5,1.4-0.9c0.7-0.7,1.5-1.3,2.5-1.6c2.4-0.8,4.2-2.4,5.9-4.2c1.7-1.7,3.3-3.7,5.2-5.2
	c1.3-0.9,1.8-2.4,2.4-3.8c1.1-2.4,2.8-4.4,4.1-6.7c1.4-2.5,2.7-5.1,3.5-7.8c0.3-1.2,0.3-2.4,0.1-3.6c-0.3-2.3,1.4-3.6,2.6-5.1
	c0.5-0.6,1.3-0.9,1.9-1.4c0.7-0.5,1.3-1,2.1-0.2c0.3,0.3,0.6,0.1,0.9,0c0.6-0.3,1-0.1,1.4,0.4s0.1,0.9-0.2,1.4
	c-0.5,0.7-1.4,0.8-2,1.7c0.9,0.3,1.8,0.2,2.6,0.6c0.3,0.2,0.6,0.4,0.6,0.8s-0.2,0.7-0.6,0.8c-0.4,0.1-0.6,0.4-0.6,0.8
	c0,0.3-0.1,0.8-0.4,0.8c-1.2,0.1-1.2,1-1.4,1.9c-0.1,0.6-0.3,1.2-0.7,1.6c-1.6,2-1.8,4.4-2.5,6.7c-1,3.5-2.3,6.8-3.8,10.1
	c-1.1,2.5-3.3,4.2-4.6,6.5c-1.6,2.7-3.5,5.1-4.9,7.9c-1.2,2.3-2.3,4.6-3.7,6.8c-0.7,1.1-0.8,2.6-0.9,3.9c0,1,0.1,2.1-0.2,3.1
	c-0.1,0.4,0.1,0.7,0.4,0.6c0.9-0.1,1.7-0.2,2.4,0.4c0.1,0.1,0.3,0.1,0.5,0c2.1-1.3,4.6-1.9,6.6-3.4c0.6-0.4,0.9-0.8,0.6-1.6
	c-0.5-1.4-0.1-1.4,1.3-1.8c1.7-0.5,3.4-0.1,5-0.9c1-0.5,1.9,0.2,2.8,0.7c0.5,0.3,0.8,0.8,1.6,0.9c-0.1-0.8-0.7-1.3-1.1-1.8
	c-1.5-1.5-1.8-3.4-2.1-5.3c-0.1-0.7-0.1-1.4-0.4-2.1c-0.7-2-0.4-3.9,0.7-5.6c1.2-1.9,2.5-3.7,4.7-4.6c2.3-1,4.7-1.4,7.2-0.8
	c1.5,0.4,2.9,0.7,4.3,1.4c1.9,0.9,3.8,1.9,4.3,4.3c0.2,0.8,1,1.1,1.6,1.3c0.9,0.4,1.6,0.9,1.9,1.9c0.4,1.5,1.7,1.9,2.9,2.3
	c0.5,0.1,1.3,0,1.2,0.8c-0.1,0.9-0.8,1-1.5,1c-1.6,0.1-1.8,0.3-1.1,1.8c0.1,0.3,0.4,0.5,0.4,0.7c0,1.8,0.9,0.9,1.5,0.5
	c0.9-0.5,1.9-1,2.6-1.6c0.7-0.6,1.3-1.1,1.6-2.2c0.3-1,1-2.1,1.9-2.7c1.8-1.1,2.6-2.9,3.7-4.5c1.5-2.4,2.5-5,4.2-7.3
	c0.6-0.9,0.6-1.7-0.2-2.4c-0.4-0.4-0.8-0.9-1.2-1.3c-0.7-0.8-1.4-1.7-2.5-2.1c-0.7-0.2-0.8-0.7-0.3-1.3c0.6-0.7,1.7-0.9,2.5-0.4
	c0.2,0.1,0.3,0.3,0.5,0.3c0.4,0.2,0.8,0.7,1.3,0.4s0.3-0.8,0.3-1.3c0-1.5,0-3,0-4.4c0-0.4,0-0.8,0.1-1.2c0.2-0.5,0.5-0.9,1.1-0.8
	c0.6,0.1,0.6,0.5,0.6,1c0,0.8,0,1.6,0.2,2.4c0.1-1,0.7-1.9,0.7-2.9c0-0.3,0-0.6,0.1-0.8c0.2-0.5,0.6-1,1.3-0.9
	c0.6,0.1,0.6,0.6,0.6,1.1c0,0.2,0,0.4,0,0.6c0.2,0.1,0.3,0,0.3-0.1c0.3-0.5,0.6-1.3,1.4-1.1c0.7,0.2,0.6,0.9,0.6,1.4
	s0.2,0.7,0.7,0.8c1.2,0.1,1.2,0.9,0.8,1.6c-1.7,2.9-1.9,6.2-3.1,9.2c-0.1,0.1,0,0.3-0.1,0.5c-0.9,1.2-0.2,1.9,0.7,2.6
	c1,0.8,1.3,2,0.9,3.3c-0.6,2.1-1.4,4.1-2.2,6c-1.4,3.2-3.6,5.8-5.4,8.7c-1.2,2.1-3,3.7-5.2,4.9c-1.4,0.8-2.7,1.8-4,2.8
	c-0.8,0.6-0.8,1.3-0.6,2.1c0.3,0.9,0.7,1.7,1,2.5c0.9,2.6,1.8,5.3,2.6,7.9c0.3,0.8,0.8,1.6,0.8,2.6c0.5-0.5,0.3-0.9,0.3-1.2
	c-0.1-2.2,0.2-4.3,1-6.3c0.3-0.8,0.2-1.9,0.2-2.8c0.1-3.5,3-6.5,6.4-6.8c4.8-0.4,7.8,1.6,9.4,6.1c0.5,1.4-0.2,2.6-0.3,3.9
	c-0.1,0.8-0.2,1.6,0,2.5c0.3,1.6-0.2,3-1.2,4.1c-1.2,1.4-1.1,2.9-1.1,4.5c0,0.4,0.3,0.7,0.7,0.8c2,0.2,3.1,1.8,4.6,2.8
	c0.7,0.5,1.2,1.6,2,1.4c1.1-0.2,0.5-1.4,0.8-2.1c0.8-2.6,0.5-5.2-0.7-7.7c-1.2-2.7-2.1-5.5-2.5-8.4c-0.3-2-0.9-4-1.3-6.1
	c-0.7-3.4-2-6.6-1.4-10.2c0.3-1.7,0.4-3.5,1-5.2c0.3-0.8,0.3-1.7,0.5-2.6c0.7-2.7,2-5.3,1.9-8.2c0-0.4,0.2-0.8,0.4-1.1
	s0.3-0.8,0.2-1c-1.1-2-0.2-3.9,0.5-5.8c0-0.1,0-0.2,0-0.4c0.2-2.6,0.3-2.7,2.9-2.8c1.1,0,2.3-0.2,3.2,0.6c0.1,0.1,0.4,0.1,0.6,0.1
	c2.8,0.4,4.1,3.1,2.7,5.7c-0.8,1.5-1.6,2.9-3.3,3.6c-0.3,0.1-0.5,0.5-0.5,0.8c-0.2,3-0.6,6.2-0.1,9.1c0.7,4,0.3,8,0.4,12.1
	c0,0.9,0.4,1.5,0.7,2.3c0.8,2.3,1.5,4.7,2.3,7c0.3,0.8,1.1,1.2,1.5,1.8c1.3,1.9,3.2,3.1,5.3,3.9c0.8,0.3,1.3,1,2,1.6
	c0.2-0.9,0.2-1.6-0.6-2c-1.2-0.5-1.6-1.4-1.6-2.7c0-0.8,0-1.6,0-2.4s0.2-1.4,1.1-1.6c0.8-0.1,0.6-0.8,0.6-1.4
	c0.2-3.7,2.1-6.4,5.5-7.5c4.4-1.4,8.4-0.6,11.8,3c1.6,1.6,2.1,3.8,1.4,6.1c-0.3,1-0.7,2.1,0.3,3c0.1,0.1,0.1,0.3,0.2,0.4
	c0.2,1.2-1.7,4.6-2.9,5.1c-0.3,0.1-0.5,0.3-0.6,0.6c-0.3,0.8-0.7,1.4-1.2,2c-0.6,0.6-0.5,1.2,0.1,1.6c0.9,0.7,1.6,1.4,2.1,2.4
	c0.1,0.3,0.4,0.5,0.7,0.6c1.7,0.7,3.5,1.2,5.3,1.2c0.7,0,1.1-0.4,0.9-1.1c-0.7-1.7-0.3-3.5-0.5-5.2c0-0.5,0-1-0.7-1.1
	c-0.9-0.1-1.1-0.7-1.1-1.4c0-0.8,0-1.6,0.1-2.4c0.3-2.6-0.8-5-0.9-7.6c0-0.5-0.1-0.9,0-1.4c0.3-1.2,0.1-2.3-0.1-3.5
	c-0.2-2.3-1.2-4.3-1.5-6.5c-0.5-2.7-1.6-5.2-3.1-7.4c-1-1.5-1.5-3.2-1.8-4.9c-0.7-3-1.5-6-2.6-8.9c-0.6-1.5-1-3.1-1.5-4.6
	c-0.4-1.3-1.2-2.4-2-3.4c-2.1-2.8-3.8-5.8-5.5-8.8c-1.6-2.6-2.6-5.4-4.3-8c-0.5-0.8-1.1-1.5-2-1.8s-1.4-1.3-2.2-1.8
	c-0.5-0.3-0.8-0.8-1.4-1.1c-0.5-0.2-0.8-0.7-0.8-1.3c0-1-0.1-2,0-3c0.1-0.7,0-1-0.5-1.4c-0.8-0.5-1.6-1.1-2.5-1.7
	c-0.1-0.1-0.2-0.1-0.3-0.2c-0.4-0.5-1.2-1-0.6-1.7c0.5-0.7,1.4-0.6,2.1-0.2c0.6,0.4,1.2,0.9,1.9,1.2c0.3,0.1,0.5,0.3,0.8,0
	c0.2-0.2,0-0.4-0.1-0.7c-0.4-0.9-0.7-1.8-1.2-2.6c-0.2-0.5-0.4-0.9,0-1.3c0.5-0.4,1-0.4,1.5,0s0.9,0.9,1.2,1.5
	c1.3,2.2,2.5,4.5,4.2,6.4c0.6,0.7,1.1,1.6,1.4,2.5c0.8,2.4,2.8,4,4.3,5.9c0.9,1.1,1.8,2.2,2.4,3.5c0.9,1.8,2.1,3.3,3.2,5
	c1.4,2,2.9,3.9,4.5,5.7c2.1,2.2,3.1,5,4.6,7.6c0.7,1.1,1.5,2.1,2.4,3.4c0.2-1.3-0.1-2.2-0.7-3c-0.2-0.3-0.7-0.5-0.3-0.9
	c0.3-0.4,0.7-0.5,1.2-0.3c0.8,0.3,1.2,1,1.5,1.8c0.4-1.6-0.3-2.7-1.8-2.7c-0.8,0-0.9-0.4-0.5-1c0.2-0.4,0.5-0.6,0.8-0.8
	c0.7-0.4,1.3-0.7,1.1-1.7c-0.1-0.4,0.3-0.8,0.7-0.8c2.1,0.1,3.5-1.4,5.1-2.3c3.4-1.8,7-1.7,10.6-0.6c3.7,1.1,5.8,4.1,7.2,7.6
	c0.8,1.9,2.3,2.9,4.3,3.3c1.4,0.3,2.2,1,2.4,2.4c0.1,0.4,0.1,0.7,0.1,1.1c0,0.3,0.5,0.7,0,0.9c-0.4,0.2-0.8-0.1-1-0.4
	c-0.2-0.2-0.4-0.5-0.7-0.7c-0.6-0.5-1.2-0.7-1.3,0.4c-0.1,0.6-0.3,1.1-1,1.2c-0.7,0.1-0.7-0.5-0.8-1c-0.4-1-0.6-1.1-2-0.4
	c0.4,0.9,1.5,1.4,1.8,2.4c0.4,1.1,0.1,2-0.8,2.6c-0.4,0.3-0.6,0.6-0.6,1.1c0,1.5-0.8,2.5-2,3.2c-0.4,0.3-0.9,0.6-1.3,0.2
	c-0.4-0.4-0.7-1-0.4-1.6c0.1-0.2,0.2-0.4,0.3-0.6c0.2-0.4-0.1-0.6-0.4-0.8c-0.4-0.2-0.6,0-0.7,0.4s-0.3,0.8-0.4,1.2
	c-0.5,1.3-0.3,1.5,1.1,2c2.2,0.8,4.7,1.2,6.4,2.8c2.1,1.9,4.3,3.6,5.6,6.2c0.6,1.3,0.7,1.3,1.7,0.2c0.9-1.1,1.8-2.4,2.9-3.3
	c1.6-1.4,3.5-2.3,5.7-2.6c2.3-0.3,4.9-0.3,6.5-2.5c0.3-0.4,0.8-0.5,1.2-0.8c1.6-0.8,2.2-1.7,1.5-3.3c-0.9-2.2-1.1-4.4-1.8-6.6
	c-0.6-2.1-0.6-4.1-0.3-6.1c0.5-3,1.6-5.7,4.6-7.1c1.6-0.8,3.5-1.5,5.2-1.4c2.8,0.3,5.3,1.5,6.8,4.2c0.9,1.8,1.6,3.5,0.9,5.6
	c-0.2,0.6-0.3,1.4,0,2c0.6,1.1,0.4,2.1-0.1,3.1c-0.7,1.3-0.8,3.1-2.4,3.8c-0.3,0.2-0.4,0.6-0.4,0.9c0,0.2-0.1,0.5,0.2,0.6
	c0.1,0,0.4-0.1,0.5-0.2c1.3-2.2,3.3-2.6,5.6-2.4c0.2,0,0.4,0,0.6-0.1c2.5-1.7,5.5-2.7,7.3-5.4c1.2-1.7,2.8-3.3,4.1-5
	c1.1-1.4,2.6-2,3.9-3.1c0.5-0.4,1-0.9,1.4-1.5c2.4-4.6,5.9-8.3,9-12.3c1.6-2,3.4-3.9,4.8-6.1c0.3-0.5,0.6-1,0.8-1.6
	c0.1-0.5,0.3-1,0.7-1.4c3.1-3.3,4-7.6,5.6-11.6c0.5-1.4,1.1-2.7,1.7-4.1c0.3-0.6,0.8-1,1.4-0.9c0.7,0.1,0.9,0.7,0.9,1.4
	c0.1,1.1-0.7,2.1-0.5,3.3c1.4-0.1,2.1-1.3,3.4-1.7c0.8-0.2,1.6-0.4,2,0.5c0.4,0.8-0.2,1.4-0.8,1.8c-1.2,0.8-2.2,1.8-3.3,2.8
	c0.2,0.5,0.6,0.3,0.9,0.4c0.6,0.2,1.1,0.6,1.1,1.3c-0.2,1.8-0.4,3.7-2.2,4.7c-0.6,0.3-1.1,0.7-1.4,1.4c-0.6,1.4-1.6,2.7-2.4,4.1
	c-2.1,3.6-3.7,7.5-5.9,11c-2.7,4.3-5.8,8.4-9.1,12.2c-1,1.1-1.7,2.3-2.4,3.6c-1.4,2.6-3.1,5-4.5,7.6c-1.4,2.5-3.2,4.8-4.8,7.1
	c-0.6,0.9-1.8,1.2-2.3,2.3c-1,1.9-1.7,3.9-2.2,6c-0.6,2.9-0.2,6-1.5,8.8c0,0.1,0,0.2,0,0.2c0.2,2.8-0.9,5.4-0.6,8.2
	c0.1,0.9,0.2,1.8-0.4,2.6c-0.3,0.4,0,0.6,0.3,0.8c1.4,1.4,2.7,2.8,4.1,4.2c0.8,0.8,1.3,1.9,2.1,2.7c0.9,0.9,2,0.8,3,0.9
	c0.6,0,0.5-0.6,0.3-0.9c-0.4-0.6-0.5-1.3-0.5-2.1c0-0.4-0.2-0.7-0.5-1c-1.2-0.8-1.7-1.9-1.7-3.4c0-0.9,0-1.8-0.3-2.7
	c-0.4-1.1,0.1-2.2,0.6-3.1c0.5-1.1,1.2-2,1.7-3.1c0.6-1.3,2-2,3.3-2.5c3.4-1.2,6.3-0.1,9.3,1.5c1.5,0.8,2.5,1.8,2.4,3.3
	s0,3.1-0.5,4.6c-0.1,0.2-0.2,0.5-0.2,0.7c0.2,3.2-1.2,5.8-2.7,8.3c-0.2,0.3-0.2,0.6,0.1,0.7c0.4,0.2,0.9,0.3,1.1-0.1
	c1.9-2.4,4.7-4.1,4.8-7.7c0.1-1.2,0.7-2.4,1.2-3.6c0.7-1.8,0.5-3.5,0.1-5.3s-0.7-3.6-0.8-5.4c-0.2-2.3-1.4-4.3-2-6.4
	c-0.9-3.4-3.5-5.5-5.7-8c-0.5-0.5-1-0.9-1.7-1c-0.5-0.1-0.9-0.3-0.9-0.8c0.1-1.2-0.7-1.9-1.2-2.8c-0.3-0.5-0.8-1-0.2-1.6
	c0.4-0.5,0.9-0.8,1.6-0.2c0.3,0.3,0.5,0,0.5-0.3c0-0.2,0-0.4,0-0.6c0-0.5,0.1-0.9,0.6-1.1c0.5-0.1,0.8,0.2,1.1,0.6
	c0.3,0.4,0.6,1,0.8,1.5c0.2,0.4,0.4,0.8,0.9,1.2c0-0.7,0-1.5,0-2.2c0-0.5,0-1,0.6-1.2c0.5-0.1,0.9,0.1,1.1,0.4
	c0.3,0.5,0.8,0.6,1.4,0.8c0.9,0.3,1.4,1.2,1.4,2.2c0,1.8,0.6,3.2,1.9,4.5c0.8,0.7,1,1.9,1.3,2.9c0.8,2.5,2.3,4.7,3.6,6.9
	c1.5,2.4,2.5,5,3.4,7.6c0.5,1.3,1,2.6,1.5,3.9c0.3,0.9,0.4,1.7,0.1,2.6c-1.2,3.1-1.7,6.4-2.4,9.6c-0.1,0.5,1.1,2.3,1.7,2.3
	c0.5,0,0.7-0.6,0.7-0.9c0-1.4,0.6-2.7,0.6-4.1c0-1.8,0.8-3.5,1.4-5.2c0.8-2.6,0.5-5.2,0.1-7.7c-0.4-2.7-1.9-5.2-2.3-7.9
	c-0.5-3.2-2.5-5.6-3.5-8.5c-0.8-2.5-1.2-5-1.5-7.6c-0.3-2.7-0.8-5.3-1.4-8c-0.2-0.9-1-1.1-1.3-1.8c-0.5-1-0.9-2.1-1.6-3.1
	c-0.7-1.2-0.4-2.4,0.9-3c1.9-1,4-1.2,6.1-0.7c1.8,0.5,3.1,3.6,2.3,5.6c-0.5,1.4-0.3,2.7,0.2,4.1c1.3,3.6,3.4,6.8,5.2,10.1
	c0.8,1.4,1.3,2.8,1.4,4.5c0.2,2.8,1,5.5,2.1,8.1c0.1,0.3,0.3,0.5,0.6,0.7c1.1,0.6,1.9,1.5,2.7,2.5c0.2,0.3,0.4,0.6,0.7,0.8
	c0.9,0.7,1.4,0.5,1.5-0.7c0.1-2.6,1.4-4.4,3.6-5.7c1.1-0.7,2.2-1.4,3.4-2c1.5-0.8,3.2-1,4.9-0.3c2,0.8,4.2,0.9,5.9,2.5
	c1,0.9,1.3,2.1,2.4,3.2c0-1.6,0.3-3.1-0.1-4.5c-0.7-2.8-0.5-5.6-0.5-8.3c0-1,0.1-2,0.1-3c-0.1-2.5,0.4-5,0.9-7.4c0.4-2,0.1-4,0.1-6
	c0-1.1,0.1-2.1,0.9-3c0.9-1,1.2-2.4,1-3.7c-0.4-2.4,1.6-3.6,3.6-3.9c1.1-0.2,1.6-0.8,1.7-1.8c0.2-0.9,0.1-1.9,0.9-2.6
	c0.3-0.2,0.5-0.7,1-0.5c0.4,0.2,0.7,0.5,0.7,0.9c0,0.9,0.3,1.1,1.2,1.1c0.8,0,0.9,0.7,0.8,1.3c-0.1,1-0.5,2-1.1,2.9
	c-1.4,2.2-2.6,4.6-3.8,6.9c-0.8,1.6-1.2,3.2-0.7,5.1c0.5,1.7,0.3,3.6,0.2,5.4c-0.1,1.6,0.5,3.1,0.9,4.6c0.6,2.8,1.1,5.6,0.8,8.4
	c-0.2,1.5-0.6,3-0.4,4.5c0.1,1.3,0.4,2.6,1.7,3.5c1,0.8,0.7,2.2,0.4,3.4c-0.2,0.7-0.1,1.2,0.1,1.8c1.2,3.7,4.1,5.5,7.5,6.8
	c0.3,0.1,0.5,0.2,0.7,0.4c0.7,1,1.2,0.5,1.7-0.1c0.6-0.8,0.8-1.7,0.7-2.7c-0.1-2,1.2-3.6,3.1-3.9c0.5-0.1,0.8-0.3,1.1-0.6
	c2-1.8,4.1-3.6,6.9-4c0.8-0.1,0.9-0.4,0.5-1s-0.7-1.4-1.2-1.9c-1.9-1.9-1.5-4-0.5-6.1c0.7-1.5,1-3.2,1.6-4.7
	c0.2-0.5,0.3-1.1,0.7-1.5c1.5-1.8,2.3-3.9,3.1-6c0.2-0.6,0.5-1,1.1-1.1c0.4,0,0.7-0.3,0.9-0.6c1.4-2,3-3.9,2.6-6.7
	c-0.2-1.5-0.1-3.1,0-4.7c0-1.6,0.5-2,2.1-2c0.5,0,0.7-0.3,0.9-0.6c0.6-0.7,1.2-1.3,2.2-0.6c0.1,0.1,0.4,0.1,0.6,0.1
	c1-0.1,1.4,0.4,1.4,1.3c0,1,0,2.1,0.2,3.1c0.2-0.8,0.5-1.5,0.6-2.3c0.1-0.7,0.5-1.2,1.2-1.2s1.2,0.5,1.3,1.2
	c0.1,0.5,0.2,0.9,0.8,1.1c0.4,0.1,0.5,0.5,0.4,0.8c-0.1,1.8-0.3,3.7-1.9,4.9c-2.6,1.9-3.9,4.6-5,7.3c-0.6,1.5-1.2,3.1-1.8,4.7
	c-0.5,1.2-0.9,2.4-0.1,3.7c0.3,0.5-0.1,1-0.4,1.4c-0.4,0.6-0.8,1.2-1.3,1.7c-0.4,0.4-0.6,0.8-0.2,1.4c0.3,0.4,0.5,1,0.4,1.5
	c-0.2,1.6,0.7,2.3,1.9,2.9c1.9,0.9,3.3,2.2,4,4.2c0.3,0.7,0.6,1.2,1.3,1.6c0.7,0.3,1.1,1,1.4,1.7s0.8,1.1,1.7,1.1
	c1.6,0,3,0.9,4.4,1.4c0.3,0.1,0.6,0.4,0.9,0.1c0.2-0.2,0-0.5-0.1-0.8c-0.7-2.2-1.5-4.3-1.4-6.7c0-1-0.2-2-0.4-3
	c-0.3-1.3,0.5-2.6,1.6-3.5c1.7-1.4,3.8-2.1,6-2.4c0.4,0,0.8-0.1,1.1-0.3c0.5-0.4,1.2-0.5,1.7-0.3c2.2,0.7,4.6,0.6,6.4,2.3
	c1.6,1.5,3,3.2,3,5.6c0,0.8,0,1.6,0.4,2.4c0.6,1.2-0.1,2.9-1.2,3.8c-0.3,0.3-0.8,0.4-0.9,0.9c-0.1,0.8,0,1.4,1,1.6
	c2.2,0.3,4.2-0.2,6-1.7c0.4-0.4,0.9-0.6,1.5-0.6c1.2,0.1,2.2-0.4,3.2-0.9s0.9-1.7,1.2-2.6c0.2-0.7,0.6-1.4,1-2
	c1.3-1.6,2.6-3.3,4.2-4.6c0.3-0.2,0.5-0.5,0.3-0.9c-0.2-0.3-0.1-0.7,0.1-1c0.5-0.9,0.8-1.8,1.1-2.8c0.2-0.5,0.1-1-0.1-1.5
	c-0.9-1.7-1.1-3.4-0.4-5.2c0.6-1.5,0.3-3-0.2-4.5c-0.7-1.8-1.6-3.6-2-5.5c-0.6-2.5-2.1-4.5-2.9-6.9c-0.5-1.3-0.5-2.7,0-4
	c0.2-0.5,0.2-0.9,0.2-1.4c0-0.4,0.2-0.9,0.6-0.9c1-0.1,1.1-0.8,1.2-1.5c0.1-0.6,0.2-1.1,0.6-1.5s0.8-0.9,1.4-0.7
	c0.6,0.2,0.9,0.7,1,1.3c0,0.8,0,1.7,0.2,2.5c0.3-0.9,0.5-1.8,0.7-2.7c0.2-0.7,0.4-1.2,1-1.6c0.2-0.1,0.3-0.2,0.5-0.3
	c0.5-0.1,2.6,1.6,2.6,2.1c0,0.6,0.2,0.9,0.7,1.3c0.7,0.6,1.1,1.3,0.7,2.3c-0.4,0.9-0.3,2-0.5,2.9c-0.4,2.7-1.7,5.3-0.9,8.1
	c0.5,1.8,0.9,3.8,2.8,4.9c0.1,0.1,0.3,0.2,0.3,0.3c0.4,1.6,1.5,2.9,1.7,4.4c0.3,1.9,1,3.6,1.8,5.3c0.9,2.1,0.9,4.3,0.5,6.5
	c-0.7,3.7-2.7,6.7-4.7,9.9c-0.1,0.1-0.2,0.3-0.2,0.4s0,0.2-0.1,0.6c0.9-0.8,1.6-1.5,2.3-2.2c2.5-2.5,7.6-2.4,10.3-0.2
	c2.4,2,3,4.5,3,7.4c0,1.2,0.8,2.3,0.3,3.6c-0.5,1.5-0.3,3.3-2,4.3c-0.4,0.2-0.5,0.6-0.3,1.1c0.1,0.2,0.2,0.4,0.4,0.3
	c0.4,0,0.5-0.4,0.7-0.7c0.7-1.5,1.9-2.1,3.4-2.2c1.2,0,2-0.5,2.8-1.4c0.7-0.8,1.8-1.3,2.7-2c2-1.5,2.9-3.7,4.2-5.7
	c0.9-1.4,1.6-2.9,3-4c0.3-0.3,0.4-0.6,0.5-0.9c0.4-2.2,0.7-4.4,1.1-6.6c0.3-1.7,0.8-3.3,1.3-4.9c1.1-3.8,2.4-7.5,3.1-11.4
	c0.2-1.1,0-2.3,0.4-3.4c0.1-0.2-0.2-0.7-0.4-0.9c-1-0.8-1.5-1.9-2.3-2.9c-0.6-0.8-1.4-1.3-2.2-1.8s-0.7-1,0-1.6c1-0.7,2-0.6,3.4,0.5
	c0.5,0.4,0.9,1.1,1.6,0.7c0.8-0.4,0.7-1.2,0.7-1.9c0.1-1.9-0.3-3.8,0.4-5.6c0.3-0.7,0.6-1.1,1.4-1c0.8,0.1,0.7,0.8,0.7,1.3
	c0,1.1,0,2.2,0.2,3.4c0.1-1.2,0.5-2.3,0.7-3.5c0.1-0.6,0.3-1.2,0.7-1.6c0.4-0.4,0.8-1,1.4-0.6c0.6,0.4,1,0.9,0.6,1.7
	c-0.2,0.4-0.3,0.9-0.1,1.5c0.3-0.6,0.5-1.3,0.9-1.7c0.4-0.5,0.9-0.7,1.5-0.4c0.5,0.3,0.7,0.7,0.5,1.3c-0.3,0.8-0.2,1.4,0.9,1.4
	c0.8,0,1.1,0.5,0.8,1.3c-0.5,1.4-1.5,2.5-2.1,3.8c-0.9,2.1-1.4,4.4-2.7,6.4c-0.1,0.1-0.1,0.2-0.1,0.3c0.8,2.4-0.1,4.7-0.4,7
	c-0.4,3.3-0.2,6.6-1.1,9.8c-0.8,2.9-1.2,5.9-2.3,8.7c-0.9,2.4-1,4.9-1.7,7.3c-0.5,1.5-1.3,2.9-1.8,4.4c-1.2,3.2-2.8,6.3-4.6,9.1
	c-0.9,1.3-1.8,2.6-2.3,4.1c-0.5,1.4-0.9,2.8-0.8,4.3c0,0.5,0.2,0.8,0.7,0.4c1.2-0.8,2.5-0.8,3.8-0.8c1.9,0.1,3.9-0.2,5.8,0.4
	c0.8,0.3,1.2-0.2,1-1.1c-0.4-2-1.1-4-1.3-6c-0.3-2.7,2.3-5.7,5.2-6.4c1.8-0.4,3.6-0.8,5.4-0.1c2,0.8,3.6,1.8,4,4.2
	c0.2,0.9,0.5,1.8,0.6,2.8c0,0.2,0.1,0.5,0.3,0.6c1,0.6,1.2,1.4,0.9,2.5c-0.4,1.1-0.1,1.4,1.1,1.5c1.8,0,3.5,0.1,5.3,0
	c2.1-0.1,3.2,1.2,3.8,3.2c0.4,1.4,0.9,2.4,2.7,2.7c1.5,0.3,3,0.4,4.5,0.4c1.1,0,1.5-0.5,1.1-1.6c-0.2-0.6-0.5-1.1-0.8-1.6
	c-0.6-1-0.7-2.1-0.9-3.2c-0.2-1.5-1.1-2.8-1.6-4.2c-0.4-1.2-1.6-1.5-2.5-1.8c-2.6-0.7-3.4-3-4.6-4.9c-0.4-0.6,0.1-1,0.8-1.1
	c1.1-0.1,1.7,0.7,2.4,1.4c-0.2-1.1-0.7-2.2-1.3-3.2c-0.4-0.7-0.7-1.4-1.1-2.1c-0.3-0.6-0.2-1.4,0.3-1.5c1.3-0.2,0.9-2.6,2.9-1.8
	c0.9,0.3,2,0.8,3.1,0.5c0.4-0.1,0.8,0.5,1.1,0.9c1.2,1.7,2.2,3.6,3.2,5.5c0.3,0.7,0.7,1.3,0.9,2.1c0.2,0.9,0.6,1.5,1.8,1.8
	c1.2,0.2,2.3,1.2,2.3,2.8c0,1.7,0.4,3.3,1.4,4.8c0.7,1,0.8,2.2,1.1,3.4c0.3,1.4,1.1,2.6,1.5,4c0.4,1.5,0.5,2.9,0.7,4.4
	c0.2,1.8-1.1,2.9-3.2,3.6c-2.7,0.8-5.5,1.2-8.3,1.4c-1.9,0.1-3.9,0.2-5.8,0.4c-1.4,0.2-2.3,1.3-2.9,2.5c-1.9,3.6-3.4,7.4-4,11.4
	c-0.2,1-0.2,2-0.1,3c0.3,1.9,0.2,3.7,0,5.6c-0.2,2-0.1,2,1.2,3.6c0.1,0.2,0.3,0.3,0.4,0.5C377.1,143.2,200.7,143.2,24.3,143.2z
	 M392.1,77.6c-0.1,0.8-0.1,1.5-0.3,2.1c-0.3,1.2-0.4,2.5-2,2.8c-0.7,0.2-0.5,0.7-0.3,1.3c0.2,0.5,0.7,1,0.2,1.5
	c-1,1.1-2,2.2-3.7,1.8c-0.4-0.1-0.6,0.1-0.8,0.4c-0.7,1.1-1.8,1.9-2.8,2.8c-1.7,1.4-1.6,1.5-0.2,3.1c0.3,0.4,0.7,0.8,1.1,1.1
	c1.6,1.5,2.1,3.4,1.3,5.2c-0.5,1-0.7,2-1,3c-0.5,1.5-0.3,1.7,1.3,1.4c0.4-0.1,0.8-0.2,1.2-0.2c1.9-0.1,3.2-1.2,3.8-2.8
	c0.9-2.2,2.1-4,4.1-5.4c1.9-1.3,2.1-3.1,1.1-5.2c-0.5-0.9-0.8-1.9-1-2.9C393.4,84.3,392.8,81,392.1,77.6z M481.1,104.2
	c1.4-1.8,3.1-2.9,5.1-3.7c1.5-0.6,3.1-1,4.6-1.5c0.6-0.2,0.9-0.5,1.3-1c0.5-0.8,1.2-1.4,2-1.8c1.2-0.8,1.4-1.1,0.8-2.5
	c-0.7-1.5-1.4-3-1.9-4.6c-0.5-1.4-1.1-2.8-1.2-4.2c-0.1-1.5-0.6-2.9-0.1-4.4c0.2-0.7,0-1.6,0-2.4c-1.2,2.2-2.9,4.1-4.4,6
	c-3,3.7-5.3,7.7-5.7,12.6c-0.2,1.7,0,3.5-0.5,5.2C480.9,102.6,481.1,103.5,481.1,104.2z M279.4,89.9c-0.9-0.7-1.9-1-2.8-1.5
	c-0.5-0.3-0.8-0.1-1.2,0.2c-1,1-2,1.9-3,2.9c-0.2,0.2-0.6,0.6-0.4,0.9c0.7,1.6-0.1,3.1-0.3,4.7c-0.4,2.8-1.1,5.5-0.6,8.4
	c0.2,1.1,0.2,2.2,0.1,3.3c0,0.4,0,0.9,0.1,1.3c0.1,0.5,0.3,0.6,0.8,0.4c1.8-1,3.7-2,5.4-3.2c0.4-0.3,0.9-0.6,0.9-1.1
	c0-1.7-0.1-3.3-1.1-4.8c-0.8-1.3-1.3-2.6-0.9-4.1c0.2-0.7,0.4-1.4,0.3-2.1C276.5,93,277.7,91.4,279.4,89.9z M380.1,124.4
	c0.1-0.1,0.2-0.2,0.2-0.2c-0.1-2.1,0.8-4.2,0.7-6.3c0-0.6,0.4-1.3,0.9-1.8c1.4-1.8,3.2-2.5,5.5-2.4c0.5,0,1.1,0.2,1.5-0.3
	c0.9-1.3,1.6-2.7,1.3-4.3c-0.1-0.6-0.2-0.7-0.7-0.4c-1.7,0.8-3.5,1.4-5.1,2.4c-1.2,0.8-3.5,0.6-3.4,2.9c0,0.2-0.3,0.3-0.5,0.5
	c-0.6,0.6-1.1,1.3-1.7,1.9c-0.8,0.7-0.7,1.6-0.3,2.4c0.6,1.1,0.7,2.2-0.2,3.2c-0.3,0.4-0.4,0.9,0.1,1.1
	C378.9,123.4,379.4,124,380.1,124.4z M424.9,111.9c-0.1-0.3,0.3-1-0.2-1.2c-0.4-0.2-0.7,0.5-1,0.7c-1.7,1.4-2.2,3.2-2.1,5.3
	c0.1,2.3-0.6,4.2-2.9,5.4c-0.5,0.3-1.1,0.7-0.8,1.3c0.6,1.3,0.4,2.5-0.6,3.5c-0.4,0.4-0.1,0.8,0.3,1.1c0.4,0.4,0.6,0,0.8-0.2
	c1.4-1.4,3.1-2.2,4.7-3.3c0.9-0.7,0.9-1.1,0-1.8c-0.5-0.3-0.8-0.7-1-1.3c-0.3-0.9-0.7-1.8,0-2.7c0.7-0.8,1.6-0.1,2.3,0
	c1.7,0.3,2,0.2,1.8-1.6c0-0.3-0.2-0.6-0.3-0.9C425.3,115,424.8,113.6,424.9,111.9z M137.6,92.8c1.3,1.1,2.3,2.3,2.6,3.8
	c0.1,0.4,0.4,0.8,0.6,1.2c0.4,1.2,1.5,2.1,1.6,3.4c0.2,2.6,0.1,5.2-0.8,7.7c-0.4,1.1-0.1,1.6,1,1.9c1.5,0.3,2.9,0.7,4.4,1
	c0.3,0.1,0.6,0.3,0.9-0.1c-0.2-0.7-0.7-1.3-1-2c-0.7-1.5-0.9-3.1-1.8-4.5c-0.7-1.2-1.3-2.5-1.1-4c0.1-0.5-0.1-0.9-0.3-1.4
	c-1.1-2.2-2.6-4.1-4-6.1C139.4,93.2,138.9,92.3,137.6,92.8z M93.2,94.1c0.1,0.1,0.3,0.1,0.4,0.2c2,0.6,2.7,2.6,3.9,4.1
	c0.4,0.4,0.3,1.3-0.3,1.8c-0.6,0.6-0.8,1.3-0.8,2.2c0,1,0,1.9,0,2.9c0,0.4,0,0.8-0.3,1c-1.2,0.6-1.2,1.7-1.5,2.7
	c-0.2,0.6,0,0.7,0.5,0.9c1.2,0.5,1.9,0.4,1.8-1.1c0-0.2,0.2-0.4,0.2-0.7c0.4-1.6,1.3-3.1,0.6-4.9c-0.1-0.3,0-0.6,0.2-0.9
	c0.7-1.8,1.4-3.6,2-5.5c0.4-1,0.1-1.5-1-1.6c-0.9-0.1-1.8-0.3-2.7-0.5C95.2,94.3,94.2,93.7,93.2,94.1z M486,129.6
	c0-0.2-0.1-0.3-0.1-0.4c-0.4-2.3-2-4.2-2-6.6c0-0.3-0.2-0.5-0.6-0.5c-0.8,0.1-1.7,0.1-2.2,0.9s-1.2,1.5-1.8,2.2
	c-1.1,1.6-1.1,1.5,0.6,2.4c1.6,0.8,3.4,1.2,5,2.3C485.4,130.3,485.9,130.4,486,129.6z M521.3,121.8c-0.4,1.9-0.9,3.6-0.3,5.4
	c0.4,1.1,0.4,2.4,0,3.5c-0.5,1.2-0.4,2.4-0.1,3.6c0.1,0.4,0.3,0.8,0.2,1.3c0,0.2-0.4,0.5,0.1,0.7c0.3,0.1,0.5-0.2,0.7-0.4
	c0.3-0.3,0.3-0.7,0.3-1c-0.2-1.4,0.5-2.4,1.3-3.3c0.5-0.6,0.8-1.1,0.9-1.9C524.5,126.7,523.7,124,521.3,121.8z M436.2,91.4
	c0.4,0,0.7,0,0.9,0c0.4,0,0.9,0.2,1.1-0.2c0.2-0.4-0.2-0.8-0.6-1.1c-1.6-1.3-3.1-2.8-4.4-4.4c-0.2-0.3-0.6-0.5-0.9,0
	c-0.5,0.9-1.4,1.4-2.1,2.1c-0.2,0.2-0.8,0.6-0.4,0.8c0.8,0.6,1.2,1.8,2,1.9C433.4,90.7,434.7,91.7,436.2,91.4z M175.1,113.1
	c-1.1,0.5-2,0.8-2.8,1.2c-0.2,0.1-0.5,0.2-0.5,0.5c0,1-0.3,2.1,0.2,2.9c1.1,1.8,0.7,4,2,5.7c0.2,0.3,0.1,0.9,0.1,1.4s0,1,0,1.4
	s0.2,0.6,0.6,0.6c0.4,0,0.9,0.2,1.3-0.1c0.3-0.3,0.2-0.7,0-1c-0.3-0.4-0.4-0.9-0.4-1.4c0-0.7-0.3-1.3-0.6-2
	c-0.5-1.2-1.2-2.5-0.7-3.8c0.2-0.6,0.3-1.1,0.3-1.7C174.5,115.6,174.4,114.4,175.1,113.1z M176.8,111.2c1.6-0.9,3.2-1.2,5-1.1
	c-1.3-3.1-2.9-5.7-5.2-8.2c-0.1,1.2,0.1,2.1,0.2,3C176.9,106.9,178.6,109,176.8,111.2z M57.7,125.9c1.3-1.7,3.2-3,3.6-5.4
	c0.2-1.1-0.3-1.9-1.5-2.1c-1-0.2-1.4,0.5-1.7,1.3C57.2,121.7,57.6,123.8,57.7,125.9z M349.9,123.5c1.5-3.4,2.9-6.8,3.4-10.7
	c-0.4,0.3-0.8,0.6-1,0.9c-1.1,1.8-3,3.3-2.3,5.8c0.1,0.3-0.1,0.6-0.2,0.9C349.5,121.5,349.5,122.5,349.9,123.5z M127.9,104.9
	c-0.1,1.3,0.5,2.5,0.3,3.7c-0.1,0.9,0.3,1.7,0.6,2.5c0.1,0.3,0.2,0.5,0.6,0.4c0.6-0.2,1.3-0.4,1.9-0.7c0.2-0.1,0.5-0.2,0.4-0.4
	c-0.5-0.6-0.5-1.7-1.1-2.1C129.3,107.6,128.7,106.3,127.9,104.9z M443.1,111.8c0-1.2,0-2.3,0-3.5c0-0.3,0-0.7-0.4-0.7
	s-0.4,0.4-0.4,0.6c0.4,2.1-0.3,4.1-0.5,6.1c0,0.3,0,0.6,0,0.8c0,0.5,0.3,0.8,0.7,0.8c0.6,0,0.6-0.4,0.6-0.8
	C443.1,114,443.1,112.9,443.1,111.8z M204.7,129.5c0.4,0,0.9,0.1,1.2-0.3c0.6-0.8,0.4-2.9-0.3-3.8c-0.2-0.2-0.3-0.6-0.7-0.5
	s-0.4,0.4-0.4,0.8c-0.2,0.9-0.3,1.9-0.7,2.6C203.1,129.6,203.8,129.6,204.7,129.5z M127.4,97.3c0.6-1.8,2-2.9,3.2-4
	c0.6-0.6-0.2-1.2,0.2-1.7c-0.6,0-1.3-0.3-1.8,0.4c-0.9,1.3-1,2.9-1.8,4.2C127,96.5,127,96.9,127.4,97.3z M321.8,130.6
	c0.2-1.9-0.3-3.6,0-5.2c0.1-0.3-0.1-0.6-0.3-0.9c-0.2-0.3-0.5-0.3-0.6,0.1c-0.4,1.5-1.2,3.1,0.3,4.5
	C321.7,129.5,321.6,130,321.8,130.6z"/>
</svg>
