<?xml version="1.0" encoding="utf-8"?>
<!-- Generator: Adobe Illustrator 27.0.0, SVG Export Plug-In . SVG Version: 6.00 Build 0)  -->
<svg version="1.1" id="Capa_1" xmlns="http://www.w3.org/2000/svg" xmlns:xlink="http://www.w3.org/1999/xlink" x="0px" y="0px"
	 viewBox="0 0 576.3 114" style="enable-background:new 0 0 576.3 114;" xml:space="preserve">
<style type="text/css">
	.st0{fill-rule:evenodd;clip-rule:evenodd;fill:#FFA600;}
	.st1{fill:#FFA600;}
</style>
<g>
	<path class="st0" d="M573.7,102l0.5,0.7c0,0-0.7,0.4-0.9,1c0,0-2,1.8-4.7,0.7c0,0-0.6-0.5-1.6-0.2c0,0-0.6-1-1.5-1
		c0,0-0.9-0.6-1.2,1.1c0,0-2.9,6-3.4,6.4c0,0,0.4,1.8,0.8,3.4h-33.5c0.7-3.1,2.2-7.4,2.5-8.6c0,0,0.9-5.2-1.3-6.8
		c0,0-11.7-6-13.6-9.4c0,0-1.3-1.6-2.8-3.5c0-0.5-0.1-1-0.2-1.5c-0.6-2.6-0.9-5.5-2-8c-0.2-0.5-0.4-1-0.7-1.5c0-0.2,0-0.4,0-0.6
		c-0.3-2.4-0.7-4.5-1.5-6.8c-0.4-1.1-0.9-2.3-1.4-3.4c0-0.4,0-0.8-0.1-1.1c0-0.3-0.1-0.5-0.1-0.8c0-1.3,0.2-2.7,0.1-4
		c-0.1-1.2-0.3-2.3-0.8-3.3c0.3-2.1,0.7-4.1,1.1-4.4c0,0-0.8-3.6-0.4-6.3l-0.2-5.1c0,0,0.3-2.7,1.4-0.4c0,0,0.6,2.7,0.5,3.7
		c0,0,0.2,1.1,0.8,0.1c0,0,0.6-4.4,1.1-5.7c0,0,1.2-3.5,1.7-1.1c0.4,1.8-0.7,4.2-0.7,5.4c0,0-0.4,2.6,0.4,1.1c0,0,0.8-2.4,0.9-2.9
		c0,0,0.3-0.9,0.6-2c0,0,1.3-4.4,2.2-2c0,0-1,4.3-1.4,6.1c0.1-0.4,1.4-4.2,2-2.6c0,0-0.6,4.3-1.5,5.6c0,0-1,4.6-0.8,5.3
		c0,0,0.6,0.8,0.6,2.3c0,0,1,2,0.9,3.3c-0.1,1.4,0.5,1.7,0.5,2.4c0,0,4.1,16,3.6,19.4c0,0,2.2,1.6,2.7,2.4c0.5,0.8,1.9,1.1,2.9,1.2
		c1,0.1,2.9,1.1,3.1,2.1c0,0,0.9,0.5,2.2,0.6c0,0,5.7,0.3,6.8,1.8c0,0,1.8-0.8,2.4-0.7c0,0-0.7-2.2-1.4-3c0,0-2.2-4.1-0.3-8.8
		c0,0,1.3-1.5,1.8-2.5c0,0,0.5-1.9,1.7-2c0,0,1.3-1.1,1.4-1.8c0,0,0.9-1.9,2.2-1.9c0,0,1.4-0.8,2.7-0.8c0,0,3.1-2,5,0
		c0,0,2.8,1.6,2.8,2.2c0,0,0.4-8,0.1-9.6c0,0-0.6-1.8-0.1-3.7c0,0-1.6-4.1-0.4-5.6c0,0-0.1-1.1-0.8-1.6c0,0-2.2-1.5-2.3-2.4
		c0,0-0.5-0.9-1.1-1.4l-1.6-1c0,0-1.2-1.2,0.1-1.6c0,0,1.8,0.1,2,1c0,0,1.4,1.5,2.2,1c0,0,1.8-1.1,1.3-3.9l-0.4-5.1
		c0,0-0.1-1.7,1-1.6c0,0,1.3,0.1,0.9,3.4c0,0,0.7,4,1.8,1.5c0,0,1.9-5.4,2.2-5.9c0,0,1.4-1.3,1.4,0.6l-0.9,3.7c0,0-0.4,1.4,0.6-0.3
		c0,0,1.6-3,2.1-3.3c0,0,2-0.7,0.9,1.6c0,0-2.6,5.2-1.6,4.6c0,0,2.5-2.5,3-2.6c0,0,2-0.5,0.6,1.1c0,0-3.5,3.7-3.9,5.3
		c0,0-0.6,2-1.1,2.6c0,0-0.6,2.3-0.5,3c0,0,1.7,0.3,1.8,0.7c0,0-1.1,4.9,0.6,9.4c0,0,1,4.4,0.5,7.1c-0.5,2.6,0,4.2,0,5.4
		c0,1.2-0.1,4.8-0.4,5.7c0,0,1.6,2.2,1.6,4.4c0,0,1.7-1.1,4.4-1c0,0-3.7,0.7-4,1.6c0,0-0.2,1.8,0.4,1.8c0,0,4,1.1,4.6,1.9
		c0,0,0.2,0.1,0.8,0.2c0,0-1.1,0.3-2.2-0.3c0,0-3.1-1.1-2.2-0.1c0,0,2.5,0.7,2.6,1.9c0,0-2-1.3-2.8-1.1c0,0-0.8,0-0.4,0.8
		c0,0,0.6,0.6,0.6,1.7c0,0-0.6,0.4,1.2,1.8c0,0,1.1,1,1.1,1.7c0,0-1.4-1.4-2.3-1.7c0,0-0.6-0.5-0.1,1.1c0,0-0.1,3.1,1.6,2.8
		c0,0,1.6,0,2.2-0.3c0,0,3.2-1.2,3.8-0.7c0,0,2,0.1,2.4,0c0,0-1.8,4.6-4.2,6.2c0,0-1.1,1.6-0.3,1.9c0,0,1.9,1.6,1.9,2.2
		c0,0,0.8,0.3,1.2,0.4C575.3,100.8,573.7,101.2,573.7,102z"/>
	<path class="st1" d="M117.8,96.8c-1.3-3.8,0.5-3.5-2.8-8.1c0,0-1.3-4.5-2.3-5.8c-1-1.3-2-6.5-2.5-6.3c-0.5,0.1-0.1-6.2-0.1-7.3
		c0-1.1,1.3-4.3,1.3-6.3c0-1.8,0.1-3.8-0.1-4.5c0-0.1-0.1-0.2-0.1-0.2c0,0,0,0,0,0c-0.5-0.4-0.2-3.9-0.2-4.4c0-0.5,0.6-4-0.8-4.4
		c-1.4-0.4-1.2-4.2-1.2-4.9c0.1-0.7,0.5-4.1-1-5.3c0,0,0.2-4-1.8-4c0,0-0.3-5-0.7-5.6c-0.4-0.5-0.5-3.6-1.1-4.6
		c-0.6-1-0.9-4.1-0.7-5c0.2-0.8-0.4-2.9-0.8-3c-0.4-0.1-1.1-2.5-2.4-3.4c0,0-0.3-0.8-0.3-1.8s-0.1-1.8-0.1-1.8s0.3-2.7-0.6-2.1
		c-0.9,0.5-0.6,1.5-0.6,1.5l-0.2,1.6l-0.1,1.5c0,0-0.7,0.6-1.2-0.5c-0.4-1.1-0.6-1.5-0.6-1.5l0.4-2.2c0,0,0-2.1-0.8-2.1
		c-0.8,0-1.3,2.1-1.3,2.1l-0.3,2.3c0,0-0.1,0.9,0.1,1.1c0.3,0.2-1.3-0.3-1.2-1.8c0,0-0.5-1.9-0.5-2.3c0-0.4-0.2-1.5-0.8-1.5
		c-0.6,0-0.9,0.7-0.6,1.6c0.2,0.9,0.3,2.8,0.3,2.8l0,1c0,0-0.8-0.9-0.8-1.3c0-0.4-0.7-2.2-0.9-2.2c0,0-0.6-1-1.3-0.2
		c0,0-0.1,0.8,0.2,1.6c0.3,0.8,0.5,1.4,0.5,1.4l0.1,1.3l0.6,1.3l0.9,0.6c0,0,0.2,1,0.1,1.1s1,1.4,1.1,1.4c0.1,0,0.6,1.1,0.6,1.4
		c0,0.3,2.8,2,3.4,2.1c0.6,0.1,1.4,1.4,1.4,1.9c0,0.5,0.4,4.4,0.4,4.4l0.1,5.8c0,0-0.2,5.3-0.2,5.5s-0.1,8.5,0,9.5
		c0.2,1-0.4,5.2,0.2,5.7c0.6,0.5,0.7,3.8,0.7,3.8s-0.9,2.7-0.4,3.6c0.5,0.9-0.2,2.9-0.2,2.9s0,0.9,0.1,1.7c-0.3-0.2-0.7-0.4-0.7-0.4
		c-0.1,0-0.9-0.4-0.9-0.4s-2.1-5.6-3.8-6.9c-1.6-1.3-6-2.2-6-2.2s-4.2,0.1-4.8,1.5c0,0-3.2,2-3,4.4c0.2,2.4,0.3,2.6,0.3,2.6l0,2.1
		c0,0-0.5,2.1,0.2,2.8l0.6,1.2c0,0,1.1,5.1,2.7,4.3c0,0,2.3,3.8,2.8,4.1l0,0.7c0,0-2.6,2.6-2.7,3.2c-0.1,0.7-4.9,5.5-5.2,8
		c-0.3,2.5,0,7.8,0,7.8s-0.2,2.9-0.1,3.4c0,0.5,0.2,1.3,0.3,1.8c0.2,0.4,0.3,1,0.3,1.9s0,2.1,0.3,2.5c0.2,0.4,0.2,2.2,0.3,2.7
		c0.1,0.3,0.8,2.4,1.3,4h35.6l1.2-1.1C117.4,112.9,119.2,100.6,117.8,96.8z M99.3,67.6c-0.2,0.1-0.1-0.2,0-0.5
		C99.4,67.4,99.5,67.6,99.3,67.6z"/>
	<path class="st1" d="M225.1,73.8c-5.4,1.6-9.9,5.6-12,10.8c-0.9,2.1-1.4,4.5-1.4,6.9c0,2.2,0.4,4.4,1.2,6.4c0,0.2,0,0.4,0,0.5
		c0,0.6,0,1.1,0.1,1.7c-1.3,1.2-2.4,2.5-3.3,4c-1.9,3.1-3.3,6.4-4.5,9.9h-19.2c0-0.2-0.1-0.4-0.1-0.7c-0.2-0.8-0.3-1.4-0.5-1.9
		c-0.2-0.5-0.8-1.8-0.8-3c0-1.2-0.4-1.4-0.8-2.8c-0.5-1.3-0.9-2.6-1.3-3.8c-0.4-1.2-0.5-5.5-0.4-6.7c0.1-1.1,0.8-3.4,1.2-4.5
		c0.4-1,0.6-3.3,0.6-4.7c0-1.4-0.2-1.4-0.7-2.6c-0.3-0.6-0.3-1.9-0.4-3.2c0-1.3,0-2.5,0-3c0-1-0.3-1.6-0.4-2.6
		c-0.1-1.1-1.3-4.5-1.3-5.4c0-0.8-0.8-2.2-0.8-3c0-0.8,0.5-1.9,0.9-2.4c0.4-0.5,1.4-3.1,1.4-3.1s0.3-1,0.6-2.4
		c0.2-0.8,0.3-1.8,0.3-2.7c0.1-2.3,1.7-9.3,1.9-9.8c0.2-0.6,0.1-3.7-0.3-6.5c-0.4-2.8,1-12.5,1-13.1c0-0.6,0.7-7.3,0.7-7.8
		c0-0.5-0.1-1.1-0.3-1.5c-0.1-0.3-0.7-2.2-0.7-2.7c0-0.5-0.2-1.9-0.5-2.6c-0.3-0.7-0.8-2.4-1-2.8c-0.2-0.4-0.6-2.6-0.7-2.9
		c-0.1-0.3-0.5-1.7-0.5-2c0-0.3,0.3-0.5,0.5-0.6c0.3,0,0.6,0.1,0.6,0.1S184,1.8,184,1.5c0-0.3,0.2-0.8,0.6-0.8
		c0.4,0,0.4,0.2,0.7,0.3c0.2,0.1,0.4,1.3,0.4,1.5c0.1,0.2,0.3,1.1,0.5,1.3c0.3,0.2,1.1,2.1,1.1,2.1s-0.1-2.6-0.2-3S187,1.3,187,1
		c0-0.3,0.2-0.7,0.5-0.7c0.3,0,0.5,0.1,0.8,0.4c0.3,0.3,0.4,1.6,0.4,1.9s0.3,1.5,0.4,1.7c0.1,0.1,0,1.8,0.4,2.2
		c0.4,0.4,0.7,1.9,1,1.9c0.3,0,0.6-0.1,0.6-0.4s0.3-1.8,0.3-2.2c0-0.4,0.3-2.6,0.3-2.7c0-0.2,0.1-1.6,0.4-1.8
		c0.3-0.2,0.5-0.2,0.9,0.1c0.4,0.3,0.3,2.1,0.3,2.1s-0.2,1.2,0.1,2c0.2,0.8,0.2,1,0.2,1l0.9,1.1c0,0,0.9,0.6,1.3,1.3
		c0.4,0.7,0,2.9,0,2.9s-0.8,3.2-1,3.7c-0.2,0.5-1.6,2-1.5,2.4c0.1,0.3-0.7,2.3-0.7,2.3S192,36,192.9,41.9c0.8,5.9-0.3,8.7-0.3,10.3
		c0.1,1.6-1.2,6.2-1.1,6.8c0.2,0.6,0.5,1.8,0.6,1.8s0.9,1,1.1,1.8c0.1,0.8,0.6,1.2,1.3,1.5c0.7,0.3,0.2,1.2,0.4,1.5
		c0.1,0.3,0.9,0.5,1.2,0.4c0.3,0,0.7-0.2,0.7-0.9c0.1-0.7,0.6-1.9,0.4-1.9c-0.2,0-0.9-0.2-1.2-0.5c-0.3-0.3-1.1-0.5-0.8-1.6
		c0.3-1.1-0.2-0.3-0.7-0.6s-0.7-0.3-1-0.9c-0.3-0.6-0.3-0.9,0-2.2c0.3-1.3,0-0.6-0.3-1.2c-0.3-0.7-0.4-1.1-0.6-1.7
		c-0.2-0.6,0.3-1.2,0.8-2c0.5-0.8,0.4-0.9,0.6-1.5c0.2-0.6-0.3-0.2-0.4-0.5c0-0.2,0.1-0.4,0.2-0.5s0.4-0.3,0.3-0.9
		c-0.1-0.5-0.2-1-0.2-1.3c0-0.3,0.9-0.4,1-0.8c0.1-0.4-0.3-0.4-0.6-0.5c-0.3-0.2-0.2-0.4-0.1-1c0.1-0.5,0.8-1.2,1.5-2
		c0.6-0.8,0.3-0.9,0.3-0.9s-0.7,0.2-1.1,0.4c-0.3,0.2-0.9,0.9-1.1,1.1c0.1-0.2,0.4-0.8,0.5-1c0.1-0.3,1-1.2,1.6-1.6
		c0.7-0.4,1.4-0.1,1.6-0.4c0.2-0.3,1-0.9,1.9-1.5c0.9-0.7,1.7-0.4,1.9-0.9c0.2-0.5-0.1-0.4-0.6-1.1c-0.3-0.5-1.5-0.2-2-0.1
		c0.3-0.1,0.9-0.4,1.2-0.7c0.5-0.4,2.1,0.5,3.2,0.8c1.1,0.3,2.2,1.3,2.9,1.4c0.7,0,1.5,2,1.5,2s0-0.3,0-1.1c0.1-0.7-0.7-0.7-0.8-1.2
		c-0.2-0.5-0.7-1.1-1.9-1.4c-1.1-0.3-1.8-0.4-1.9-0.4c0.1,0,0.3,0,1.1,0c0.9,0,2.7,1.1,3.8,2.1c1,1,0.8,3.2,0.8,3.2s0.8,0.2,1.5-0.2
		c0.7-0.3,1.4-0.2,3,0.2c1.5,0.4,1.5,1.3,2.2,1.9c0.1,0.1,0.2,0.2,0.2,0.3c0.2,0.3-0.2,0.5,0.5,1.4c0.9,1.1-0.6,2.8-0.7,3.2
		c-0.1,0.5-0.1,1,0.3,1.4c0.4,0.4,0.6,0.9,0.6,1.5s-0.4,1.2-0.4,1.2s0.2-0.6,0.2-1c0-0.4-0.2-0.6-0.5-0.8s-0.5,0.4-0.5,0.7
		c-0.1,0.3,0.1,1.1,0.5,1.3c0.3,0.2,0.1,0.8,0.1,1.3c0,0.5-0.5,0.8-0.5,0.8s0.1-0.2,0.3-0.6c0.2-0.4,0-0.8-0.2-1.1
		c0-0.1-0.1-0.1-0.1-0.1c-0.2-0.1-0.4,0.2-0.6,0.5c-0.2,0.4,0,0.5,0.2,1.2c0,0.1,0.1,0.3,0.1,0.5c0.1,1.1-0.5,2-0.5,2
		s0.3-0.6,0.4-1.7c0-0.2,0-0.4,0-0.5c-0.1-0.8-0.5-1.1-0.5-1.1s-0.5,0.4-0.1,0.8c0.2,0.2,0.2,0.8,0.1,1.3c0,0,0,0,0,0
		c0,0.2-0.1,0.5-0.1,0.7c0,0.2-0.2,0.4-0.5,0.6c-0.4,0.2-1,0.4-1,0.5c0,0.1-0.9,1.7-1.1,2c-0.1,0.2-1.2,2.3-1.7,2.7
		c-0.5,0.4-1.2,1.8-1.5,2.2c-0.3,0.5-1,0.7-1,0.7s0.5,1,0.6,0.9c0.1-0.1,0.5-0.3,1.1-0.3h2c0.5,0,1.8-0.1,2.2-0.6
		c0.5-0.4,2.5-0.1,2.6,0.6c0.1,0.6,1.3,0.8,2.3,1.2c0.2,0.1,0.4,0.1,0.5,0.2c1.1,0.5,4.6,4,4.6,4s0.7,0.6,1.5,1.3
		C224.8,73.6,225,73.7,225.1,73.8z"/>
	<g>
		<path class="st1" d="M282.7,103.7c-2.5-3-5.5-7.3-7.2-8.3c-1.7-1-1.7-1.6-2.5-3.6c0,0-1.3-6.7-1.4-7c-0.1-0.3-1.2-4.3-1.2-6.8
			c0-1.9,0.2-5.6,0.9-8c0.2-0.7,0.4-1.3,0.6-1.7c0.5-0.8,1.1-3.9,1.5-7.2c0.2-1.7,0.4-3.4,0.4-5c2.1,1,3.6,1.7,3.8,1.8
			c-0.5-0.4-1.9-1.2-3.8-2.2c0.1-1.9,0-3.6-0.2-4.6c-0.3-1.3-0.5-2.8-0.7-4.3c0.8,0.1,1.7,0.3,2.5,0.4c-0.8-0.2-1.6-0.4-2.5-0.5
			c-0.1-0.9-0.2-1.7-0.3-2.6c5-0.1,9.9-0.3,9.6-0.3c-0.2,0-4.9,0-9.6,0c-0.2-2.1-0.5-4.1-1.1-5.7c-1.2-3.5-4.4-11.1-5-12.7
			c-0.6-1.5-1.7-3.5-1.7-3.5s0.7-4.5,0.7-6.5c0-2.1-0.1-3.7-0.4-4c-0.3-0.3-0.7-0.6-1.1-0.6c-0.3,0-0.3-0.3-0.7,0.2
			c-0.4,0.5-1.2,3.1-1.2,3.1l-0.5-0.3c0,0,1.5-2.8,1.2-3.8c-0.2-1-0.5-1.3-0.9-1.3c-0.4,0-1,0.2-1,0.5c0,0.2-0.5,3.4-0.5,3.9
			l0.2-3.9c0,0-0.4-1.2-1.2-1c-0.7,0.2-1.3,2.6-1.3,3c-0.1-0.2-0.6-1.3-0.6-3.2c-0.1-2.2-0.3-2.1-0.1-3c0.2-0.8,0.4-1.8-0.2-1.9
			c-0.6-0.1-1-0.1-1.4,0.8c-0.4,0.9-0.2,6.6-0.4,7.1c-0.3,0.5-0.6,0.4-0.8,0.5c-0.2,0.2-0.4,0.7-0.3,1.1c0.1,0.5,1,1.9,0.7,3.9
			c-0.2,2-0.1,1.9,0.3,3c0.4,1,0.2,1.2,1.1,2.2c0.9,1,1.8,1.4,1.8,1.4s2.7,6.8,2.6,6.9c-0.1,0.1,0.6,1.9,0.6,1.9s1.6,5.8,1.7,6.5
			c0.1,0.5,1.2,3.1,1.8,5.2c-0.8,0-1.4-0.1-1.5-0.1c-0.9-0.3-10.5-3-12.4-4c-1.9-1-5.3-3.5-5.3-3.5c-0.8-0.7-4.3-1.2-6.6-0.8
			c-2.4,0.4-4.5,2.5-6.8,6.1c-2.3,3.6-1.7,5.6-2.5,8.1c-0.8,2.6,2.2,10.3,0.8,14.2c-1.6,4.7-3.5,7.8-4.6,9.7
			c-0.3,0.1-0.6,0.2-0.8,0.3c-3.5,1.2-6.7,2.3-6.7,2.3s-0.9,0.2-0.9-0.4c0-0.6,0-2.4,0.2-3.7c0.1-0.5,0.4-2,0.9-3.7
			c0.6-2.4,1.3-5.1,1.6-5.8c0.5-1.2,1.7-6.2,2.6-7.1c0.9-0.9,1.8-2.4,1.9-3.5c0-1.1-0.1-2.5-0.5-2.9c-0.5-0.4-0.8-0.1-1-0.1
			c-0.2,0.1-0.5,0.4-0.7,1.1c-0.2,0.7,0.3,1-0.1,1.5c-0.4,0.4-0.8,0.5-1,0.3s-0.3-0.7-0.4-1.2c-0.1-0.6-1-0.5-0.8-1.5
			c0.2-1,0.4-2,0.5-2.4c0.1-0.4,0.7-0.6,0.4-0.9c-0.3-0.3-0.8-3-1.8-3c-0.5,0-0.8,0.2-0.8,0.5c-0.1,0.5,0,0.6-0.1,1.1
			c-0.1,0.5-0.2,0.7-1,0.8c-0.8,0-0.6-0.5-1.4,0c0,0,0,0,0,0c-0.8,0.5-1.1,1-1.3,1.5c-0.2,0.5-0.5,0.7-0.9,2c0,0-0.1,1.7,0.6,3
			c0.5,0.9,1.1,1.8,1.2,2.7c0,0.3,0,0.6-0.1,1c-0.1,0.2-0.2,0.5-0.3,0.8c0,0.1-0.1,0.2-0.1,0.2c-0.1,0.3-0.2,0.6-0.4,0.9
			c0,0,0,0,0,0c-0.2,0.4-0.4,0.8-0.6,1.3c-0.9,1.8-1.9,4-2.4,5.4c-0.3,0.8-0.8,2-1.4,3.4c-1.2,2.8-2.7,6.1-3.1,7.3
			c-0.6,1.8-0.9,3.1-1.2,4.3c-0.2,1.2-0.7,2.2,0.6,3.3c1,0.8,4.6,2.2,6.9,3c0.8,0.3,1.5,0.5,1.7,0.6c1,0.2,4.8,2.3,8.5,1.2
			c3.7-1.1,4.2-1,5.7-0.1c1.5,0.9,6.1,3.2,7,5.4c0.8,2.2,3.3,6.3,4.3,8c1.1,1.7,3.2,6,3.7,7.3c0.2,0.5,0.5,1.2,0.9,2.1
			c0.7-0.1,1.7,3.5,2.1,4c0.3,0.4,0.7,0.7,1.1,1h35.7C283.5,110.5,282.8,103.9,282.7,103.7z M229,72c-0.9,0.3-1.8,0.6-2.8,0.9
			c2.7-4.1,7.1-13.3,6.8-11.8C232.8,62.3,230.5,68.1,229,72z M234.5,66.9c-0.8,1.3-1.3,2.6-1.7,3.8c-0.4,0.1-1,0.3-1.6,0.6
			c0.2-0.3,0.5-0.7,0.8-1c1.4-1.9,4.8-7.7,6.3-10.4l0.2,0.4C237.6,61.9,236,64.3,234.5,66.9z M261.9,43.8c0.5,0.1,1.5,0.2,2.8,0.2
			c0,0.2,0.1,0.4,0.1,0.6C262.4,44,261,43.6,261.9,43.8z M260.8,44.5c0.4,0.1,0.9,0.2,1.7,0.4c0.4,0.1,0.7,0.2,1.2,0.2
			c0.4,0.1,0.8,0.2,1.3,0.2c0,0.2,0,0.4,0,0.6c-0.2,0.8-0.4,1.5-0.6,2.2c-0.3,0.9-0.6,1.7-0.7,2.5c-0.5-0.2-0.9-0.4-1.2-0.5
			c-1.1-0.4-2.2-1.5-3.2-2.7c-1.3-1.6-2.2-3.4-2.2-3.4C257.1,44.2,257.7,43.6,260.8,44.5z M259.6,48.8c0.4,0.4,2,1.2,3.9,2.2
			c0,0.5,0,1.2-0.1,2C261.5,50.9,259.8,49.1,259.6,48.8z M260.3,61.1c-0.3,0.2-0.6,0.4-0.8,0.6c0.1-0.2,0.3-0.5,0.4-0.8
			c0.9-1.8-2.8-7-2.1-7.3c0.2-0.1,1.4,0.6,3,1.6c0.7,0.4,1.5,0.9,2.2,1.4c-0.1,0.3-0.2,0.5-0.3,0.7c0,0-0.1,0.1-0.1,0.2
			C261.8,58.6,262.2,59.6,260.3,61.1z"/>
		<path class="st1" d="M244.8,65.1c-2.5,0.4-4.3,0.7-4.3,0.7C241.5,65.7,243.1,65.4,244.8,65.1z"/>
	</g>
	<polygon class="st0" points="339.6,35.2 339.6,35.4 339.5,35.6 339,36 337.3,37.3 336.8,37.9 336.5,38.4 336,39.8 335.8,40.3 
		335.6,40.7 334.6,42.3 333.9,44.3 333.4,46 333.3,46.6 334.5,47.3 334.9,47.6 335.1,47.8 335,48 334.6,48.6 333.7,50.3 332.5,52.6 
		332.2,53.6 332.1,54.3 331.8,55.1 331.2,56.4 330.5,58 329.3,60.6 329,61.3 328.2,63.3 327.5,64.5 326.5,65.9 325.8,66.9 
		325.7,67.3 325.3,68.6 324.9,70.7 324.5,71.9 324.1,72.8 322.7,75 322,76.5 322,77.6 322.1,78.4 322.6,80.4 323.2,82.9 323.3,84.4 
		323.4,85.4 323.5,85.7 323.5,85.9 323.4,86.6 323.5,88.2 323.4,90.1 323.1,94.6 323.8,97 324.3,99.2 325,102.8 325.3,104.4 
		326.1,106.3 326.3,107.1 326.7,108.7 327.2,114 297.3,114 296.9,108.8 295.3,103.1 295,101.6 294.9,99.9 294.8,98.6 294.6,97.8 
		294.3,97.3 294.2,97.1 291.7,94.6 290.4,93.2 289.7,92.5 289.2,91.9 288.8,91.2 288.5,90.7 287.5,89.5 287,88.7 286.3,87.6 
		285.6,86.3 284.4,83.7 283.3,81.6 282.7,80.6 282.1,79.9 280,77.3 278.7,76 277.9,75 277.6,74.6 277.6,74.4 277.4,74 277.3,73.9 
		276.6,73.8 276.2,73.7 275.7,73.5 275.1,73 273.8,72 273.2,71.4 271.9,70.3 271.6,70.2 271.2,70.1 271.1,70 270.9,69.9 270.8,69.6 
		270.2,68.8 269.9,68.6 269.2,67.8 268.5,67.3 268,66.8 267.7,66.4 267.7,66 267.6,65.8 267.5,65.7 267.1,65.6 267,65.5 267,65.3 
		266.9,65.1 266.4,64.6 264.4,62.7 264.1,62.4 264,61.9 264.1,61.5 264.2,60.8 264.4,60.4 264.9,59.8 264.3,59.1 263.7,58.4 
		262.5,57.5 262.5,57.5 262,57 260.9,55.5 260.7,55.2 260.3,54.6 259.7,53.3 259.5,52.9 258.6,52.2 258,51.5 257.7,51.1 257.6,50.6 
		257.7,50.4 257.9,50.3 258,50.2 258.2,50.3 258.4,50.4 258.8,50.8 260.1,51.8 260.1,51.9 260.2,51.9 260.3,51.7 260.4,51.5 
		260.4,51.1 260.1,50.3 259.2,47.8 259.2,47.6 259.1,47.2 259.2,47 259.3,46.8 259.7,46.7 259.3,45.8 259.2,45.6 259.3,45.3 
		259.4,45.1 259.7,44.9 259.9,44.9 260.2,45 260.3,45.1 261.4,46.9 261.7,47.4 262,47.9 262.3,48.6 262.4,48.8 262.5,48.8 
		262.6,48.4 262.6,47.9 262.6,46.6 262.4,45.3 262.4,45 262.4,44.9 262.5,44.7 262.7,44.6 262.9,44.5 263.2,44.5 263.4,44.7 
		263.5,45.1 263.6,45.2 264.1,47.7 264.2,48.3 264.6,50 265.4,50.8 265.5,50.9 265.6,50.8 265.8,50.8 266,50.5 266.1,50.2 
		266.7,48.3 267,47.8 267.3,47.5 267.7,47.2 268,47.2 268.3,47.2 268.5,47.3 268.5,47.5 268.4,47.7 268.1,48.3 268,48.8 267.9,49.8 
		267.6,51 267.5,52.5 267,53.6 266.8,54.8 266.8,55.2 267.2,55.9 267.8,56.7 268,56.9 268.5,57.1 269.1,57.9 270.5,59.2 271.7,60.6 
		271.7,60.7 272.3,60.7 273.2,61.1 273.2,61.1 273.9,61.4 275.9,62.8 277.9,64 281,66.2 282.2,67.1 283.8,68.7 284.5,69.7 
		285.6,71.1 285.8,71.4 286.9,71.8 287.4,72.1 287.8,72.4 288.1,72.9 288.3,73.4 288.5,74.2 289.3,74.8 289.5,75 289.7,75.2 
		290.6,75.4 291.1,75.7 291.5,76 291.6,76 292,75.7 292.4,75.6 293.5,75.5 293.5,75.4 296,75.2 296.7,75.4 297.7,75.5 297.9,75.6 
		298,75.6 298.4,75.6 298.4,75.5 298.3,75.1 298,74.8 297.3,74.9 296.9,74.8 296.4,74.5 296.1,74.1 295.7,73.5 295.3,72.7 
		295.1,72.4 295,72 294.9,71.6 294.9,71.3 294.9,71.1 295.1,70.8 295,70.6 294.8,70.3 294.8,70.1 294.5,69.1 294.2,68.6 294.1,68.3 
		294,67.9 294,67.7 293.6,67 293.6,66.7 293.6,66.2 293.7,65 293.7,64.7 293.7,64.4 293.8,64.2 294,63.7 294.4,63.3 294.6,62.9 
		295.2,62.3 295.4,62 295.5,61.8 296.1,61 297.1,60.5 297.5,60.4 297.9,60.3 298.4,60.2 298.5,60.1 298.6,60.2 298.8,60.1 
		298.9,59.9 299,59.8 299.2,59.7 299.4,59.6 299.6,59.6 299.7,59.5 300.5,59.3 300.6,59.3 300.9,59.3 301,59.3 301.4,59.3 
		301.6,59.3 301.8,59.2 301.8,59.2 301.8,59.3 301.8,59.4 301.9,59.4 302.2,59.3 302.6,59.2 302.9,59.4 303.1,59.4 303.3,59.5 
		304,59.6 304.4,59.6 305.1,59.8 305.5,60.1 305.9,60.4 306.1,60.6 306.2,60.7 306.9,61.3 307.5,61.8 307.6,62.1 307.7,62.3 
		307.8,62.7 308,63.1 308.2,63.9 308.2,64.3 308.2,64.5 308.3,65.3 308.3,65.4 308.5,66.1 308.6,66.6 308.7,66.9 308.8,67.4 
		309,68.7 309.2,70.7 309.2,71 309.2,71.1 309.2,71.4 309,71.6 308.6,71.8 308.3,71.8 308.2,71.9 308.2,72.7 308.2,73.6 308.1,74.2 
		308.1,74.5 308.2,74.6 308.8,74.5 308.9,74.5 310,74.2 310.2,74.2 310.5,74.2 310.6,74.2 310.8,74.2 310.9,74.2 311.7,74.2 
		311.8,74.2 312,74.2 312.3,74.2 312.6,74.1 312.7,73.6 312.8,73 313,72.6 313.3,72.4 315.4,67.5 315.3,67.2 315.5,66.8 315.8,65.3 
		316,63.8 318.7,58.1 321.4,54.6 322.4,53 323,52.4 324.4,51.4 324.5,51.3 325.2,50.9 326.5,50.3 326.7,50.2 326.9,49.8 327.2,49.3 
		327.9,47.7 328.4,46.4 328.8,45.4 329,45.1 329.1,45 329.1,45 329.2,45 329.4,44.3 330,42.1 330,41.7 329.9,41 329.7,40.6 
		328,38.8 327.5,38 326.5,36.7 326.3,36.3 325.9,35.8 325.2,35.2 325.1,35 325.1,34.9 325.4,34.7 325.7,34.6 326,34.6 326.4,34.7 
		326.7,34.9 327.7,35.8 328.6,36.6 329,36.9 329.2,37 329.5,36.9 329.8,36.8 330.2,36.3 330.4,35.9 330.4,35.3 330.1,33.8 
		330.1,33.8 330.1,33.5 330,32.2 330,31.8 330.1,31.5 330.4,31.4 330.7,31.4 331,31.5 331.1,31.7 331.2,32.1 331.4,33.2 332,34.6 
		332.2,34.7 332.5,34.7 332.6,34.6 332.8,33.5 333.2,32.5 333.7,30.9 333.8,30.7 334.1,30.4 334.3,30.4 334.7,30.5 334.9,30.6 
		335,30.8 335,31 334.8,31.6 334.4,33 334,34.7 334,34.9 334.3,35.1 334.3,35.1 334.4,35.1 334.5,34.7 334.8,34.2 335.3,33 
		335.5,32.2 335.6,32 335.8,31.8 336.1,31.8 336.4,31.9 336.6,32.1 336.7,32.3 336.6,32.8 336.2,34.1 335.6,35.6 335.5,36 
		335.9,36.3 336.1,36.4 336.4,36.3 337,36.1 337.8,35.6 338.4,35.2 338.8,34.9 339.2,34.8 339.4,35 	"/>
	<path class="st1" d="M507.2,17.6l-0.4,1.2c0,0-0.2,0.7-0.7,1c-0.4,0.4-0.4,0.6-0.7,1.1s-0.4,0.6-0.7,0.9c-0.3,0.3-0.6,0.8-0.7,1
		c-0.1,0.2,0,0.8-0.3,0.9c-0.3,0.2-0.6,0.7-0.6,1.4c-0.1,0.7-0.5,1.8-0.5,2.2s-0.6,1.4-0.6,1.7s-0.2,0.8-0.2,1s0.2,0.9,0.2,0.9
		s-0.1,1-0.2,1.2c-0.1,0.2-0.4,0.7-0.4,0.7l-0.2,0.5c0,0,1.3,9.7,1.1,11.3c0,0,0.4,2,0.3,3.3c-0.1,1.3-0.5,3.7-0.3,4.5
		c0.2,0.7,0.2,2.7,0,3.6s-0.6,4-0.6,4.3c0,0.3-0.4,0.8-0.3,1.6s0,1.5-0.1,1.7c-0.1,0.2,0.2,0.6,0.2,0.6s1.9,0.7,1.7,2.2
		s-0.8,2.4-0.5,2.9c0.3,0.5,0.7,2.5,0.4,3.1c-0.3,0.6-0.1,1.2,0.2,1.8c0.3,0.6,0.1,1.4-0.3,2.5c-0.4,1.1-0.9,1.7-0.9,2.3
		c0,0.7-0.4,1.4-0.4,2.4c0.1,1,0.1,2.5,0.1,3.1c0,0.3-0.1,1.4-0.2,2.5c-0.1,0.5,0,3.7,0,7.5c0,2.2-3.5,5.8-3.5,8
		c0,2.5,1.7,7.8,3,11.5H448c1.3-3.2,2.7-7.7,2.6-10.9c0-1.9-2.3-7-2.4-8.6c-0.1-2.2-0.1-3.9-0.1-4.1c-0.1-1.2-0.1-2.9,0.1-3.5
		c0.4-0.9-4-3-3.4-5c0.6-1.9,0.9-2.5,1.1-2.8c0.1-0.3-1-0.7-1.5-2c-0.4-1.3-0.4-4.8,0-4.6c0.4,0.1-0.9-2.4-0.3-2.4s1.8-2.1,1.8-2.1
		s-0.8-7.4,0-8.2c0,0,0.9-2.7,0.1-3.9c0,0,1.2-10,1.8-11.2c0.6-1.2,1.4-6.9,1.4-7.3c0-0.5-0.2-2.2-0.2-2.2s-1.4-9.7,0.1-11.8
		c0,0,1.5-0.8,1.6,0.8c0,0,0.7-1.7,1.6-1c0,0,1.2-2,2-0.7c0,0,0.1,1.7,0.4,1.9c0.3,0.1,0.5-2.3,0.5-2.3l-0.2-3.2c0,0-0.3-2.2,0.3-2
		c0,0,1-0.6,1.3,0.7l0.3,3.3c0,0,0,1.6,0,1.8c-0.1,0.2,0.1,1.5,0,1.6c-0.1,0.2,1.1,1.3,1.6,1.7c0.5,0.4,0.9,0.9,0.9,1.4
		c0,0.6,0,2.3,0,2.3s0,1-0.2,1.4c-0.1,0.4-1.4,2-1.9,2.1c-0.4,0.1-1.5,1.6-1.5,1.6s-0.9,0.7-0.8,1.3c0,0.6-0.1,1.6-0.1,1.6
		s-0.4,0.5-0.5,1c-0.1,0.5-0.4,3-0.4,3s-0.2,3.3-0.2,3.7c0,0.5-0.2,3.6-0.2,4.8c0,1.2,0.2,4.8,0,6.1c-0.3,1.3-0.7,8.3-0.6,9.9
		c0.1,1.6,2.3,2.4,2.6,3.2c0.3,0.8,0,2.1-0.2,2.4c-0.3,0.4-0.6,1.1-0.3,1.6c0.3,0.5,0.6,0.7,0.9,1.3c0.3,0.5,0.4,0.9,0.4,1.8
		c0,0.8,0,1,0.3,1.4c0.3,0.4,0.5,0.3,0.5,1.2c0,0.8,1.2,2,1.2,2.7c0,0.8,0.5,1.2,0.4,1.6c-0.1,0.5,0.6,1,0.6,1.4
		c0,0.5,0.7,1.2,0.7,1.9c0,0.7-0.3,0.7,0,1c0.3,0.3,3.4,0.8,4.2-1.1c0.8-1.9,0.3-2.4,0.3-2.4s-2.1-0.8-2.6-2.4
		c-0.5-1.6-0.3-2.3-0.3-2.3s0-0.8,0.6-0.1c0,0-3.5-16.4,7.2-15.3c0,0,6.4-2.9,9.6,5.3c0,0,2,3.6,2,5.3c0,1.7,0,3.1,0,3.1
		s0.7-0.9,0.8-0.3c0.2,0.7,0,2.2,0,2.2s-0.5,2-1.1,2.3c-0.6,0.3-0.5,2-0.5,2s0.3,0.3,0.6,0.9c0.3,0.6,3.4,1.6,4,1.6
		c0.6,0,2.5-0.6,2.5-0.6s3.1-0.4,3.1-1.5c0,0,0.6-3.3,0-4.1s-1.3-2.2,0-2.2c1.4,0,0.5-1.7,1.6-2.5c0,0-1.9-2.3-0.4-3.6
		c0.2-0.1,0.3-0.2,0.4-0.3l0,0c0.1-0.1,0.4-0.5,0.4-0.8c0.1-0.4-1.6-2.5-0.7-2.8s1.6-1.5,1.2-2.8c-0.4-1.3,0.8-1,1.2-0.8
		s0.6-0.8,0.6-0.8h0.5c0,0-0.5-6.3-0.5-9.4c0-3,1.5-7.7,1.2-11.2c-0.2-3.5-0.6-9-0.3-9s-1.2-1.2-0.7-2.1c0.6-0.9,0.6-1,0.6-1
		s-3.7-4.8-3.8-5.9s0.8-1.5,0.6-2.4s-0.4-3.9-0.7-4.1c-0.3-0.2,1.6-1.4,2,2.2c0.3,3.6,0.1,2.6,0.4,2.6c0.2,0,0.9-1.3,1.5-1.8
		c0.6-0.5,0.5-2.3,0.6-2.7c0.1-0.4,0-3.8,0-4.3c0-0.5,0-3.7,0.8-3.6c0.8,0.1,1,0.5,1,0.7c0,0.2-0.3,2.6-0.3,3c0,0.4,0.4,1.3,0.2,1.5
		c-0.2,0.2-0.3,1.8-0.3,1.8l0.3,0.7c0,0,0.4,0.3,0.8,0.3s0.5-1.3,0.5-1.3l0.8-2.2l0.6-2.2l1-2c0,0,0.3-0.9,0.9-0.6
		c0.5,0.2,1.2,0.4,0.9,1.4l-1,2c0,0-0.3,1.4-0.4,1.6s-0.4,1.2-0.4,1.2l-0.6,1.3l-0.1,0.9c0,0-0.2,0.5,0.1,0.5c0.4,0,2.7-5.4,2.9-6.7
		c0,0,1.6-0.2,1.4,0.9s-0.6,1.7-0.6,1.7l-0.4,1.4c0,0-0.8,1.4-0.8,1.6c0,0.2-0.4,0.9-0.4,1.1c-0.1,0.2-0.2,0.8-0.2,0.8
		s0.2,0.8,0.9-0.2c0.7-1,1.6-2.3,1.6-2.3s0.9-1.2,1.2-1.1C506.8,17,507.2,17.6,507.2,17.6z"/>
	<path class="st1" d="M444.4,17.5c-0.4,0.8-1,4-0.7,5.2c0.3,1.2-0.5,4.3-0.2,5c0.3,0.6-1,5.8-1,5.8c2,0.6,0.7,4.5,0.7,4.5
		c1.2,1.6-0.3,4.9-0.5,5.6c-0.3,0.7-1.6,4.5-0.2,5.3c1.3,0.8-0.3,4.2-0.5,4.7c-0.2,0.5-1.5,4-1.1,4.5c0.4,0.5-0.5,2.8-1.1,4.9
		c-0.6,2.1-2.8,4.9-3.2,6c-0.4,1.1-2.6,7.4-2,7.4c0.6,0,0,5.5,0.7,7.1c0.7,1.6,0.7,6.5,0.7,6.5c2,5.7,0.2,4.8,0.5,9.1
		c0.2,3.4-3.2,11.7-4.6,14.9H394c-0.1-3-0.3-6.4-0.3-6.5c-0.2,0-0.3-5.9-0.3-6.4c0-0.5,0.6-2.4,0.5-2.8c-0.1-0.4,0.2-1.6,0.5-2.6
		c0.3-0.9,0.3-1.5,0.3-2c0-0.5,0.1-1.3,0.2-1.9c0.1-0.5,1.1-3.5,1.1-3.5s1.2-5.4,2.3-7.8c1-2.5,7.3-6,7.6-6.6s3.7-2.5,3.7-2.5
		l0.2-0.7c-0.4-0.4-1.6-5-1.6-5c-1.9,0.4-1.4-5.1-1.4-5.1l-0.3-1.4c-0.5-1,0.6-3,0.6-3l0.6-2.1c0,0,0-0.2,0.5-2.7
		c0.5-2.5,4.3-3.6,4.3-3.6c1.1-1.2,5.3-0.1,5.3-0.1s4.1,2.2,5.3,4c1.3,1.8,1.6,8,1.6,8s0.3,0.5,0.4,0.5c0.1,0,0.5,1.1,0.5,1.1
		l-0.4,1.4c0,0-0.1,1.2,0.3,1.1c0.3-0.1,0.8-0.9,0.8-1.5c0-0.7,0.5-3,0.5-3s1.3-1.8,1-2.9c-0.3-1.1,1.4-3.5,1.4-3.5s0.9-3.3,0.4-4
		c-0.5-0.7,1.4-4.8,1.5-5.8c0.1-1.1,2.7-9.5,2.7-9.6c0-0.1,1.8-5.5,1.8-5.5l1.6-5.9c0,0,0.8-4,0.9-4.5c0.2-0.5-0.3-2.1-0.9-2.3
		c-0.6-0.3-2.9-2.9-2.8-3.2c0.1-0.3,0-1.6-0.2-1.6c-0.2,0-0.8-1.7-0.7-1.8c0.1,0,0.2-1.2,0.2-1.2L433,6.9l-0.3-1.5l0.3-1.3
		c0,0,0-0.6-0.1-1.6c-0.1-0.9,0.2-1.7,0.2-1.7c0.9-0.6,1.2,0.5,1.2,0.5c0.2,0.1,0.4,2.1,0.3,2.5c-0.1,0.4,0.4,1.5,0.4,1.5l0.3-1
		c0,0,0.4-2,0.5-3c0-1,0.5-1.6,1.1-1.4c0.6,0.1,0.5,1.4,0.4,1.8c-0.1,0.4-0.2,2.4-0.2,2.4c-0.5,1.5,0.9,2.5,0.7,2.1
		c-0.2-0.3,0.1-1.2,0.1-1.2l0.8-2.3c0,0,0.8-2.1,1.5-1.9c0.8,0.3-0.2,2.1-0.2,2.1l-0.7,2.5c0,0,0.2,0.4,0.4,1.7
		c0.1,1.3,1.3,1.2,1.3,1.2l0.3-1.5l0.6-1.9c0,0,0-0.9,1.1-1.2c1.1-0.3-0.2,2.3-0.2,2.3s0,0.7-0.3,1.7c-0.3,1,0.6,2.3,0.6,2.3
		c1.1,1.2,1,3.9,1.4,4.1C444.9,14.4,444.8,16.7,444.4,17.5z"/>
	<polygon class="st0" points="423.4,22.8 423.3,23.5 423,24.1 422.1,25.2 421,26.4 420.8,26.9 420,28.9 419.3,30.3 417.8,32.6 
		417.1,33.3 415.5,34.8 414.6,35.9 413.9,36.9 414.6,37.7 415,38.3 415.3,39.3 415.3,39.9 415.2,40.6 415,41.1 412.2,44.1 
		411.5,44.8 411.4,45.1 411.4,45.4 411.3,45.5 410.8,45.7 410.6,45.9 410.5,46.1 410.5,46.9 410.1,47.5 409.4,48.2 408.5,49 
		407.5,50.2 407.1,50.6 406.4,51.7 406.2,52.2 405.8,52.5 405.3,52.7 404.8,52.9 403.1,54.6 402.3,55.6 400.5,57.2 399.7,57.9 
		399,58.3 398.4,58.5 397.4,58.7 397.2,58.9 397.1,59.4 397,59.8 396.7,60.4 395.6,61.8 393.9,64 391.1,67.9 390.3,69 389.5,70.5 
		388.2,73.6 386.7,77.5 385.9,79.4 385,81.3 384.3,82.4 383,84.3 382.6,85 382,86.1 381.4,87 380.5,88.1 378.8,90.3 375.5,94.1 
		375.2,94.5 374.8,95.1 374.7,96.4 374.7,98.2 374.7,100.8 374.4,103 372.8,111.4 372.3,114 329.6,114 329.9,112 330.2,110.9 
		331,108 331.3,105.7 332,100.4 332.5,97.1 333.2,93.7 332.3,87.1 332,84.3 331.9,82 331.7,81 331.7,80.8 331.8,80.4 331.8,78.9 
		331.9,76.6 332.4,73 332.9,70.1 333,68.8 333,67.3 331.7,65.2 329.4,62.1 329,61.3 328.8,60.9 328.1,59.2 327.3,56.1 326.6,54.3 
		326.3,53.7 325.2,52.4 324.4,51.4 323.6,50.5 322.6,48.8 320.7,45 318.5,41.4 317.4,39.2 316.5,37.4 315.9,36.2 315.6,35.2 
		315.1,33.8 313.2,30.5 311.6,28.2 311,27.4 310.9,27.1 311,26.8 311.7,26.2 313.3,25.1 313.1,24.3 312.2,21.8 310.9,19.1 
		309.4,16.9 308.6,15.5 307.7,13.6 307.2,12.8 306.5,12.1 303.9,10.3 303.2,9.8 303,9.5 303,9.3 303.2,9 303.5,8.7 304,8.7 
		304.7,9.2 305.5,9.7 306.9,10.3 307.8,10.6 308.2,10.6 308.4,10.5 308.9,9.9 308.7,9.4 307.7,7.3 307,5.4 306.8,4.8 306.9,4.4 
		307.2,4.1 307.6,3.9 308.1,4 308.3,4.2 308.5,4.6 309,5.7 309.7,7.3 310.2,8.1 310.5,8.6 310.5,8.6 310.6,8.5 311,8.2 311,8 
		310.3,5.6 309.5,3.5 309.2,2.7 309.2,2.4 309.3,2.1 309.6,1.9 310.1,1.8 310.4,1.8 310.8,2.1 311.1,2.5 312,4.6 312.7,6.2 
		313.1,7.7 313.1,7.8 313.7,7.7 314,7.6 314.6,5.5 314.8,4 314.9,3.3 315.1,3 315.4,2.8 315.8,2.8 316.3,3 316.5,3.3 316.6,3.9 
		316.5,5.7 316.5,6.2 316.3,8.4 316.3,9.3 316.7,9.9 317.2,10.5 317.8,10.7 318.2,10.7 318.5,10.7 319.1,10.2 320.3,8.8 321.6,7.4 
		322.1,7.1 322.6,6.9 323,6.9 323.5,7 323.9,7.3 323.9,7.5 323.9,7.7 322.9,8.7 322.4,9.5 322.2,10 320.8,12 320.2,13.2 317.9,16 
		317.6,16.7 317.5,17.6 317.7,18.2 318.8,21.4 319.1,22.3 319.2,22.4 319.2,22.4 319.4,22.4 319.7,22.9 320.4,24.3 321.3,26.1 
		322.4,28.4 323,29 323.3,29.6 323.5,29.8 325.5,30.5 326.6,31 328.9,32.4 329.7,33.3 330.1,33.8 330.1,33.8 331.5,35.4 335.7,40.2 
		335.8,40.3 340.3,48.2 340.7,50.3 341.3,52.5 341.5,53.1 341.5,53.5 345.1,60.4 345.5,60.7 345.8,61.2 346.1,62 346.3,62.8 
		346.7,62.9 347.7,62.9 348.7,62.8 348.9,62.7 349.1,62.7 349.4,62.7 349.8,62.7 350,62.7 351.7,62.9 351.9,63 352.7,63.1 
		352.8,62.9 352.8,62.5 352.6,61.6 352.4,60.2 352.3,59.1 352.2,59 351.8,59 351.2,58.8 351,58.5 350.9,58.1 350.9,57.9 350.8,57.4 
		350.9,54.5 351.1,52.6 351.2,51.9 351.2,51.5 351.4,50.8 351.5,49.8 351.6,49.6 351.7,48.4 351.6,48.1 351.6,47.5 351.7,46.3 
		351.9,45.7 352.1,45.2 352.3,44.9 352.4,44.4 353.1,43.6 354.1,42.7 354.3,42.5 354.5,42.2 355.1,41.7 355.7,41.3 356.5,40.9 
		357.2,40.8 358.2,40.7 358.5,40.5 358.7,40.4 359.2,40.2 359.8,40.2 360.2,40.3 360.4,40.3 360.3,40.2 360.3,40 360.3,40 
		360.7,40.2 360.7,40.2 360.9,40.2 361.4,40.1 361.7,40 362,40 362.2,40 363.3,40.2 363.5,40.3 363.8,40.4 364.1,40.4 364.4,40.7 
		364.6,40.8 364.8,41 365.1,41.1 365.2,41 365.4,41.1 366.1,41.1 366.6,41.3 367.2,41.4 368.7,42.1 369.7,43.1 369.9,43.4 
		370.3,43.8 371.2,44.7 371.5,45.1 372,45.7 372.5,46.4 372.6,46.7 372.6,47.1 372.7,47.6 372.9,49.3 373,50 373,50.4 372.6,51.4 
		372.5,51.7 372.4,52.4 372.3,52.8 371.9,53.6 371.7,55.1 371.6,55.4 371.4,55.8 371.3,56.2 371.6,56.5 371.7,56.9 371.6,57.2 
		371.5,57.8 371.4,58.4 371.2,58.9 370.7,60 370.2,61.1 369.7,61.6 369,62.1 368.5,62.3 367.5,62.3 367.1,62.7 366.9,63.3 367,63.4 
		367.3,63.4 367.5,63.3 367.7,63.3 368.1,63.3 369.4,63 370.4,62.6 374.1,62.6 374.1,62.8 375.8,62.8 376.3,62.9 376.9,63.3 
		377.1,63.3 377.6,62.8 378.3,62.3 379.6,61.9 379.8,61.6 380.1,61.2 381.3,60.3 381.4,59.2 381.6,58.4 382.1,57.6 382.5,57.2 
		383.3,56.7 384.8,55.9 385.1,55.5 386.5,53.4 387.5,51.8 389.6,49.4 391.2,47.9 395.5,44.5 398.2,42.5 401,40.3 402,39.7 
		403.2,39.1 404,39 404.2,38.8 405.7,36.6 407.5,34.6 408.4,33.4 409,33.1 409.3,32.8 410.1,31.6 410.7,30.5 410.6,29.9 410.1,28.2 
		409.3,26.6 409,24.5 408.5,22.7 408.2,21.4 408,20.6 407.5,19.8 407.4,19.4 407.4,19.3 407.5,19.1 408,19 408.4,19 409.1,19.3 
		409.6,19.7 410,20.4 411.1,23.1 411.3,23.5 411.6,23.9 411.8,24 412,24 412.1,24 413.3,22.8 413.7,19.2 414.2,15.5 414.5,14.9 
		414.7,14.6 415.1,14.6 415.4,14.6 415.8,14.8 415.9,15.1 416,15.7 415.8,17.6 415.9,19.4 416,20.1 416.2,20.7 416.3,20.7 
		416.4,20.4 416.8,19.4 417.1,18.6 417.5,17.8 418.9,15.2 419.1,14.9 419.5,14.8 419.9,14.8 420.2,15 420.5,15.3 420.5,15.7 
		420.5,16 419.9,17.3 420.5,17.5 420.8,17.8 420.9,18.1 420.8,18.9 419.8,22.7 419.4,23.8 419.5,24.3 419.6,24.7 419.9,24.9 
		420,24.9 420,24.9 421.8,23.2 422.2,22.7 422.5,22.4 422.9,22.3 423,22.3 423.3,22.5 	"/>
	<polygon class="st0" points="87.8,39.1 87.8,39.3 87.7,39.5 87.2,39.9 85.2,41.2 84.7,41.7 84.3,42.2 83.7,43.6 83.2,44.6 82,46.2 
		81.1,48.2 80.5,50 80.3,50.6 81.5,51.4 82,51.8 82.1,52 82,52.3 81.5,52.8 80.4,54.5 79,56.9 78.6,57.9 78.4,58.7 78,59.5 
		77.3,60.8 76.5,62.4 75,65 73.6,67.8 72.8,69 71.7,70.4 70.9,71.4 70.6,71.8 70.2,73.1 69.6,75.3 69,76.6 68.6,77.5 67,79.7 
		66,81.2 66,82.4 66.1,83.2 66.5,85.3 66.8,88 66.9,89.6 66.9,90.7 67,91 67,91.2 66.8,91.9 66.8,93.6 66.5,95.6 65.8,100.4 
		66.3,102.9 66.7,105.2 67.2,109.1 67.4,110.8 68.1,112.9 68.3,113.7 68.3,114 37.2,114 37.1,113.3 35.9,107.1 35.8,105.5 
		35.7,103.7 35.7,102.4 35.6,101.4 35.3,101 35.2,100.7 32.8,97.9 31.5,96.3 30.8,95.5 30.4,94.9 30,94.1 29.7,93.6 28.7,92.2 
		28.2,91.4 27.6,90 27,88.6 25.9,85.8 24.9,83.6 24.4,82.5 23.8,81.7 21.8,78.8 20.6,77.3 19.8,76.2 19.5,75.8 19.5,75.5 19.4,75.1 
		19.2,75 18.5,74.8 18.1,74.7 17.6,74.4 17,73.9 15.7,72.7 15.1,72 13.8,70.8 13.5,70.7 13.1,70.5 12.9,70.2 12.7,69.9 12.2,69.1 
		11.9,68.8 11.2,67.9 10.5,67.4 10,66.8 9.8,66.4 9.8,65.9 9.7,65.7 9.5,65.6 9.2,65.4 9.1,65.3 9.1,65.1 9,64.9 8.5,64.4 6.5,62.2 
		6.3,61.8 6.2,61.4 6.3,60.9 6.5,60.2 6.7,59.8 7.3,59.2 6.8,58.4 6.1,57.6 4.9,56.6 4.5,56 3.4,54.3 2.9,53.4 2.3,51.9 2.1,51.5 
		1.3,50.6 0.7,49.8 0.4,49.4 0.3,49 0.4,48.7 0.6,48.6 0.7,48.6 1,48.6 1.2,48.8 1.5,49.2 2.8,50.4 2.8,50.5 2.9,50.5 3.1,50.3 
		3.2,50 3.3,49.7 3,48.8 2.2,46.1 2.2,45.5 2.2,45.3 2.4,45.1 2.9,44.9 2.5,44 2.4,43.8 2.5,43.5 2.7,43.3 2.9,43.1 3.2,43.1 
		3.5,43.2 3.6,43.4 4.6,45.3 4.9,45.9 5.1,46.4 5.4,47.2 5.5,47.4 5.6,47.4 5.7,47 5.8,46.4 5.9,45.1 5.8,43.8 5.8,43.4 5.9,43.1 
		6.1,43 6.4,43 6.7,43 6.9,43.2 7,43.6 7.4,46.3 7.7,48.9 8.5,49.8 8.6,49.8 8.8,49.8 8.9,49.7 9.1,49.4 9.3,49.1 10.1,47.2 
		10.4,46.7 10.8,46.4 11.2,46.2 11.5,46.1 11.9,46.2 12,46.3 12,46.5 11.9,46.7 11.6,47.3 11.4,47.9 11.2,48.9 10.9,50.2 10.6,51.7 
		10,52.8 9.7,54 9.6,54.5 10,55.3 10.6,56.2 10.8,56.4 11.3,56.6 11.9,57.5 13.2,59 14.3,60.5 14.4,60.7 15,60.7 15.9,61.2 
		16.6,61.6 18.7,63.2 20.7,64.7 23.8,67.1 24.9,68.3 26.5,70 27.2,71.1 28.2,72.7 28.4,73 29.5,73.5 30,73.9 30.3,74.2 30.7,74.8 
		30.8,75.3 31,76.2 31.8,76.8 32,77.1 32.2,77.3 33.1,77.6 33.6,78 34,78.3 34.1,78.3 34.6,78 35,78 36.1,78 36.1,77.9 38.8,77.8 
		39.6,78.1 40.5,78.3 40.8,78.4 40.9,78.4 41.1,78.4 41.3,78.4 41.4,78.3 41.2,77.9 41,77.6 40.2,77.6 39.8,77.5 39.3,77.1 39,76.7 
		38.7,76 38.3,75.1 38.1,74.8 38.1,74.3 38,73.9 37.9,73.7 38,73.4 38.2,73.1 38.2,72.9 38,72.6 37.9,72.4 37.7,71.3 37.5,70.7 
		37.4,70.4 37.3,69.9 37.3,69.7 37,69 36.9,68.7 37,68.1 37.2,66.9 37.3,66.5 37.3,66.3 37.3,66.1 37.7,65.5 38,65.1 38.3,64.8 
		38.9,64.1 39.2,63.8 39.3,63.6 40.1,62.9 41.2,62.5 41.6,62.3 42,62.2 42.5,62.2 42.6,62.1 42.7,62.2 42.9,62.1 43.1,62 43.2,61.9 
		43.5,61.7 43.7,61.7 43.8,61.6 44,61.6 44.8,61.4 44.9,61.4 45.2,61.4 45.4,61.5 45.7,61.5 45.9,61.5 46.2,61.4 46.2,61.4 
		46.2,61.5 46.1,61.6 46.3,61.6 46.5,61.6 47,61.5 47.3,61.7 47.5,61.8 47.7,61.9 48.5,62 48.9,62.1 49.6,62.3 50,62.6 50.4,63 
		50.6,63.2 50.7,63.4 51.4,64 51.9,64.6 52,64.9 52.1,65.2 52.2,65.6 52.5,66 52.5,66.8 52.5,67.3 52.5,67.5 52.5,68.4 52.5,68.5 
		52.7,69.3 52.8,69.7 52.8,70.1 52.9,70.5 53,72 53.1,74.1 53,74.4 53,74.5 53,74.8 52.8,75 52.4,75.2 52,75.2 52,75.2 51.9,76.1 
		51.8,77.1 51.6,77.7 51.7,78.1 51.7,78.2 52.3,78.1 52.4,78 53.7,77.9 53.8,77.9 54.1,77.9 54.3,77.9 54.4,77.9 54.6,77.9 55.4,78 
		55.5,78 55.7,78 56,78 56.3,78 56.5,77.4 56.7,76.8 56.9,76.4 57.2,76.2 59.9,71.2 59.8,70.9 60,70.5 60.4,68.9 60.7,67.3 64,61.6 
		67.1,58.1 68.4,56.5 69,55.9 70.7,54.9 71.5,54.5 72.9,54 73,53.9 73.3,53.4 73.7,53 74.5,51.3 75.2,50 75.7,49 75.9,48.7 76,48.6 
		76,48.6 76.1,48.6 76.3,47.9 77.1,45.6 77.2,45.2 77.2,44.5 77,44 75.3,42 74.9,41.1 73.9,39.6 73.7,39.3 73.3,38.7 72.6,38 
		72.6,37.8 72.6,37.7 72.9,37.5 73.3,37.4 73.5,37.4 74,37.5 74.3,37.7 75.2,38.8 76.1,39.7 76.5,40.1 76.8,40.2 77,40.1 77.5,40 
		77.8,39.6 78.1,39.1 78.1,38.4 78,36.9 78,36.5 77.9,35.2 78,34.8 78.2,34.5 78.5,34.4 78.8,34.4 79,34.5 79.2,34.8 79.2,35.2 
		79.4,36.4 79.8,37.9 80,38 80.4,38 80.5,37.9 80.8,36.8 81.2,35.7 81.9,34.1 82.1,33.9 82.4,33.7 82.7,33.6 83,33.8 83.2,33.9 
		83.3,34.1 83.3,34.3 83.1,34.9 82.5,36.4 82,38.2 82,38.3 82.3,38.6 82.3,38.6 82.4,38.6 82.5,38.2 82.9,37.6 83.5,36.5 83.8,35.7 
		83.9,35.4 84.1,35.3 84.5,35.2 84.8,35.4 85,35.6 85,35.8 84.9,36.3 84.3,37.6 83.6,39.2 83.5,39.6 83.9,40 84,40 84.3,40 85,39.9 
		86,39.4 86.5,39 87.1,38.7 87.4,38.7 87.7,38.9 	"/>
	<g>
		<path class="st1" d="M191.6,68.4c-0.7-1.1-1.4-2.3-2.6-3.8c-0.9-1.1-3.6-4-5.8-6.3c-1-1.1-1.9-2-2.4-2.7c-1.8-2.1-5.9-6-6.8-7.2
			c-0.9-1.2-0.5-2.5-0.2-4c0.3-1.5-0.5-3.2-0.5-3.2c-0.9-1.2-1.1-1.2-1.5-1.7c-0.4-0.4-0.9-0.8-1.9-1c-1-0.2-0.7,0.2-1.4,0.5
			c-0.8,0.3-0.9,0-1.3-0.4c-0.3-0.4-0.2-0.5-0.5-1c-0.2-0.3-0.6-0.4-1-0.2c-0.9,0.4-0.5,3.2-0.7,3.6c-0.2,0.4,0.5,0.3,0.7,0.7
			c0.2,0.4,0.8,1.3,1.4,2.2c0.6,1-0.4,1.2-0.2,1.8c0.1,0.6,0.1,1,0.1,1.4c-0.1,0.3-0.5,0.3-1,0.1c-0.5-0.3-0.1-0.8-0.6-1.4
			c-0.4-0.6-0.8-0.8-1-0.8c-0.2,0-0.6-0.1-1,0.4c-0.3,0.5,0,2,0.5,3c0.4,1.1,1.9,2.2,3,2.8c1.2,0.6,4.2,5.2,5,6.2
			c0.9,1,5.1,7.3,5.7,8.5c0.7,1.2,1.3,3,1.5,3.6c0.2,0.6-0.8,0.7-0.8,0.7s-4.2,0-8.4,0c-1.7-1.4-4.6-3.9-7.9-8
			c-2.7-3.4-2.5-12-4.1-14.3c-1.7-2.2-1.7-4.4-5.3-7.1c-3.6-2.7-6.4-4.1-8.9-3.6c-2.5,0.4-5.7,2.1-6.3,3.1c0,0-2.4,3.7-4,5.4
			c-1.6,1.6-10.1,7.6-10.9,8.2c-0.1,0.1-0.7,0.3-1.5,0.7c-0.2-2.3,0-5.3-0.1-5.8c-0.2-0.8-0.6-7.1-0.6-7.1s0.1-2-0.1-2
			c-0.1,0,0.2-7.7,0.2-7.7s0.8-0.7,1.3-2c0.5-1.3,0.3-1.4,0.3-2.6c0-1.2,0.2-1.1-0.8-3c-0.9-1.9-0.5-3.5-0.6-4
			c-0.1-0.5-0.4-0.9-0.7-1c-0.3-0.1-0.5,0.2-1-0.3c-0.5-0.4-2.2-6.1-2.9-6.9c-0.8-0.8-1.1-0.7-1.7-0.3c-0.6,0.3,0,1.2,0.4,2
			c0.5,0.8,0.2,0.8,0.9,3c0.6,1.9,0.5,3.1,0.5,3.4c-0.1-0.4-1.6-2.5-2.3-2.5c-0.8,0-0.8,1.4-0.8,1.4l1.5,3.7
			c-0.3-0.7-1.8-3.5-1.9-3.6c-0.1-0.2-0.8-0.2-1.2-0.1c-0.4,0.2-0.5,0.5-0.5,1.6c0.1,1.1,2.5,3.3,2.5,3.3l-0.3,0.5
			c0,0-1.8-2.3-2.3-2.7c-0.5-0.4-0.3,0-0.7,0c-0.4,0.1-0.7,0.6-0.9,1c-0.2,0.3,0.3,2,1,4.1c0.7,2,3,6.2,3,6.2s-0.3,2.4-0.4,4.1
			c-0.1,1.7-0.5,10.4-0.5,14.3c0,1.7,0.4,3.8,0.9,6c-0.7,0.3-1.5,0.5-2.2,0.8c-3.7,1.3-7,2.4-7.3,2.6c0.3-0.1,3.6-1.1,7.5-2.3
			c0.7-0.2,1.4-0.5,2.1-0.7c0.2,0.9,0.4,1.8,0.6,2.6c-0.8,0.5-1.5,1-2.3,1.4c0.7-0.4,1.5-0.8,2.3-1.3c0.4,1.6,0.7,3.2,0.8,4.5
			c0.1,1.1,0.6,2.8,1.4,4.7c-1.5,1.6-2.6,2.9-3,3.5c0.2-0.2,1.4-1.4,3.1-3.1c0.5,1.2,1.1,2.5,1.7,3.8v0c1.7,3.6,3.7,6.9,4.5,7.6
			c1.6,1.4,4,6.6,4.8,9.1c0.8,2.5,1.1,6.8,1.1,7.2c0,0.3,1,7.4,1,7.4c-0.1,2.3,0.1,2.9-1.2,4.5c-0.7,0.8-1.4,2.4-2.1,4.4h37.3
			c-0.1-1.8-0.2-3.6-0.1-3.9c0-1.3,0.7-6.4,1.1-8.5c0.4-2.1,1.4-7,1.5-9.5c0.1-2.5,3.9-6.4,5-7.8c1.2-1.4,1.7-1.6,5.7-1.9
			c2.4-0.1,4.4-1.3,5.9-2.4c1-0.8,1.8-1.5,2.1-1.7c0.9-0.5,6.3-5,7.3-6.5C193,70.4,192.2,69.6,191.6,68.4z M123.8,53.9
			c0.9-0.5-0.4,0.3-2.5,1.8c0-0.2-0.1-0.4-0.1-0.7C122.4,54.6,123.3,54.1,123.8,53.9z M121.7,57.1c-0.1-0.2-0.2-0.4-0.2-0.6
			c1.7-1,3.1-1.8,3.8-2.3c2.7-2,3.5-1.6,3.6-1.7c0,0.3-0.9,6-3.2,7.9c-0.3,0.2-0.6,0.6-1,0.9C123.9,60,122.7,58.8,121.7,57.1z
			 M124.7,61.6c1.6-1.7,2.8-3,3.1-3.6c-0.1,0.3-1.1,2.6-2.3,5.5C125.1,62.8,124.9,62.1,124.7,61.6z M131.4,70.3
			c-2.5-0.9-2.4-2-3.6-2.8c-0.2-0.1-0.4-0.3-0.6-0.6c2-2.6,3.8-4.9,4.1-4.9c0.7,0-1.1,6.5,0.4,8c0.2,0.2,0.4,0.4,0.7,0.6
			C132.1,70.6,131.8,70.5,131.4,70.3z M161.9,70.3c-0.8-1-1.8-2.1-3-3.1c-2.4-2-4.8-3.8-6.2-5.2l0-0.5c2.5,2.2,7.8,6.7,9.9,8.1
			c0.4,0.2,0.7,0.5,1.1,0.7C163,70.3,162.4,70.3,161.9,70.3z M166.2,70.2c-2.9-3.3-7.1-8.2-7.8-9.3c-0.9-1.4,6.7,6.2,10.8,9.3
			C168.2,70.2,167.1,70.2,166.2,70.2z"/>
		<path class="st1" d="M123.5,71c-3.1,1.7-5.5,3-5.5,3C119.3,73.4,121.3,72.3,123.5,71z"/>
	</g>
</g>
</svg>
