<?xml version="1.0" encoding="utf-8"?>
<!-- Generator: Adobe Illustrator 27.0.0, SVG Export Plug-In . SVG Version: 6.00 Build 0)  -->
<svg version="1.1" id="Capa_1" xmlns="http://www.w3.org/2000/svg" xmlns:xlink="http://www.w3.org/1999/xlink" x="0px" y="0px"
	 viewBox="0 0 576.3 114" style="enable-background:new 0 0 576.3 114;" xml:space="preserve">
<style type="text/css">
	.st0{fill-rule:evenodd;clip-rule:evenodd;fill:#FFA600;}
	.st1{fill:#FFA600;}
</style>
<g>
	<path class="st0" d="M573.7,115.2l0.5,0.7c0,0-0.7,0.4-0.9,1c0,0-2,1.8-4.7,0.7c0,0-0.6-0.5-1.6-0.2c0,0-0.6-1-1.5-1
		c0,0-0.9-0.6-1.2,1.1c0,0-2.9,6-3.4,6.4c0,0,0.4,1.8,0.8,3.4h-33.5c0.7-3.1,2.2-7.4,2.5-8.6c0,0,0.9-5.2-1.3-6.8
		c0,0-11.7-6-13.6-9.4c0,0-1.3-1.6-2.8-3.5c0-0.5-0.1-1-0.2-1.5c-0.6-2.6-0.9-5.5-2-8c-0.2-0.5-0.4-1-0.7-1.5c0-0.2,0-0.4,0-0.6
		c-0.3-2.4-0.7-4.5-1.5-6.8c-0.4-1.1-0.9-2.3-1.4-3.4c0-0.4,0-0.8-0.1-1.1c0-0.3-0.1-0.5-0.1-0.8c0-1.3,0.2-2.7,0.1-4
		c-0.1-1.2-0.3-2.3-0.8-3.3c0.3-2.1,0.7-4.1,1.1-4.4c0,0-0.8-3.6-0.4-6.3l-0.2-5.1c0,0,0.3-2.7,1.4-0.4c0,0,0.6,2.7,0.5,3.7
		c0,0,0.2,1.1,0.8,0.1c0,0,0.6-4.4,1.1-5.7c0,0,1.2-3.5,1.7-1.1c0.4,1.8-0.7,4.2-0.7,5.4c0,0-0.4,2.6,0.4,1.1c0,0,0.8-2.4,0.9-2.9
		c0,0,0.3-0.9,0.6-2c0,0,1.3-4.4,2.2-2c0,0-1,4.3-1.4,6.1c0.1-0.4,1.4-4.2,2-2.6c0,0-0.6,4.3-1.5,5.6c0,0-1,4.6-0.8,5.3
		c0,0,0.6,0.8,0.6,2.3c0,0,1,2,0.9,3.3c-0.1,1.4,0.5,1.7,0.5,2.4c0,0,4.1,16,3.6,19.4c0,0,2.2,1.6,2.7,2.4c0.5,0.8,1.9,1.1,2.9,1.2
		c1,0.1,2.9,1.1,3.1,2.1c0,0,0.9,0.5,2.2,0.6c0,0,5.7,0.3,6.8,1.8c0,0,1.8-0.8,2.4-0.7c0,0-0.7-2.2-1.4-3c0,0-2.2-4.1-0.3-8.8
		c0,0,1.3-1.5,1.8-2.5c0,0,0.5-1.9,1.7-2c0,0,1.3-1.1,1.4-1.8c0,0,0.9-1.9,2.2-1.9c0,0,1.4-0.8,2.7-0.8c0,0,3.1-2,5,0
		c0,0,2.8,1.6,2.8,2.2c0,0,0.4-8,0.1-9.6c0,0-0.6-1.8-0.1-3.7c0,0-1.6-4.1-0.4-5.6c0,0-0.1-1.1-0.8-1.6c0,0-2.2-1.5-2.3-2.4
		c0,0-0.5-0.9-1.1-1.4l-1.6-1c0,0-1.2-1.2,0.1-1.6c0,0,1.8,0.1,2,1c0,0,1.4,1.5,2.2,1c0,0,1.8-1.1,1.3-3.9l-0.4-5.1
		c0,0-0.1-1.7,1-1.6c0,0,1.3,0.1,0.9,3.4c0,0,0.7,4,1.8,1.5c0,0,1.9-5.4,2.2-5.9c0,0,1.4-1.3,1.4,0.6l-0.9,3.7c0,0-0.4,1.4,0.6-0.3
		c0,0,1.6-3,2.1-3.3c0,0,2-0.7,0.9,1.6c0,0-2.6,5.2-1.6,4.6c0,0,2.5-2.5,3-2.6c0,0,2-0.5,0.6,1.1c0,0-3.5,3.7-3.9,5.3
		c0,0-0.6,2-1.1,2.6c0,0-0.6,2.3-0.5,3c0,0,1.7,0.3,1.8,0.7c0,0-1.1,4.9,0.6,9.4c0,0,1,4.4,0.5,7.1c-0.5,2.6,0,4.2,0,5.4
		c0,1.2-0.1,4.8-0.4,5.7c0,0,1.6,2.2,1.6,4.4c0,0,1.7-1.1,4.4-1c0,0-3.7,0.7-4,1.6c0,0-0.2,1.8,0.4,1.8c0,0,4,1.1,4.6,1.9
		c0,0,0.2,0.1,0.8,0.2c0,0-1.1,0.3-2.2-0.3c0,0-3.1-1.1-2.2-0.1c0,0,2.5,0.7,2.6,1.9c0,0-2-1.3-2.8-1.1c0,0-0.8,0-0.4,0.8
		c0,0,0.6,0.6,0.6,1.7c0,0-0.6,0.4,1.2,1.8c0,0,1.1,1,1.1,1.7c0,0-1.4-1.4-2.3-1.7c0,0-0.6-0.5-0.1,1.1c0,0-0.1,3.1,1.6,2.8
		c0,0,1.6,0,2.2-0.3c0,0,3.2-1.2,3.8-0.7c0,0,2,0.1,2.4,0c0,0-1.8,4.6-4.2,6.2c0,0-1.1,1.6-0.3,1.9c0,0,1.9,1.6,1.9,2.2
		c0,0,0.8,0.3,1.2,0.4C575.3,114,573.7,114.5,573.7,115.2z"/>
	<path class="st1" d="M117.8,110.1c-1.3-3.8,0.5-3.5-2.8-8.1c0,0-1.3-4.5-2.3-5.8c-1-1.3-2-6.5-2.5-6.3c-0.5,0.1-0.1-6.2-0.1-7.3
		c0-1.1,1.3-4.3,1.3-6.3c0-1.8,0.1-3.8-0.1-4.5c0-0.1-0.1-0.2-0.1-0.2c0,0,0,0,0,0c-0.5-0.4-0.2-3.9-0.2-4.4c0-0.5,0.6-4-0.8-4.4
		c-1.4-0.4-1.2-4.2-1.2-4.9c0.1-0.7,0.5-4.1-1-5.3c0,0,0.2-4-1.8-4c0,0-0.3-5-0.7-5.6c-0.4-0.5-0.5-3.6-1.1-4.6
		c-0.6-1-0.9-4.1-0.7-5c0.2-0.8-0.4-2.9-0.8-3c-0.4-0.1-1.1-2.5-2.4-3.4c0,0-0.3-0.8-0.3-1.8s-0.1-1.8-0.1-1.8s0.3-2.7-0.6-2.1
		c-0.9,0.5-0.6,1.5-0.6,1.5l-0.2,1.6l-0.1,1.5c0,0-0.7,0.6-1.2-0.5c-0.4-1.1-0.6-1.5-0.6-1.5l0.4-2.2c0,0,0-2.1-0.8-2.1
		c-0.8,0-1.3,2.1-1.3,2.1l-0.3,2.3c0,0-0.1,0.9,0.1,1.1c0.3,0.2-1.3-0.3-1.2-1.8c0,0-0.5-1.9-0.5-2.3c0-0.4-0.2-1.5-0.8-1.5
		c-0.6,0-0.9,0.7-0.6,1.6c0.2,0.9,0.3,2.8,0.3,2.8l0,1c0,0-0.8-0.9-0.8-1.3c0-0.4-0.7-2.2-0.9-2.2c0,0-0.6-1-1.3-0.2
		c0,0-0.1,0.8,0.2,1.6c0.3,0.8,0.5,1.4,0.5,1.4l0.1,1.3l0.6,1.3l0.9,0.6c0,0,0.2,1,0.1,1.1s1,1.4,1.1,1.4c0.1,0,0.6,1.1,0.6,1.4
		c0,0.3,2.8,2,3.4,2.1c0.6,0.1,1.4,1.4,1.4,1.9c0,0.5,0.4,4.4,0.4,4.4l0.1,5.8c0,0-0.2,5.3-0.2,5.5s-0.1,8.5,0,9.5
		c0.2,1-0.4,5.2,0.2,5.7c0.6,0.5,0.7,3.8,0.7,3.8s-0.9,2.7-0.4,3.6c0.5,0.9-0.2,2.9-0.2,2.9s0,0.9,0.1,1.7c-0.3-0.2-0.7-0.4-0.7-0.4
		c-0.1,0-0.9-0.4-0.9-0.4s-2.1-5.6-3.8-6.9c-1.6-1.3-6-2.2-6-2.2s-4.2,0.1-4.8,1.5c0,0-3.2,2-3,4.4c0.2,2.4,0.3,2.6,0.3,2.6l0,2.1
		c0,0-0.5,2.1,0.2,2.8l0.6,1.2c0,0,1.1,5.1,2.7,4.3c0,0,2.3,3.8,2.8,4.1l0,0.7c0,0-2.6,2.6-2.7,3.2c-0.1,0.7-4.9,5.5-5.2,8
		c-0.3,2.5,0,7.8,0,7.8s-0.2,2.9-0.1,3.4c0,0.5,0.2,1.3,0.3,1.8c0.2,0.4,0.3,1,0.3,1.9s0,2.1,0.3,2.5c0.2,0.4,0.2,2.2,0.3,2.7
		c0.1,0.3,0.8,2.4,1.3,4h35.6l1.2-1.1C117.4,126.1,119.2,113.9,117.8,110.1z M99.3,80.9c-0.2,0.1-0.1-0.2,0-0.5
		C99.4,80.6,99.5,80.8,99.3,80.9z"/>
	<path class="st1" d="M225.1,87c-5.4,1.6-9.9,5.6-12,10.8c-0.9,2.1-1.4,4.5-1.4,6.9c0,2.2,0.4,4.4,1.2,6.4c0,0.2,0,0.4,0,0.5
		c0,0.6,0,1.1,0.1,1.7c-1.3,1.2-2.4,2.5-3.3,4c-1.9,3.1-3.3,6.4-4.5,9.9h-19.2c0-0.2-0.1-0.4-0.1-0.7c-0.2-0.8-0.3-1.4-0.5-1.9
		c-0.2-0.5-0.8-1.8-0.8-3c0-1.2-0.4-1.4-0.8-2.8c-0.5-1.3-0.9-2.6-1.3-3.8c-0.4-1.2-0.5-5.5-0.4-6.7c0.1-1.1,0.8-3.4,1.2-4.5
		c0.4-1,0.6-3.3,0.6-4.7c0-1.4-0.2-1.4-0.7-2.6c-0.3-0.6-0.3-1.9-0.4-3.2c0-1.3,0-2.5,0-3c0-1-0.3-1.6-0.4-2.6
		c-0.1-1.1-1.3-4.5-1.3-5.4c0-0.8-0.8-2.2-0.8-3c0-0.8,0.5-1.9,0.9-2.4c0.4-0.5,1.4-3.1,1.4-3.1s0.3-1,0.6-2.4
		c0.2-0.8,0.3-1.8,0.3-2.7c0.1-2.3,1.7-9.3,1.9-9.8c0.2-0.6,0.1-3.7-0.3-6.5c-0.4-2.8,1-12.5,1-13.1c0-0.6,0.7-7.3,0.7-7.8
		c0-0.5-0.1-1.1-0.3-1.5c-0.1-0.3-0.7-2.2-0.7-2.7c0-0.5-0.2-1.9-0.5-2.6c-0.3-0.7-0.8-2.4-1-2.8c-0.2-0.4-0.6-2.6-0.7-2.9
		c-0.1-0.3-0.5-1.7-0.5-2c0-0.3,0.3-0.5,0.5-0.6c0.3,0,0.6,0.1,0.6,0.1S184,15,184,14.8c0-0.3,0.2-0.8,0.6-0.8
		c0.4,0,0.4,0.2,0.7,0.3c0.2,0.1,0.4,1.3,0.4,1.5c0.1,0.2,0.3,1.1,0.5,1.3c0.3,0.2,1.1,2.1,1.1,2.1s-0.1-2.6-0.2-3
		c-0.1-0.3-0.2-1.7-0.2-2c0-0.3,0.2-0.7,0.5-0.7c0.3,0,0.5,0.1,0.8,0.4c0.3,0.3,0.4,1.6,0.4,1.9c0,0.2,0.3,1.5,0.4,1.7
		c0.1,0.1,0,1.8,0.4,2.2c0.4,0.4,0.7,1.9,1,1.9c0.3,0,0.6-0.1,0.6-0.4s0.3-1.8,0.3-2.2c0-0.4,0.3-2.6,0.3-2.7c0-0.2,0.1-1.6,0.4-1.8
		c0.3-0.2,0.5-0.2,0.9,0.1c0.4,0.3,0.3,2.1,0.3,2.1s-0.2,1.2,0.1,2c0.2,0.8,0.2,1,0.2,1l0.9,1.1c0,0,0.9,0.6,1.3,1.3
		c0.4,0.7,0,2.9,0,2.9s-0.8,3.2-1,3.7c-0.2,0.5-1.6,2-1.5,2.4c0.1,0.3-0.7,2.3-0.7,2.3s-0.7,15.8,0.1,21.8c0.8,5.9-0.3,8.7-0.3,10.3
		c0.1,1.6-1.2,6.2-1.1,6.8c0.2,0.6,0.5,1.8,0.6,1.8s0.9,1,1.1,1.8c0.1,0.8,0.6,1.2,1.3,1.5c0.7,0.3,0.2,1.2,0.4,1.5
		c0.1,0.3,0.9,0.5,1.2,0.4c0.3,0,0.7-0.2,0.7-0.9c0.1-0.7,0.6-1.9,0.4-1.9c-0.2,0-0.9-0.2-1.2-0.5c-0.3-0.3-1.1-0.5-0.8-1.6
		c0.3-1.1-0.2-0.3-0.7-0.6s-0.7-0.3-1-0.9c-0.3-0.6-0.3-0.9,0-2.2c0.3-1.3,0-0.6-0.3-1.2c-0.3-0.7-0.4-1.1-0.6-1.7
		c-0.2-0.6,0.3-1.2,0.8-2c0.5-0.8,0.4-0.9,0.6-1.5c0.2-0.6-0.3-0.2-0.4-0.5c0-0.2,0.1-0.4,0.2-0.5s0.4-0.3,0.3-0.9
		c-0.1-0.5-0.2-1-0.2-1.3c0-0.3,0.9-0.4,1-0.8c0.1-0.4-0.3-0.4-0.6-0.5c-0.3-0.2-0.2-0.4-0.1-1c0.1-0.5,0.8-1.2,1.5-2
		c0.6-0.8,0.3-0.9,0.3-0.9s-0.7,0.2-1.1,0.4c-0.3,0.2-0.9,0.9-1.1,1.1c0.1-0.2,0.4-0.8,0.5-1c0.1-0.3,1-1.2,1.6-1.6
		c0.7-0.4,1.4-0.1,1.6-0.4c0.2-0.3,1-0.9,1.9-1.5c0.9-0.7,1.7-0.4,1.9-0.9c0.2-0.5-0.1-0.4-0.6-1.1c-0.3-0.5-1.5-0.2-2-0.1
		c0.3-0.1,0.9-0.4,1.2-0.7c0.5-0.4,2.1,0.5,3.2,0.8c1.1,0.3,2.2,1.3,2.9,1.4c0.7,0,1.5,2,1.5,2s0-0.3,0-1.1c0.1-0.7-0.7-0.7-0.8-1.2
		c-0.2-0.5-0.7-1.1-1.9-1.4c-1.1-0.3-1.8-0.4-1.9-0.4c0.1,0,0.3,0,1.1,0c0.9,0,2.7,1.1,3.8,2.1c1,1,0.8,3.2,0.8,3.2s0.8,0.2,1.5-0.2
		c0.7-0.3,1.4-0.2,3,0.2c1.5,0.4,1.5,1.3,2.2,1.9c0.1,0.1,0.2,0.2,0.2,0.3c0.2,0.3-0.2,0.5,0.5,1.4c0.9,1.1-0.6,2.8-0.7,3.2
		c-0.1,0.5-0.1,1,0.3,1.4c0.4,0.4,0.6,0.9,0.6,1.5s-0.4,1.2-0.4,1.2s0.2-0.6,0.2-1c0-0.4-0.2-0.6-0.5-0.8s-0.5,0.4-0.5,0.7
		c-0.1,0.3,0.1,1.1,0.5,1.3c0.3,0.2,0.1,0.8,0.1,1.3c0,0.5-0.5,0.8-0.5,0.8s0.1-0.2,0.3-0.6c0.2-0.4,0-0.8-0.2-1.1
		c0-0.1-0.1-0.1-0.1-0.1c-0.2-0.1-0.4,0.2-0.6,0.5c-0.2,0.4,0,0.5,0.2,1.2c0,0.1,0.1,0.3,0.1,0.5c0.1,1.1-0.5,2-0.5,2
		s0.3-0.6,0.4-1.7c0-0.2,0-0.4,0-0.5c-0.1-0.8-0.5-1.1-0.5-1.1s-0.5,0.4-0.1,0.8c0.2,0.2,0.2,0.8,0.1,1.3c0,0,0,0,0,0
		c0,0.2-0.1,0.5-0.1,0.7c0,0.2-0.2,0.4-0.5,0.6c-0.4,0.2-1,0.4-1,0.5c0,0.1-0.9,1.7-1.1,2c-0.1,0.2-1.2,2.3-1.7,2.7
		c-0.5,0.4-1.2,1.8-1.5,2.2c-0.3,0.5-1,0.7-1,0.7s0.5,1,0.6,0.9c0.1-0.1,0.5-0.3,1.1-0.3h2c0.5,0,1.8-0.1,2.2-0.6
		c0.5-0.4,2.5-0.1,2.6,0.6c0.1,0.6,1.3,0.8,2.3,1.2c0.2,0.1,0.4,0.1,0.5,0.2c1.1,0.5,4.6,4,4.6,4s0.7,0.6,1.5,1.3
		C224.8,86.8,225,86.9,225.1,87z"/>
	<g>
		<path class="st1" d="M282.7,116.9c-2.5-3-5.5-7.3-7.2-8.3c-1.7-1-1.7-1.6-2.5-3.6c0,0-1.3-6.7-1.4-7c-0.1-0.3-1.2-4.3-1.2-6.8
			c0-1.9,0.2-5.6,0.9-8c0.2-0.7,0.4-1.3,0.6-1.7c0.5-0.8,1.1-3.9,1.5-7.2c0.2-1.7,0.4-3.4,0.4-5c2.1,1,3.6,1.7,3.8,1.8
			c-0.5-0.4-1.9-1.2-3.8-2.2c0.1-1.9,0-3.6-0.2-4.6c-0.3-1.3-0.5-2.8-0.7-4.3c0.8,0.1,1.7,0.3,2.5,0.4c-0.8-0.2-1.6-0.4-2.5-0.5
			c-0.1-0.9-0.2-1.7-0.3-2.6c5-0.1,9.9-0.3,9.6-0.3c-0.2,0-4.9,0-9.6,0c-0.2-2.1-0.5-4.1-1.1-5.7c-1.2-3.5-4.4-11.1-5-12.7
			c-0.6-1.5-1.7-3.5-1.7-3.5s0.7-4.5,0.7-6.5c0-2.1-0.1-3.7-0.4-4c-0.3-0.3-0.7-0.6-1.1-0.6c-0.3,0-0.3-0.3-0.7,0.2
			c-0.4,0.5-1.2,3.1-1.2,3.1l-0.5-0.3c0,0,1.5-2.8,1.2-3.8c-0.2-1-0.5-1.3-0.9-1.3c-0.4,0-1,0.2-1,0.5c0,0.2-0.5,3.4-0.5,3.9
			l0.2-3.9c0,0-0.4-1.2-1.2-1c-0.7,0.2-1.3,2.6-1.3,3c-0.1-0.2-0.6-1.3-0.6-3.2c-0.1-2.2-0.3-2.1-0.1-3c0.2-0.8,0.4-1.8-0.2-1.9
			c-0.6-0.1-1-0.1-1.4,0.8c-0.4,0.9-0.2,6.6-0.4,7.1c-0.3,0.5-0.6,0.4-0.8,0.5c-0.2,0.2-0.4,0.7-0.3,1.1c0.1,0.5,1,1.9,0.7,3.9
			c-0.2,2-0.1,1.9,0.3,3c0.4,1,0.2,1.2,1.1,2.2c0.9,1,1.8,1.4,1.8,1.4s2.7,6.8,2.6,6.9c-0.1,0.1,0.6,1.9,0.6,1.9s1.6,5.8,1.7,6.5
			c0.1,0.5,1.2,3.1,1.8,5.2c-0.8,0-1.4-0.1-1.5-0.1c-0.9-0.3-10.5-3-12.4-4c-1.9-1-5.3-3.5-5.3-3.5c-0.8-0.7-4.3-1.2-6.6-0.8
			c-2.4,0.4-4.5,2.5-6.8,6.1c-2.3,3.6-1.7,5.6-2.5,8.1c-0.8,2.6,2.2,10.3,0.8,14.2c-1.6,4.7-3.5,7.8-4.6,9.7
			c-0.3,0.1-0.6,0.2-0.8,0.3c-3.5,1.2-6.7,2.3-6.7,2.3s-0.9,0.2-0.9-0.4c0-0.6,0-2.4,0.2-3.7c0.1-0.5,0.4-2,0.9-3.7
			c0.6-2.4,1.3-5.1,1.6-5.8c0.5-1.2,1.7-6.2,2.6-7.1c0.9-0.9,1.8-2.4,1.9-3.5c0-1.1-0.1-2.5-0.5-2.9c-0.5-0.4-0.8-0.1-1-0.1
			c-0.2,0.1-0.5,0.4-0.7,1.1c-0.2,0.7,0.3,1-0.1,1.5c-0.4,0.4-0.8,0.5-1,0.3s-0.3-0.7-0.4-1.2c-0.1-0.6-1-0.5-0.8-1.5
			c0.2-1,0.4-2,0.5-2.4c0.1-0.4,0.7-0.6,0.4-0.9c-0.3-0.3-0.8-3-1.8-3c-0.5,0-0.8,0.2-0.8,0.5c-0.1,0.5,0,0.6-0.1,1.1
			c-0.1,0.5-0.2,0.7-1,0.8c-0.8,0-0.6-0.5-1.4,0c0,0,0,0,0,0c-0.8,0.5-1.1,1-1.3,1.5c-0.2,0.5-0.5,0.7-0.9,2c0,0-0.1,1.7,0.6,3
			c0.5,0.9,1.1,1.8,1.2,2.7c0,0.3,0,0.6-0.1,1c-0.1,0.2-0.2,0.5-0.3,0.8c0,0.1-0.1,0.2-0.1,0.2c-0.1,0.3-0.2,0.6-0.4,0.9
			c0,0,0,0,0,0c-0.2,0.4-0.4,0.8-0.6,1.3c-0.9,1.8-1.9,4-2.4,5.4c-0.3,0.8-0.8,2-1.4,3.4c-1.2,2.8-2.7,6.1-3.1,7.3
			c-0.6,1.8-0.9,3.1-1.2,4.3c-0.2,1.2-0.7,2.2,0.6,3.3c1,0.8,4.6,2.2,6.9,3c0.8,0.3,1.5,0.5,1.7,0.6c1,0.2,4.8,2.3,8.5,1.2
			c3.7-1.1,4.2-1,5.7-0.1c1.5,0.9,6.1,3.2,7,5.4c0.8,2.2,3.3,6.3,4.3,8c1.1,1.7,3.2,6,3.7,7.3c0.2,0.5,0.5,1.2,0.9,2.1
			c0.7-0.1,1.7,3.5,2.1,4c0.3,0.4,0.7,0.7,1.1,1h35.7C283.5,123.8,282.8,117.1,282.7,116.9z M229,85.2c-0.9,0.3-1.8,0.6-2.8,0.9
			c2.7-4.1,7.1-13.3,6.8-11.8C232.8,75.6,230.5,81.3,229,85.2z M234.5,80.1c-0.8,1.3-1.3,2.6-1.7,3.8c-0.4,0.1-1,0.3-1.6,0.6
			c0.2-0.3,0.5-0.7,0.8-1c1.4-1.9,4.8-7.7,6.3-10.4l0.2,0.4C237.6,75.2,236,77.5,234.5,80.1z M261.9,57.1c0.5,0.1,1.5,0.2,2.8,0.2
			c0,0.2,0.1,0.4,0.1,0.6C262.4,57.3,261,56.9,261.9,57.1z M260.8,57.8c0.4,0.1,0.9,0.2,1.7,0.4c0.4,0.1,0.7,0.2,1.2,0.2
			c0.4,0.1,0.8,0.2,1.3,0.2c0,0.2,0,0.4,0,0.6c-0.2,0.8-0.4,1.5-0.6,2.2c-0.3,0.9-0.6,1.7-0.7,2.5c-0.5-0.2-0.9-0.4-1.2-0.5
			c-1.1-0.4-2.2-1.5-3.2-2.7c-1.3-1.6-2.2-3.4-2.2-3.4C257.1,57.5,257.7,56.9,260.8,57.8z M259.6,62.1c0.4,0.4,2,1.2,3.9,2.3
			c0,0.5,0,1.2-0.1,2C261.5,64.1,259.8,62.3,259.6,62.1z M260.3,74.3c-0.3,0.2-0.6,0.4-0.8,0.6c0.1-0.2,0.3-0.5,0.4-0.8
			c0.9-1.8-2.8-7-2.1-7.3c0.2-0.1,1.4,0.6,3,1.6c0.7,0.4,1.5,0.9,2.2,1.4c-0.1,0.3-0.2,0.5-0.3,0.7c0,0-0.1,0.1-0.1,0.2
			C261.8,71.9,262.2,72.8,260.3,74.3z"/>
		<path class="st1" d="M244.8,78.3c-2.5,0.4-4.3,0.7-4.3,0.7C241.5,78.9,243.1,78.7,244.8,78.3z"/>
	</g>
	<polygon class="st0" points="339.6,48.5 339.6,48.6 339.5,48.8 339,49.2 337.3,50.6 336.8,51.1 336.5,51.6 336,53 335.8,53.6 
		335.6,54 334.6,55.6 333.9,57.5 333.4,59.2 333.3,59.8 334.5,60.5 334.9,60.8 335.1,61.1 335,61.3 334.6,61.8 333.7,63.5 
		332.5,65.9 332.2,66.9 332.1,67.6 331.8,68.4 331.2,69.7 330.5,71.2 329.3,73.8 329,74.5 328.2,76.6 327.5,77.7 326.5,79.2 
		325.8,80.1 325.7,80.5 325.3,81.8 324.9,83.9 324.5,85.2 324.1,86 322.7,88.3 322,89.8 322,90.8 322.1,91.7 322.6,93.6 323.2,96.1 
		323.3,97.6 323.4,98.7 323.5,99 323.5,99.1 323.4,99.8 323.5,101.4 323.4,103.3 323.1,107.9 323.8,110.2 324.3,112.4 325,116 
		325.3,117.6 326.1,119.5 326.3,120.3 326.7,121.9 327.2,127.2 297.3,127.2 296.9,122.1 295.3,116.4 295,114.9 294.9,113.1 
		294.8,111.8 294.6,111 294.3,110.6 294.2,110.3 291.7,107.9 290.4,106.4 289.7,105.7 289.2,105.2 288.8,104.4 288.5,104 
		287.5,102.7 287,102 286.3,100.8 285.6,99.5 284.4,96.9 283.3,94.8 282.7,93.9 282.1,93.1 280,90.6 278.7,89.2 277.9,88.3 
		277.6,87.8 277.6,87.6 277.4,87.3 277.3,87.2 276.6,87.1 276.2,87 275.7,86.7 275.1,86.2 273.8,85.2 273.2,84.6 271.9,83.6 
		271.6,83.5 271.2,83.3 271.1,83.2 270.9,83.1 270.8,82.8 270.2,82.1 269.9,81.8 269.2,81 268.5,80.5 268,80.1 267.7,79.7 
		267.7,79.2 267.6,79 267.5,78.9 267.1,78.8 267,78.7 267,78.5 266.9,78.3 266.4,77.9 264.4,76 264.1,75.6 264,75.2 264.1,74.7 
		264.2,74.1 264.4,73.6 264.9,73 264.3,72.3 263.7,71.7 262.5,70.8 262.5,70.7 262,70.3 260.9,68.7 260.7,68.5 260.3,67.9 
		259.7,66.5 259.5,66.2 258.6,65.4 258,64.7 257.7,64.3 257.6,63.9 257.7,63.6 257.9,63.5 258,63.5 258.2,63.5 258.4,63.7 
		258.8,64.1 260.1,65.1 260.1,65.1 260.2,65.1 260.3,64.9 260.4,64.7 260.4,64.3 260.1,63.6 259.2,61 259.2,60.8 259.1,60.5 
		259.2,60.2 259.3,60.1 259.7,59.9 259.3,59 259.2,58.8 259.3,58.5 259.4,58.3 259.7,58.2 259.9,58.1 260.2,58.2 260.3,58.4 
		261.4,60.1 261.7,60.6 262,61.1 262.3,61.9 262.4,62 262.5,62 262.6,61.6 262.6,61.1 262.6,59.9 262.4,58.6 262.4,58.2 262.4,58.2 
		262.5,58 262.7,57.8 262.9,57.8 263.2,57.8 263.4,58 263.5,58.3 263.6,58.4 264.1,60.9 264.2,61.5 264.6,63.3 265.4,64.1 
		265.5,64.1 265.6,64.1 265.8,64 266,63.7 266.1,63.4 266.7,61.5 267,61 267.3,60.7 267.7,60.5 268,60.4 268.3,60.5 268.5,60.6 
		268.5,60.7 268.4,61 268.1,61.5 268,62.1 267.9,63 267.6,64.3 267.5,65.8 267,66.8 266.8,68 266.8,68.5 267.2,69.2 267.8,70 
		268,70.1 268.5,70.3 269.1,71.1 270.5,72.4 271.7,73.8 271.7,73.9 272.3,74 273.2,74.3 273.2,74.3 273.9,74.7 275.9,76.1 
		277.9,77.3 281,79.4 282.2,80.4 283.8,81.9 284.5,83 285.6,84.3 285.8,84.6 286.9,85 287.4,85.4 287.8,85.6 288.1,86.1 288.3,86.7 
		288.5,87.4 289.3,88 289.5,88.2 289.7,88.5 290.6,88.7 291.1,89 291.5,89.2 291.6,89.2 292,88.9 292.4,88.9 293.5,88.8 293.5,88.7 
		296,88.4 296.7,88.6 297.7,88.8 297.9,88.8 298,88.8 298.4,88.8 298.4,88.8 298.3,88.3 298,88.1 297.3,88.1 296.9,88.1 296.4,87.7 
		296.1,87.4 295.7,86.7 295.3,86 295.1,85.6 295,85.2 294.9,84.8 294.9,84.6 294.9,84.3 295.1,84.1 295,83.8 294.8,83.6 294.8,83.3 
		294.5,82.4 294.2,81.8 294.1,81.5 294,81.1 294,80.9 293.6,80.2 293.6,79.9 293.6,79.4 293.7,78.3 293.7,77.9 293.7,77.7 
		293.8,77.5 294,76.9 294.4,76.5 294.6,76.2 295.2,75.5 295.4,75.2 295.5,75 296.1,74.3 297.1,73.8 297.5,73.6 297.9,73.5 
		298.4,73.4 298.5,73.4 298.6,73.4 298.8,73.3 298.9,73.2 299,73.1 299.2,72.9 299.4,72.8 299.6,72.8 299.7,72.7 300.5,72.5 
		300.6,72.5 300.9,72.5 301,72.6 301.4,72.6 301.6,72.6 301.8,72.5 301.8,72.5 301.8,72.5 301.8,72.6 301.9,72.6 302.2,72.5 
		302.6,72.5 302.9,72.6 303.1,72.7 303.3,72.8 304,72.8 304.4,72.9 305.1,73.1 305.5,73.3 305.9,73.7 306.1,73.8 306.2,74 
		306.9,74.5 307.5,75.1 307.6,75.4 307.7,75.6 307.8,75.9 308,76.3 308.2,77.1 308.2,77.5 308.2,77.7 308.3,78.6 308.3,78.7 
		308.5,79.4 308.6,79.8 308.7,80.1 308.8,80.6 309,81.9 309.2,83.9 309.2,84.2 309.2,84.4 309.2,84.6 309,84.8 308.6,85 308.3,85.1 
		308.2,85.1 308.2,85.9 308.2,86.8 308.1,87.5 308.1,87.8 308.2,87.9 308.8,87.8 308.9,87.7 310,87.5 310.2,87.5 310.5,87.5 
		310.6,87.5 310.8,87.5 310.9,87.5 311.7,87.5 311.8,87.5 312,87.5 312.3,87.4 312.6,87.4 312.7,86.8 312.8,86.2 313,85.9 
		313.3,85.7 315.4,80.7 315.3,80.5 315.5,80.1 315.8,78.5 316,77 318.7,71.3 321.4,67.8 322.4,66.3 323,65.6 324.4,64.6 324.5,64.6 
		325.2,64.1 326.5,63.6 326.7,63.4 326.9,63 327.2,62.5 327.9,60.9 328.4,59.6 328.8,58.6 329,58.3 329.1,58.3 329.1,58.3 
		329.2,58.2 329.4,57.5 330,55.3 330,54.9 329.9,54.3 329.7,53.8 328,52 327.5,51.2 326.5,49.9 326.3,49.6 325.9,49.1 325.2,48.4 
		325.1,48.3 325.1,48.1 325.4,47.9 325.7,47.8 326,47.8 326.4,47.9 326.7,48.1 327.7,49 328.6,49.9 329,50.2 329.2,50.2 329.5,50.2 
		329.8,50 330.2,49.6 330.4,49.2 330.4,48.5 330.1,47 330.1,47 330.1,46.7 330,45.4 330,45 330.1,44.8 330.4,44.6 330.7,44.6 
		331,44.8 331.1,45 331.2,45.4 331.4,46.5 332,47.8 332.2,47.9 332.5,47.9 332.6,47.9 332.8,46.8 333.2,45.7 333.7,44.2 333.8,43.9 
		334.1,43.7 334.3,43.6 334.7,43.7 334.9,43.8 335,44 335,44.3 334.8,44.8 334.4,46.3 334,48 334,48.1 334.3,48.3 334.3,48.4 
		334.4,48.3 334.5,48 334.8,47.4 335.3,46.3 335.5,45.5 335.6,45.2 335.8,45.1 336.1,45 336.4,45.1 336.6,45.3 336.7,45.5 336.6,46 
		336.2,47.3 335.6,48.8 335.5,49.2 335.9,49.5 336.1,49.6 336.4,49.6 337,49.4 337.8,48.9 338.4,48.5 338.8,48.1 339.2,48 
		339.4,48.3 	"/>
	<path class="st1" d="M507.2,30.8l-0.4,1.2c0,0-0.2,0.7-0.7,1c-0.4,0.4-0.4,0.6-0.7,1.1s-0.4,0.6-0.7,0.9c-0.3,0.3-0.6,0.8-0.7,1
		c-0.1,0.2,0,0.8-0.3,0.9c-0.3,0.2-0.6,0.7-0.6,1.4c-0.1,0.7-0.5,1.8-0.5,2.2s-0.6,1.4-0.6,1.7s-0.2,0.8-0.2,1s0.2,0.9,0.2,0.9
		s-0.1,1-0.2,1.2c-0.1,0.2-0.4,0.7-0.4,0.7l-0.2,0.5c0,0,1.3,9.7,1.1,11.3c0,0,0.4,2,0.3,3.3c-0.1,1.3-0.5,3.7-0.3,4.5
		c0.2,0.7,0.2,2.7,0,3.6s-0.6,4-0.6,4.3c0,0.3-0.4,0.8-0.3,1.6s0,1.5-0.1,1.7c-0.1,0.2,0.2,0.6,0.2,0.6s1.9,0.7,1.7,2.2
		s-0.8,2.4-0.5,2.9c0.3,0.5,0.7,2.5,0.4,3.1c-0.3,0.6-0.1,1.2,0.2,1.8c0.3,0.6,0.1,1.4-0.3,2.5c-0.4,1.1-0.9,1.7-0.9,2.3
		c0,0.7-0.4,1.4-0.4,2.4c0.1,1,0.1,2.5,0.1,3.1c0,0.3-0.1,1.4-0.2,2.5c-0.1,0.5,0,3.7,0,7.5c0,2.2-3.5,5.8-3.5,8
		c0,2.5,1.7,7.8,3,11.5H448c1.3-3.2,2.7-7.7,2.6-10.9c0-1.9-2.3-7-2.4-8.6c-0.1-2.2-0.1-3.9-0.1-4.1c-0.1-1.2-0.1-2.9,0.1-3.5
		c0.4-0.9-4-3-3.4-5c0.6-1.9,0.9-2.5,1.1-2.8c0.1-0.3-1-0.7-1.5-2c-0.4-1.3-0.4-4.8,0-4.6c0.4,0.1-0.9-2.4-0.3-2.4s1.8-2.1,1.8-2.1
		s-0.8-7.4,0-8.2c0,0,0.9-2.7,0.1-3.9c0,0,1.2-10,1.8-11.2c0.6-1.2,1.4-6.9,1.4-7.3c0-0.5-0.2-2.2-0.2-2.2s-1.4-9.7,0.1-11.8
		c0,0,1.5-0.8,1.6,0.8c0,0,0.7-1.7,1.6-1c0,0,1.2-2,2-0.7c0,0,0.1,1.7,0.4,1.9c0.3,0.1,0.5-2.3,0.5-2.3l-0.2-3.2c0,0-0.3-2.2,0.3-2
		c0,0,1-0.6,1.3,0.7l0.3,3.3c0,0,0,1.6,0,1.8c-0.1,0.2,0.1,1.5,0,1.6c-0.1,0.2,1.1,1.3,1.6,1.7c0.5,0.4,0.9,0.9,0.9,1.4
		c0,0.6,0,2.3,0,2.3s0,1-0.2,1.4c-0.1,0.4-1.4,2-1.9,2.1c-0.4,0.1-1.5,1.6-1.5,1.6s-0.9,0.7-0.8,1.3c0,0.6-0.1,1.6-0.1,1.6
		s-0.4,0.5-0.5,1c-0.1,0.5-0.4,3-0.4,3s-0.2,3.3-0.2,3.7c0,0.5-0.2,3.6-0.2,4.8c0,1.2,0.2,4.8,0,6.1c-0.3,1.3-0.7,8.3-0.6,9.9
		c0.1,1.6,2.3,2.4,2.6,3.2c0.3,0.8,0,2.1-0.2,2.4c-0.3,0.4-0.6,1.1-0.3,1.6c0.3,0.5,0.6,0.7,0.9,1.3c0.3,0.5,0.4,0.9,0.4,1.8
		c0,0.8,0,1,0.3,1.4c0.3,0.4,0.5,0.3,0.5,1.2c0,0.8,1.2,2,1.2,2.7c0,0.8,0.5,1.2,0.4,1.6c-0.1,0.5,0.6,1,0.6,1.4
		c0,0.5,0.7,1.2,0.7,1.9c0,0.7-0.3,0.7,0,1c0.3,0.3,3.4,0.8,4.2-1.1c0.8-1.9,0.3-2.4,0.3-2.4s-2.1-0.8-2.6-2.4
		c-0.5-1.6-0.3-2.3-0.3-2.3s0-0.8,0.6-0.1c0,0-3.5-16.4,7.2-15.3c0,0,6.4-2.9,9.6,5.3c0,0,2,3.6,2,5.3c0,1.7,0,3.1,0,3.1
		s0.7-0.9,0.8-0.3c0.2,0.7,0,2.2,0,2.2s-0.5,2-1.1,2.3c-0.6,0.3-0.5,2-0.5,2s0.3,0.3,0.6,0.9c0.3,0.6,3.4,1.6,4,1.6
		c0.6,0,2.5-0.6,2.5-0.6s3.1-0.4,3.1-1.5c0,0,0.6-3.3,0-4.1s-1.3-2.2,0-2.2c1.4,0,0.5-1.7,1.6-2.5c0,0-1.9-2.3-0.4-3.6
		c0.2-0.1,0.3-0.2,0.4-0.3l0,0c0.1-0.1,0.4-0.5,0.4-0.8c0.1-0.4-1.6-2.5-0.7-2.8s1.6-1.5,1.2-2.8c-0.4-1.3,0.8-1,1.2-0.8
		s0.6-0.8,0.6-0.8h0.5c0,0-0.5-6.3-0.5-9.4c0-3,1.5-7.7,1.2-11.2c-0.2-3.5-0.6-9-0.3-9s-1.2-1.2-0.7-2.1c0.6-0.9,0.6-1,0.6-1
		s-3.7-4.8-3.8-5.9s0.8-1.5,0.6-2.4s-0.4-3.9-0.7-4.1c-0.3-0.2,1.6-1.4,2,2.2c0.3,3.6,0.1,2.6,0.4,2.6c0.2,0,0.9-1.3,1.5-1.8
		c0.6-0.5,0.5-2.3,0.6-2.7c0.1-0.4,0-3.8,0-4.3c0-0.5,0-3.7,0.8-3.6c0.8,0.1,1,0.5,1,0.7c0,0.2-0.3,2.6-0.3,3c0,0.4,0.4,1.3,0.2,1.5
		c-0.2,0.2-0.3,1.8-0.3,1.8l0.3,0.7c0,0,0.4,0.3,0.8,0.3s0.5-1.3,0.5-1.3l0.8-2.2l0.6-2.2l1-2c0,0,0.3-0.9,0.9-0.6
		c0.5,0.2,1.2,0.4,0.9,1.4l-1,2c0,0-0.3,1.4-0.4,1.6s-0.4,1.2-0.4,1.2l-0.6,1.3l-0.1,0.9c0,0-0.2,0.5,0.1,0.5c0.4,0,2.7-5.4,2.9-6.7
		c0,0,1.6-0.2,1.4,0.9s-0.6,1.7-0.6,1.7l-0.4,1.4c0,0-0.8,1.4-0.8,1.6c0,0.2-0.4,0.9-0.4,1.1c-0.1,0.2-0.2,0.8-0.2,0.8
		s0.2,0.8,0.9-0.2c0.7-1,1.6-2.3,1.6-2.3s0.9-1.2,1.2-1.1C506.8,30.2,507.2,30.8,507.2,30.8z"/>
	<path class="st1" d="M444.4,30.7c-0.4,0.8-1,4-0.7,5.2c0.3,1.2-0.5,4.3-0.2,5c0.3,0.6-1,5.8-1,5.8c2,0.6,0.7,4.5,0.7,4.5
		c1.2,1.6-0.3,4.9-0.5,5.6c-0.3,0.7-1.6,4.5-0.2,5.3c1.3,0.8-0.3,4.2-0.5,4.7c-0.2,0.5-1.5,4-1.1,4.5c0.4,0.5-0.5,2.8-1.1,4.9
		c-0.6,2.1-2.8,4.9-3.2,6c-0.4,1.1-2.6,7.4-2,7.4c0.6,0,0,5.5,0.7,7.1c0.7,1.6,0.7,6.5,0.7,6.5c2,5.7,0.2,4.8,0.5,9.1
		c0.2,3.4-3.2,11.7-4.6,14.9H394c-0.1-3-0.3-6.4-0.3-6.5c-0.2,0-0.3-5.9-0.3-6.4c0-0.5,0.6-2.4,0.5-2.8c-0.1-0.4,0.2-1.6,0.5-2.6
		c0.3-0.9,0.3-1.5,0.3-2c0-0.5,0.1-1.3,0.2-1.9c0.1-0.5,1.1-3.5,1.1-3.5s1.2-5.4,2.3-7.8c1-2.5,7.3-6,7.6-6.6s3.7-2.5,3.7-2.5
		l0.2-0.7c-0.4-0.4-1.6-5-1.6-5c-1.9,0.4-1.4-5.1-1.4-5.1l-0.3-1.4c-0.5-1,0.6-3,0.6-3l0.6-2.1c0,0,0-0.2,0.5-2.7
		c0.5-2.5,4.3-3.6,4.3-3.6c1.1-1.2,5.3-0.1,5.3-0.1s4.1,2.2,5.3,4c1.3,1.8,1.6,8,1.6,8s0.3,0.5,0.4,0.5c0.1,0,0.5,1.1,0.5,1.1
		l-0.4,1.4c0,0-0.1,1.2,0.3,1.1c0.3-0.1,0.8-0.9,0.8-1.5c0-0.7,0.5-3,0.5-3s1.3-1.8,1-2.9c-0.3-1.1,1.4-3.5,1.4-3.5s0.9-3.3,0.4-4
		c-0.5-0.7,1.4-4.8,1.5-5.8c0.1-1.1,2.7-9.5,2.7-9.6c0-0.1,1.8-5.5,1.8-5.5l1.6-5.9c0,0,0.8-4,0.9-4.5c0.2-0.5-0.3-2.1-0.9-2.3
		c-0.6-0.3-2.9-2.9-2.8-3.2c0.1-0.3,0-1.6-0.2-1.6c-0.2,0-0.8-1.7-0.7-1.8c0.1,0,0.2-1.2,0.2-1.2l-0.7-0.8l-0.3-1.5l0.3-1.3
		c0,0,0-0.6-0.1-1.6c-0.1-0.9,0.2-1.7,0.2-1.7c0.9-0.6,1.2,0.5,1.2,0.5c0.2,0.1,0.4,2.1,0.3,2.5c-0.1,0.4,0.4,1.5,0.4,1.5l0.3-1
		c0,0,0.4-2,0.5-3c0-1,0.5-1.6,1.1-1.4c0.6,0.1,0.5,1.4,0.4,1.8c-0.1,0.4-0.2,2.4-0.2,2.4c-0.5,1.5,0.9,2.5,0.7,2.1
		c-0.2-0.3,0.1-1.2,0.1-1.2l0.8-2.3c0,0,0.8-2.1,1.5-1.9c0.8,0.3-0.2,2.1-0.2,2.1l-0.7,2.5c0,0,0.2,0.4,0.4,1.7
		c0.1,1.3,1.3,1.2,1.3,1.2l0.3-1.5l0.6-1.9c0,0,0-0.9,1.1-1.2c1.1-0.3-0.2,2.3-0.2,2.3s0,0.7-0.3,1.7c-0.3,1,0.6,2.3,0.6,2.3
		c1.1,1.2,1,3.9,1.4,4.1C444.9,27.6,444.8,29.9,444.4,30.7z"/>
	<polygon class="st0" points="423.4,36.1 423.3,36.7 423,37.3 422.1,38.4 421,39.6 420.8,40.2 420,42.2 419.3,43.5 417.8,45.8 
		417.1,46.6 415.5,48 414.6,49.1 413.9,50.1 414.6,51 415,51.6 415.3,52.5 415.3,53.2 415.2,53.8 415,54.3 412.2,57.3 411.5,58 
		411.4,58.3 411.4,58.7 411.3,58.7 410.8,58.9 410.6,59.1 410.5,59.4 410.5,60.1 410.1,60.7 409.4,61.4 408.5,62.2 407.5,63.4 
		407.1,63.9 406.4,65 406.2,65.4 405.8,65.8 405.3,66 404.8,66.2 403.1,67.8 402.3,68.8 400.5,70.4 399.7,71.1 399,71.6 398.4,71.7 
		397.4,72 397.2,72.2 397.1,72.6 397,73 396.7,73.6 395.6,75.1 393.9,77.2 391.1,81.1 390.3,82.3 389.5,83.7 388.2,86.9 386.7,90.7 
		385.9,92.7 385,94.5 384.3,95.6 383,97.6 382.6,98.3 382,99.4 381.4,100.2 380.5,101.3 378.8,103.6 375.5,107.3 375.2,107.7 
		374.8,108.4 374.7,109.6 374.7,111.5 374.7,114 374.4,116.2 372.8,124.7 372.3,127.2 329.6,127.2 329.9,125.3 330.2,124.1 
		331,121.3 331.3,118.9 332,113.6 332.5,110.4 333.2,106.9 332.3,100.4 332,97.6 331.9,95.2 331.7,94.3 331.7,94 331.8,93.6 
		331.8,92.1 331.9,89.9 332.4,86.2 332.9,83.3 333,82.1 333,80.6 331.7,78.5 329.4,75.3 329,74.5 328.8,74.2 328.1,72.4 327.3,69.3 
		326.6,67.5 326.3,67 325.2,65.6 324.4,64.6 323.6,63.7 322.6,62.1 320.7,58.2 318.5,54.6 317.4,52.4 316.5,50.6 315.9,49.5 
		315.6,48.5 315.1,47 313.2,43.7 311.6,41.4 311,40.6 310.9,40.3 311,40 311.7,39.5 313.3,38.4 313.1,37.5 312.2,35.1 310.9,32.3 
		309.4,30.1 308.6,28.8 307.7,26.8 307.2,26.1 306.5,25.4 303.9,23.6 303.2,23.1 303,22.7 303,22.6 303.2,22.2 303.5,21.9 304,22 
		304.7,22.4 305.5,22.9 306.9,23.6 307.8,23.8 308.2,23.8 308.4,23.7 308.9,23.2 308.7,22.7 307.7,20.5 307,18.7 306.8,18 
		306.9,17.7 307.2,17.4 307.6,17.2 308.1,17.2 308.3,17.4 308.5,17.8 309,18.9 309.7,20.5 310.2,21.3 310.5,21.8 310.5,21.8 
		310.6,21.8 311,21.4 311,21.3 310.3,18.8 309.5,16.8 309.2,16 309.2,15.6 309.3,15.3 309.6,15.2 310.1,15 310.4,15 310.8,15.3 
		311.1,15.7 312,17.9 312.7,19.4 313.1,20.9 313.1,21 313.7,20.9 314,20.8 314.6,18.8 314.8,17.2 314.9,16.6 315.1,16.3 315.4,16.1 
		315.8,16 316.3,16.2 316.5,16.6 316.6,17.1 316.5,19 316.5,19.5 316.3,21.6 316.3,22.6 316.7,23.2 317.2,23.8 317.8,24 318.2,24 
		318.5,23.9 319.1,23.4 320.3,22.1 321.6,20.6 322.1,20.3 322.6,20.2 323,20.2 323.5,20.3 323.9,20.5 323.9,20.7 323.9,21 322.9,22 
		322.4,22.7 322.2,23.2 320.8,25.3 320.2,26.5 317.9,29.2 317.6,30 317.5,30.9 317.7,31.5 318.8,34.6 319.1,35.5 319.2,35.7 
		319.2,35.6 319.4,35.7 319.7,36.1 320.4,37.6 321.3,39.4 322.4,41.6 323,42.3 323.3,42.9 323.5,43.1 325.5,43.7 326.6,44.3 
		328.9,45.7 329.7,46.5 330.1,47 330.1,47 331.5,48.7 335.7,53.4 335.8,53.6 340.3,61.4 340.7,63.6 341.3,65.8 341.5,66.3 
		341.5,66.7 345.1,73.7 345.5,74 345.8,74.4 346.1,75.3 346.3,76.1 346.7,76.1 347.7,76.1 348.7,76 348.9,76 349.1,76 349.4,76 
		349.8,76 350,75.9 351.7,76.1 351.9,76.2 352.7,76.3 352.8,76.2 352.8,75.7 352.6,74.8 352.4,73.5 352.3,72.3 352.2,72.2 
		351.8,72.2 351.2,72 351,71.7 350.9,71.3 350.9,71.1 350.8,70.7 350.9,67.8 351.1,65.8 351.2,65.1 351.2,64.7 351.4,64 351.5,63 
		351.6,62.8 351.7,61.6 351.6,61.3 351.6,60.7 351.7,59.5 351.9,59 352.1,58.4 352.3,58.1 352.4,57.7 353.1,56.8 354.1,55.9 
		354.3,55.7 354.5,55.5 355.1,54.9 355.7,54.5 356.5,54.2 357.2,54 358.2,53.9 358.5,53.8 358.7,53.6 359.2,53.4 359.8,53.4 
		360.2,53.6 360.4,53.5 360.3,53.4 360.3,53.3 360.3,53.3 360.7,53.4 360.7,53.4 360.9,53.4 361.4,53.4 361.7,53.3 362,53.2 
		362.2,53.3 363.3,53.5 363.5,53.6 363.8,53.6 364.1,53.7 364.4,53.9 364.6,54 364.8,54.2 365.1,54.3 365.2,54.3 365.4,54.3 
		366.1,54.4 366.6,54.5 367.2,54.7 368.7,55.3 369.7,56.3 369.9,56.6 370.3,57 371.2,57.9 371.5,58.4 372,58.9 372.5,59.7 372.6,60 
		372.6,60.3 372.7,60.8 372.9,62.5 373,63.2 373,63.7 372.6,64.7 372.5,65 372.4,65.6 372.3,66.1 371.9,66.9 371.7,68.3 371.6,68.7 
		371.4,69.1 371.3,69.4 371.6,69.8 371.7,70.1 371.6,70.4 371.5,71 371.4,71.7 371.2,72.2 370.7,73.3 370.2,74.3 369.7,74.8 
		369,75.4 368.5,75.5 367.5,75.5 367.1,75.9 366.9,76.6 367,76.6 367.3,76.6 367.5,76.6 367.7,76.6 368.1,76.5 369.4,76.2 
		370.4,75.8 374.1,75.9 374.1,76 375.8,76.1 376.3,76.1 376.9,76.5 377.1,76.5 377.6,76.1 378.3,75.6 379.6,75.2 379.8,74.8 
		380.1,74.5 381.3,73.6 381.4,72.4 381.6,71.7 382.1,70.9 382.5,70.4 383.3,69.9 384.8,69.2 385.1,68.8 386.5,66.6 387.5,65 
		389.6,62.7 391.2,61.1 395.5,57.7 398.2,55.7 401,53.5 402,52.9 403.2,52.3 404,52.2 404.2,52 405.7,49.9 407.5,47.8 408.4,46.6 
		409,46.3 409.3,46 410.1,44.8 410.7,43.7 410.6,43.1 410.1,41.4 409.3,39.9 409,37.8 408.5,36 408.2,34.6 408,33.8 407.5,33 
		407.4,32.7 407.4,32.5 407.5,32.3 408,32.2 408.4,32.3 409.1,32.5 409.6,33 410,33.6 411.1,36.3 411.3,36.8 411.6,37.2 411.8,37.3 
		412,37.3 412.1,37.2 413.3,36 413.7,32.5 414.2,28.7 414.5,28.2 414.7,27.9 415.1,27.8 415.4,27.9 415.8,28.1 415.9,28.4 416,28.9 
		415.8,30.8 415.9,32.6 416,33.4 416.2,34 416.3,34 416.4,33.7 416.8,32.6 417.1,31.9 417.5,31.1 418.9,28.4 419.1,28.2 419.5,28 
		419.9,28.1 420.2,28.3 420.5,28.5 420.5,29 420.5,29.3 419.9,30.6 420.5,30.8 420.8,31 420.9,31.3 420.8,32.1 419.8,35.9 
		419.4,37.1 419.5,37.6 419.6,37.9 419.9,38.2 420,38.2 420,38.1 421.8,36.5 422.2,35.9 422.5,35.6 422.9,35.6 423,35.6 423.3,35.8 
			"/>
	<polygon class="st0" points="87.8,52.4 87.8,52.5 87.7,52.7 87.2,53.1 85.2,54.4 84.7,54.9 84.3,55.5 83.7,56.9 83.2,57.8 82,59.5 
		81.1,61.4 80.5,63.2 80.3,63.8 81.5,64.6 82,65 82.1,65.3 82,65.5 81.5,66 80.4,67.7 79,70.1 78.6,71.2 78.4,71.9 78,72.7 77.3,74 
		76.5,75.6 75,78.2 73.6,81.1 72.8,82.2 71.7,83.7 70.9,84.6 70.6,85 70.2,86.3 69.6,88.6 69,89.8 68.6,90.7 67,93 66,94.5 66,95.6 
		66.1,96.5 66.5,98.6 66.8,101.3 66.9,102.9 66.9,104 67,104.3 67,104.5 66.8,105.2 66.8,106.8 66.5,108.9 65.8,113.6 66.3,116.1 
		66.7,118.5 67.2,122.3 67.4,124 68.1,126.1 68.3,126.9 68.3,127.2 37.2,127.2 37.1,126.5 35.9,120.4 35.8,118.8 35.7,116.9 
		35.7,115.6 35.6,114.7 35.3,114.2 35.2,113.9 32.8,111.2 31.5,109.6 30.8,108.8 30.4,108.1 30,107.3 29.7,106.8 28.7,105.4 
		28.2,104.6 27.6,103.3 27,101.9 25.9,99.1 24.9,96.8 24.4,95.7 23.8,94.9 21.8,92.1 20.6,90.5 19.8,89.5 19.5,89 19.5,88.7 
		19.4,88.4 19.2,88.2 18.5,88.1 18.1,88 17.6,87.6 17,87.1 15.7,86 15.1,85.2 13.8,84 13.5,83.9 13.1,83.7 12.9,83.5 12.7,83.2 
		12.2,82.4 11.9,82 11.2,81.2 10.5,80.6 10,80.1 9.8,79.6 9.8,79.1 9.7,78.9 9.5,78.8 9.2,78.6 9.1,78.6 9.1,78.3 9,78.1 8.5,77.6 
		6.5,75.4 6.3,75.1 6.2,74.6 6.3,74.1 6.5,73.4 6.7,73 7.3,72.4 6.8,71.6 6.1,70.9 4.9,69.8 4.5,69.3 3.4,67.6 2.9,66.6 2.3,65.2 
		2.1,64.8 1.3,63.9 0.7,63.1 0.4,62.6 0.3,62.2 0.4,62 0.6,61.8 0.7,61.8 1,61.9 1.2,62.1 1.5,62.5 2.8,63.7 2.8,63.7 2.9,63.7 
		3.1,63.5 3.2,63.3 3.3,62.9 3,62.1 2.2,59.3 2.2,58.7 2.2,58.5 2.4,58.3 2.9,58.2 2.5,57.2 2.4,57 2.5,56.7 2.7,56.5 2.9,56.4 
		3.2,56.3 3.5,56.4 3.6,56.6 4.6,58.6 4.9,59.1 5.1,59.7 5.4,60.4 5.5,60.6 5.6,60.7 5.7,60.2 5.8,59.7 5.9,58.4 5.8,57 5.8,56.6 
		5.9,56.4 6.1,56.2 6.4,56.2 6.7,56.2 6.9,56.4 7,56.8 7.4,59.6 7.7,62.1 8.5,63 8.6,63.1 8.8,63 8.9,63 9.1,62.7 9.3,62.4 
		10.1,60.4 10.4,59.9 10.8,59.6 11.2,59.4 11.5,59.4 11.9,59.5 12,59.6 12,59.7 11.9,60 11.6,60.5 11.4,61.1 11.2,62.1 10.9,63.4 
		10.6,65 10,66.1 9.7,67.3 9.6,67.8 10,68.5 10.6,69.4 10.8,69.6 11.3,69.8 11.9,70.7 13.2,72.2 14.3,73.8 14.4,73.9 15,74 
		15.9,74.4 16.6,74.8 18.7,76.5 20.7,77.9 23.8,80.4 24.9,81.5 26.5,83.2 27.2,84.4 28.2,85.9 28.4,86.2 29.5,86.7 30,87.1 
		30.3,87.5 30.7,88 30.8,88.6 31,89.4 31.8,90.1 32,90.3 32.2,90.6 33.1,90.9 33.6,91.2 34,91.5 34.1,91.5 34.6,91.3 35,91.2 
		36.1,91.2 36.1,91.1 38.8,91 39.6,91.3 40.5,91.5 40.8,91.6 40.9,91.6 41.1,91.6 41.3,91.6 41.4,91.6 41.2,91.1 41,90.8 40.2,90.8 
		39.8,90.7 39.3,90.3 39,90 38.7,89.2 38.3,88.4 38.1,88 38.1,87.6 38,87.1 37.9,86.9 38,86.7 38.2,86.4 38.2,86.1 38,85.8 
		37.9,85.6 37.7,84.5 37.5,84 37.4,83.6 37.3,83.2 37.3,83 37,82.2 36.9,81.9 37,81.4 37.2,80.2 37.3,79.8 37.3,79.5 37.3,79.3 
		37.7,78.8 38,78.4 38.3,78 38.9,77.4 39.2,77.1 39.3,76.9 40.1,76.1 41.2,75.7 41.6,75.6 42,75.5 42.5,75.4 42.6,75.4 42.7,75.4 
		42.9,75.4 43.1,75.2 43.2,75.1 43.5,75 43.7,74.9 43.8,74.9 44,74.8 44.8,74.7 44.9,74.6 45.2,74.7 45.4,74.7 45.7,74.8 45.9,74.8 
		46.2,74.7 46.2,74.7 46.2,74.8 46.1,74.8 46.3,74.9 46.5,74.8 47,74.8 47.3,74.9 47.5,75 47.7,75.1 48.5,75.2 48.9,75.3 49.6,75.6 
		50,75.9 50.4,76.3 50.6,76.4 50.7,76.6 51.4,77.2 51.9,77.8 52,78.2 52.1,78.4 52.2,78.8 52.5,79.2 52.5,80.1 52.5,80.5 52.5,80.7 
		52.5,81.6 52.5,81.7 52.7,82.5 52.8,83 52.8,83.3 52.9,83.8 53,85.2 53.1,87.3 53,87.6 53,87.8 53,88.1 52.8,88.3 52.4,88.4 
		52,88.4 52,88.5 51.9,89.3 51.8,90.3 51.6,91 51.7,91.3 51.7,91.4 52.3,91.3 52.4,91.3 53.7,91.1 53.8,91.1 54.1,91.1 54.3,91.2 
		54.4,91.2 54.6,91.2 55.4,91.3 55.5,91.3 55.7,91.3 56,91.3 56.3,91.2 56.5,90.6 56.7,90 56.9,89.7 57.2,89.5 59.9,84.4 59.8,84.2 
		60,83.7 60.4,82.2 60.7,80.6 64,74.8 67.1,71.3 68.4,69.8 69,69.1 70.7,68.1 71.5,67.7 72.9,67.3 73,67.1 73.3,66.7 73.7,66.2 
		74.5,64.6 75.2,63.3 75.7,62.2 75.9,61.9 76,61.9 76,61.9 76.1,61.8 76.3,61.1 77.1,58.8 77.2,58.4 77.2,57.7 77,57.2 75.3,55.2 
		74.9,54.3 73.9,52.8 73.7,52.5 73.3,51.9 72.6,51.2 72.6,51 72.6,50.9 72.9,50.7 73.3,50.6 73.5,50.6 74,50.8 74.3,51 75.2,52 
		76.1,53 76.5,53.3 76.8,53.4 77,53.4 77.5,53.2 77.8,52.8 78.1,52.4 78.1,51.7 78,50.1 78,49.8 77.9,48.4 78,48 78.2,47.8 
		78.5,47.6 78.8,47.7 79,47.8 79.2,48 79.2,48.5 79.4,49.6 79.8,51.1 80,51.2 80.4,51.2 80.5,51.2 80.8,50.1 81.2,49 81.9,47.4 
		82.1,47.1 82.4,46.9 82.7,46.9 83,47 83.2,47.1 83.3,47.3 83.3,47.6 83.1,48.2 82.5,49.6 82,51.4 82,51.6 82.3,51.8 82.3,51.8 
		82.4,51.8 82.5,51.5 82.9,50.9 83.5,49.7 83.8,48.9 83.9,48.7 84.1,48.5 84.5,48.5 84.8,48.6 85,48.8 85,49.1 84.9,49.6 84.3,50.9 
		83.6,52.5 83.5,52.8 83.9,53.2 84,53.3 84.3,53.3 85,53.1 86,52.6 86.5,52.3 87.1,51.9 87.4,51.9 87.7,52.1 	"/>
	<g>
		<path class="st1" d="M191.6,81.7c-0.7-1.1-1.4-2.3-2.6-3.8c-0.9-1.1-3.6-4-5.8-6.3c-1-1.1-1.9-2-2.4-2.7c-1.8-2.1-5.9-6-6.8-7.2
			c-0.9-1.2-0.5-2.5-0.2-4c0.3-1.5-0.5-3.2-0.5-3.2c-0.9-1.2-1.1-1.2-1.5-1.7c-0.4-0.4-0.9-0.8-1.9-1c-1-0.2-0.7,0.2-1.4,0.5
			c-0.8,0.3-0.9,0-1.3-0.4c-0.3-0.4-0.2-0.5-0.5-1c-0.2-0.3-0.6-0.4-1-0.2c-0.9,0.4-0.5,3.2-0.7,3.6c-0.2,0.4,0.5,0.3,0.7,0.7
			c0.2,0.4,0.8,1.3,1.4,2.2c0.6,1-0.4,1.2-0.2,1.8c0.1,0.6,0.1,1,0.1,1.4c-0.1,0.3-0.5,0.3-1,0.1c-0.5-0.3-0.1-0.8-0.6-1.4
			c-0.4-0.6-0.8-0.8-1-0.8c-0.2,0-0.6-0.1-1,0.4c-0.3,0.5,0,2,0.5,3c0.4,1.1,1.9,2.2,3,2.8c1.2,0.6,4.2,5.2,5,6.2
			c0.9,1,5.1,7.3,5.7,8.5c0.7,1.2,1.3,3,1.5,3.6c0.2,0.6-0.8,0.7-0.8,0.7s-4.2,0-8.4,0c-1.7-1.4-4.6-3.9-7.9-8
			c-2.7-3.4-2.5-12-4.1-14.3c-1.7-2.2-1.7-4.4-5.3-7.1c-3.6-2.7-6.4-4.1-8.9-3.6c-2.5,0.4-5.7,2.1-6.3,3.1c0,0-2.4,3.7-4,5.4
			c-1.6,1.6-10.1,7.6-10.9,8.3c-0.1,0.1-0.7,0.3-1.5,0.7c-0.2-2.3,0-5.3-0.1-5.8c-0.2-0.8-0.6-7.1-0.6-7.1s0.1-2-0.1-2
			c-0.1,0,0.2-7.7,0.2-7.7s0.8-0.7,1.3-2c0.5-1.3,0.3-1.4,0.3-2.6c0-1.2,0.2-1.1-0.8-3c-0.9-1.9-0.5-3.5-0.6-4
			c-0.1-0.5-0.4-0.9-0.7-1c-0.3-0.1-0.5,0.2-1-0.3c-0.5-0.4-2.2-6.1-2.9-6.9c-0.8-0.8-1.1-0.7-1.7-0.3c-0.6,0.3,0,1.2,0.4,2
			c0.5,0.8,0.2,0.8,0.9,3c0.6,1.9,0.5,3.1,0.5,3.4c-0.1-0.4-1.6-2.5-2.3-2.5c-0.8,0-0.8,1.4-0.8,1.4l1.5,3.7
			c-0.3-0.7-1.8-3.5-1.9-3.6c-0.1-0.2-0.8-0.2-1.2-0.1c-0.4,0.2-0.5,0.5-0.5,1.6c0.1,1.1,2.5,3.3,2.5,3.3l-0.3,0.5
			c0,0-1.8-2.3-2.3-2.7c-0.5-0.4-0.3,0-0.7,0c-0.4,0.1-0.7,0.6-0.9,1c-0.2,0.3,0.3,2,1,4.1c0.7,2,3,6.2,3,6.2s-0.3,2.4-0.4,4.1
			c-0.1,1.7-0.5,10.4-0.5,14.3c0,1.7,0.4,3.8,0.9,6c-0.7,0.3-1.5,0.5-2.2,0.8c-3.7,1.3-7,2.4-7.3,2.6c0.3-0.1,3.6-1.1,7.5-2.3
			c0.7-0.2,1.4-0.5,2.1-0.7c0.2,0.9,0.4,1.8,0.6,2.6c-0.8,0.5-1.5,1-2.3,1.4c0.7-0.4,1.5-0.8,2.3-1.3c0.4,1.6,0.7,3.2,0.8,4.5
			c0.1,1.1,0.6,2.8,1.4,4.7c-1.5,1.6-2.6,2.9-3,3.5c0.2-0.2,1.4-1.4,3.1-3.1c0.5,1.2,1.1,2.5,1.7,3.8v0c1.7,3.6,3.7,6.9,4.5,7.6
			c1.6,1.4,4,6.6,4.8,9.1c0.8,2.5,1.1,6.8,1.1,7.2c0,0.3,1,7.4,1,7.4c-0.1,2.3,0.1,2.9-1.2,4.5c-0.7,0.8-1.4,2.4-2.1,4.4h37.3
			c-0.1-1.8-0.2-3.6-0.1-3.9c0-1.3,0.7-6.4,1.1-8.5c0.4-2.1,1.4-7,1.5-9.5c0.1-2.5,3.9-6.4,5-7.8c1.2-1.4,1.7-1.6,5.7-1.9
			c2.4-0.1,4.4-1.3,5.9-2.4c1-0.8,1.8-1.5,2.1-1.7c0.9-0.5,6.3-5,7.3-6.5C193,83.6,192.2,82.8,191.6,81.7z M123.8,67.1
			c0.9-0.5-0.4,0.3-2.5,1.8c0-0.2-0.1-0.4-0.1-0.7C122.4,67.8,123.3,67.4,123.8,67.1z M121.7,70.3c-0.1-0.2-0.2-0.4-0.2-0.6
			c1.7-1,3.1-1.8,3.8-2.3c2.7-2,3.5-1.6,3.6-1.7c0,0.3-0.9,6-3.2,7.9c-0.3,0.2-0.6,0.6-1,0.9C123.9,73.2,122.7,72,121.7,70.3z
			 M124.7,74.9c1.6-1.7,2.8-3,3.1-3.6c-0.1,0.3-1.1,2.6-2.3,5.5C125.1,76,124.9,75.3,124.7,74.9z M131.4,83.6
			c-2.5-0.9-2.4-2-3.6-2.8c-0.2-0.1-0.4-0.3-0.6-0.6c2-2.6,3.8-4.9,4.1-4.9c0.7,0-1.1,6.5,0.4,8c0.2,0.2,0.4,0.4,0.7,0.6
			C132.1,83.8,131.8,83.7,131.4,83.6z M161.9,83.5c-0.8-1-1.8-2.1-3-3.1c-2.4-2-4.8-3.8-6.2-5.2l0-0.5c2.5,2.2,7.8,6.7,9.9,8.1
			c0.4,0.2,0.7,0.5,1.1,0.7C163,83.5,162.4,83.5,161.9,83.5z M166.2,83.5c-2.9-3.3-7.1-8.2-7.8-9.3c-0.9-1.4,6.7,6.2,10.8,9.3
			C168.2,83.5,167.1,83.5,166.2,83.5z"/>
		<path class="st1" d="M123.5,84.2c-3.1,1.7-5.5,3-5.5,3C119.3,86.6,121.3,85.5,123.5,84.2z"/>
	</g>
</g>
</svg>
