<?xml version="1.0" encoding="utf-8"?>
<!-- Generator: Adobe Illustrator 27.0.0, SVG Export Plug-In . SVG Version: 6.00 Build 0)  -->
<svg version="1.1" id="Capa_1" xmlns="http://www.w3.org/2000/svg" xmlns:xlink="http://www.w3.org/1999/xlink" x="0px" y="0px"
	 viewBox="0 0 576.3 115" style="enable-background:new 0 0 576.3 115;" xml:space="preserve">
<style type="text/css">
	.st0{fill-rule:evenodd;clip-rule:evenodd;fill:#31363F;}
	.st1{fill:#31363F;}
</style>
<g>
	<path class="st0" d="M573.3,102l0.5,0.7c0,0-0.7,0.4-0.9,1c0,0-2,1.8-4.7,0.7c0,0-0.6-0.5-1.6-0.2c0,0-0.7-1-1.5-1
		c0,0-0.9-0.6-1.2,1.1c0,0-2.8,6-3.4,6.4c0,0,0.6,2.6,0.9,4.5h-33.9c0.5-3,2.4-8.2,2.8-9.6c0,0,0.8-5.2-1.3-6.8c0,0-11.7-6-13.6-9.4
		c0,0-1.3-1.7-2.8-3.5c0-0.5-0.1-1-0.2-1.5c-0.6-2.6-1-5.5-2-8c-0.2-0.5-0.4-1-0.7-1.5c0-0.2,0-0.4,0-0.6c-0.3-2.4-0.7-4.5-1.5-6.8
		c-0.4-1.1-0.9-2.3-1.3-3.4c0-0.4,0-0.8-0.1-1.1c0-0.3-0.1-0.6-0.1-0.8c0.1-1.3,0.2-2.7,0.1-4c-0.1-1.2-0.3-2.3-0.8-3.3
		c0.3-2.1,0.7-4.1,1.1-4.4c0,0-0.8-3.6-0.4-6.3l-0.2-5.1c0,0,0.3-2.7,1.4-0.4c0,0,0.6,2.7,0.5,3.7c0,0,0.2,1.1,0.8,0.1
		c0,0,0.6-4.4,1.1-5.7c0,0,1.2-3.5,1.7-1.1c0.4,1.8-0.7,4.2-0.7,5.4c0,0-0.4,2.5,0.3,1c0,0,0.8-2.4,0.9-2.9c0,0,0.3-0.9,0.6-2
		c0,0,1.3-4.4,2.2-2c0,0-1,4.3-1.4,6.1c0.1-0.4,1.4-4.2,2-2.6c0,0-0.6,4.3-1.5,5.6c0,0-1,4.6-0.8,5.3c0,0,0.6,0.8,0.6,2.3
		c0,0,1,2,0.9,3.3c-0.1,1.4,0.5,1.7,0.5,2.4c0,0,4.1,16,3.6,19.4c0,0,2.2,1.7,2.7,2.4c0.5,0.8,1.9,1.1,2.9,1.2
		c1,0.1,2.9,1.1,3.1,2.1c0,0,0.9,0.5,2.2,0.6c0,0,5.7,0.3,6.8,1.8c0,0,1.9-0.8,2.4-0.6c0,0-0.6-2.2-1.4-3c0,0-2.2-4.1-0.3-8.8
		c0,0,1.3-1.5,1.8-2.5c0,0,0.5-1.9,1.7-2c0,0,1.3-1.1,1.4-1.8c0,0,0.8-1.9,2.2-1.9c0,0,1.4-0.8,2.7-0.8c0,0,3.1-2,5,0
		c0,0,2.8,1.6,2.8,2.2c0,0,0.4-8,0.1-9.6c0,0-0.6-1.8-0.1-3.7c0,0-1.6-4.1-0.4-5.6c0,0-0.1-1.1-0.9-1.6c0,0-2.1-1.5-2.3-2.4
		c0,0-0.5-0.9-1.1-1.4l-1.6-1c0,0-1.2-1.2,0.1-1.6c0,0,1.8,0.1,2,1c0,0,1.4,1.5,2.2,1c0,0,1.8-1.1,1.4-3.9l-0.4-5.1
		c0,0-0.1-1.7,1-1.6c0,0,1.3,0.2,0.9,3.4c0,0,0.7,4,1.8,1.5c0,0,1.9-5.4,2.2-5.9c0,0,1.4-1.4,1.4,0.6l-0.9,3.7c0,0-0.4,1.4,0.6-0.3
		c0,0,1.6-3,2.1-3.4c0,0,2-0.6,0.9,1.6c0,0-2.6,5.2-1.6,4.7c0,0,2.5-2.5,3-2.7c0,0,2-0.5,0.6,1.1c0,0-3.5,3.6-3.9,5.3
		c0,0-0.6,2-1.1,2.7c0,0-0.6,2.3-0.5,3c0,0,1.7,0.3,1.8,0.7c0,0-1.1,4.9,0.6,9.4c0,0,1,4.4,0.5,7.1c-0.5,2.6,0,4.2,0,5.4
		c0,1.2-0.1,4.8-0.4,5.7c0,0,1.6,2.2,1.6,4.4c0,0,1.7-1.1,4.4-1c0,0-3.7,0.7-4,1.7c0,0-0.2,1.8,0.4,1.8c0,0,4,1.1,4.6,1.9
		c0,0,0.2,0.1,0.8,0.2c0,0-1.1,0.3-2.2-0.3c0,0-3.1-1.1-2.2-0.2c0,0,2.5,0.7,2.6,1.9c0,0-2-1.3-2.8-1.1c0,0-0.8,0-0.4,0.8
		c0,0,0.7,0.6,0.6,1.7c0,0-0.7,0.4,1.2,1.8c0,0,1.1,1,1.1,1.7c0,0-1.4-1.4-2.3-1.7c0,0-0.7-0.5-0.1,1.2c0,0-0.1,3.1,1.6,2.8
		c0,0,1.6,0,2.2-0.3c0,0,3.1-1.2,3.8-0.7c0,0,2,0.1,2.4,0c0,0-1.8,4.6-4.1,6.2c0,0-1.1,1.6-0.3,1.9c0,0,1.9,1.6,1.9,2.2
		c0,0,0.8,0.4,1.2,0.4C574.9,100.7,573.3,101.2,573.3,102z"/>
	<path class="st1" d="M117.5,96.8c-1.3-3.8,0.5-3.5-2.8-8.1c0,0-1.3-4.5-2.3-5.8c-1-1.3-2-6.5-2.5-6.4c-0.5,0.2-0.2-6.2-0.1-7.3
		c0-1.1,1.3-4.3,1.3-6.3c0-1.8,0.2-3.8-0.1-4.5c0-0.1-0.1-0.2-0.1-0.2c0,0,0,0,0,0c-0.4-0.5-0.2-3.9-0.2-4.4c0-0.5,0.6-4-0.8-4.4
		c-1.4-0.4-1.2-4.2-1.2-4.9c0-0.7,0.5-4.1-1-5.3c0,0,0.2-4-1.8-4c0,0-0.3-5.1-0.7-5.6c-0.4-0.5-0.5-3.6-1.1-4.6
		c-0.6-1-0.9-4.1-0.7-4.9c0.2-0.8-0.4-2.9-0.8-3c-0.4-0.1-1.1-2.5-2.4-3.4c0,0-0.3-0.8-0.3-1.8c0-0.9-0.1-1.8-0.1-1.8
		s0.3-2.7-0.6-2.1c-0.9,0.5-0.7,1.5-0.7,1.5l-0.2,1.6l-0.1,1.5c0,0-0.7,0.6-1.2-0.5c-0.4-1.1-0.6-1.5-0.6-1.5l0.4-2.2
		c0,0,0-2-0.8-2.1c-0.8,0-1.3,2.1-1.3,2.1l-0.4,2.3c0,0-0.1,0.9,0.2,1.1c0.3,0.2-1.3-0.3-1.2-1.8c0,0-0.5-1.9-0.5-2.3
		c0-0.4-0.2-1.6-0.8-1.5c-0.6,0-0.9,0.7-0.7,1.6c0.2,0.9,0.4,2.8,0.4,2.8l0,1c0,0-0.8-0.9-0.8-1.3S90.3,8.2,90,8.2
		c0,0-0.6-1-1.3-0.2c0,0-0.1,0.8,0.2,1.6c0.3,0.8,0.5,1.4,0.5,1.4l0.1,1.3l0.7,1.3l0.9,0.6c0,0,0.2,1,0.1,1.1
		c-0.1,0.1,1,1.4,1.1,1.4c0.1,0,0.6,1.1,0.6,1.4c0,0.3,2.8,2,3.4,2.1c0.6,0.1,1.4,1.4,1.4,1.9c0,0.5,0.4,4.4,0.4,4.4l0.1,5.8
		c0,0-0.2,5.3-0.2,5.4c0,0.1-0.1,8.5,0,9.5c0.2,1-0.4,5.2,0.2,5.7c0.6,0.6,0.6,3.8,0.6,3.8s-0.9,2.7-0.4,3.6
		c0.5,0.9-0.2,2.9-0.2,2.9s0,0.9,0.1,1.7c-0.3-0.2-0.7-0.4-0.7-0.4c-0.1,0-0.9-0.4-0.9-0.4s-2.1-5.6-3.8-6.9c-1.6-1.3-6-2.2-6-2.2
		s-4.2,0.1-4.8,1.5c0,0-3.2,2-3,4.4c0.2,2.4,0.3,2.6,0.3,2.6l0,2.1c0,0-0.5,2.1,0.2,2.9l0.7,1.2c0,0,1.1,5.1,2.7,4.3
		c0,0,2.4,3.8,2.8,4.1l0,0.7c0,0-2.6,2.6-2.7,3.2c-0.1,0.7-4.9,5.5-5.2,8c-0.3,2.5,0,7.8,0,7.8s-0.2,2.9-0.1,3.5
		c0,0.5,0.2,1.3,0.3,1.8c0.2,0.4,0.3,1,0.3,1.9s0,2.1,0.3,2.5c0.2,0.4,0.1,2.2,0.3,2.7c0.1,0.4,1.2,3.6,1.7,5h34.1l2.4-2.1
		C117.1,112.9,118.8,100.6,117.5,96.8z M99,67.6c-0.2,0.1-0.1-0.2,0-0.5C99.1,67.3,99.1,67.5,99,67.6z"/>
	<path class="st1" d="M224.8,73.8c-5.4,1.6-9.9,5.6-12.1,10.8c-0.9,2.1-1.4,4.5-1.4,6.9c0,2.2,0.4,4.4,1.2,6.4c0,0.2,0,0.4,0,0.6
		c0,0.6,0,1.1,0.1,1.7c-1.3,1.2-2.4,2.5-3.3,4c-2.1,3.4-3.6,7.1-4.8,10.9h-18.9c0-0.1,0-0.1,0-0.2c0-0.4,0.1-0.8-0.2-1.6
		c-0.2-0.8-0.3-1.4-0.5-1.9c-0.2-0.5-0.8-1.8-0.8-3c0-1.2-0.4-1.5-0.8-2.8c-0.5-1.3-0.9-2.6-1.3-3.8c-0.4-1.2-0.5-5.6-0.4-6.7
		c0.1-1.1,0.8-3.4,1.2-4.5c0.4-1,0.6-3.3,0.6-4.7c0-1.4-0.2-1.4-0.7-2.6c-0.3-0.6-0.3-1.9-0.4-3.2c0-1.3,0-2.5,0-3
		c0-1-0.3-1.6-0.4-2.6s-1.3-4.5-1.3-5.4c0-0.8-0.8-2.2-0.8-3c0-0.8,0.5-1.9,0.9-2.4c0.4-0.5,1.4-3.1,1.4-3.1s0.3-1.1,0.6-2.4
		c0.2-0.8,0.3-1.8,0.3-2.7c0.1-2.3,1.7-9.3,1.9-9.8c0.2-0.5,0.1-3.7-0.3-6.5c-0.4-2.8,1-12.5,1-13.1c0.1-0.6,0.7-7.3,0.7-7.8
		c0-0.5-0.1-1.1-0.3-1.5c-0.1-0.4-0.7-2.2-0.7-2.7c0-0.5-0.2-1.9-0.5-2.6c-0.3-0.7-0.8-2.4-1-2.8c-0.2-0.4-0.6-2.6-0.7-2.9
		c-0.1-0.3-0.5-1.7-0.5-2c0-0.3,0.3-0.5,0.5-0.6c0.3-0.1,0.6,0.1,0.6,0.1s-0.3-1.5-0.3-1.8c0-0.3,0.2-0.8,0.6-0.8
		c0.4-0.1,0.4,0.2,0.7,0.3c0.2,0.1,0.4,1.3,0.4,1.5c0.1,0.2,0.3,1.1,0.5,1.3c0.3,0.2,1.1,2.1,1.1,2.1s-0.1-2.6-0.1-2.9
		c-0.1-0.3-0.2-1.7-0.2-2c0-0.3,0.2-0.7,0.5-0.7c0.3,0,0.5,0.1,0.8,0.4c0.3,0.3,0.4,1.6,0.4,1.9c0,0.2,0.3,1.5,0.4,1.7
		c0.1,0.1,0,1.8,0.4,2.2c0.4,0.4,0.7,1.8,1,1.9c0.3,0,0.6-0.1,0.6-0.4c0-0.2,0.3-1.8,0.3-2.2c0-0.4,0.3-2.6,0.3-2.7
		c0-0.1,0.1-1.6,0.4-1.8c0.3-0.2,0.5-0.2,0.9,0.1c0.4,0.4,0.3,2.1,0.3,2.1s-0.1,1.2,0.1,2s0.2,1,0.2,1l0.9,1.1c0,0,0.9,0.6,1.3,1.3
		c0.4,0.7,0,2.9,0,2.9s-0.8,3.2-1,3.7c-0.1,0.5-1.6,2-1.5,2.4s-0.7,2.3-0.7,2.3s-0.7,15.8,0.1,21.8c0.8,5.9-0.4,8.7-0.3,10.3
		c0.1,1.6-1.2,6.2-1.1,6.8c0.2,0.6,0.5,1.8,0.6,1.8c0.1,0.1,0.9,1,1.1,1.8c0.1,0.8,0.6,1.2,1.3,1.5c0.7,0.3,0.2,1.2,0.3,1.5
		c0.2,0.4,0.9,0.5,1.2,0.4c0.3,0,0.7-0.2,0.7-0.9c0-0.7,0.6-1.9,0.4-1.9c-0.2,0-0.9-0.2-1.2-0.5c-0.3-0.3-1.1-0.5-0.8-1.6
		c0.3-1.1-0.2-0.3-0.7-0.6s-0.7-0.3-1-0.9c-0.3-0.6-0.3-0.9,0-2.2c0.3-1.3,0-0.6-0.3-1.2c-0.3-0.7-0.4-1.1-0.6-1.7
		c-0.2-0.6,0.4-1.2,0.8-2c0.5-0.7,0.4-0.9,0.6-1.5c0.2-0.6-0.3-0.2-0.4-0.4c0-0.2,0.1-0.4,0.2-0.5c0.1-0.1,0.4-0.4,0.3-0.9
		c-0.1-0.5-0.2-1-0.2-1.3c0-0.4,0.9-0.4,1-0.8c0.1-0.4-0.3-0.4-0.6-0.5c-0.3-0.2-0.2-0.5-0.1-1c0.1-0.5,0.8-1.2,1.5-2
		c0.6-0.8,0.3-1,0.3-1s-0.7,0.2-1.1,0.4c-0.3,0.2-0.9,0.9-1.1,1.1c0.1-0.2,0.4-0.7,0.5-1c0.1-0.3,1-1.2,1.6-1.6
		c0.7-0.4,1.4-0.1,1.6-0.3c0.2-0.3,1-0.9,1.9-1.5c0.9-0.7,1.7-0.4,1.9-0.9c0.2-0.5-0.1-0.4-0.6-1.1c-0.3-0.5-1.4-0.2-1.9-0.1
		c0.3-0.1,0.8-0.4,1.2-0.7c0.5-0.4,2.1,0.5,3.2,0.8c1.1,0.3,2.2,1.3,2.8,1.4c0.7,0,1.5,2,1.5,2s0-0.3,0-1c0.1-0.8-0.7-0.7-0.8-1.2
		c-0.2-0.5-0.7-1.1-1.9-1.4c-1-0.3-1.7-0.4-1.9-0.4c0.1,0,0.4,0,1,0c0.9,0,2.7,1.1,3.8,2.1c1,1,0.8,3.2,0.8,3.2s0.8,0.2,1.5-0.2
		c0.7-0.4,1.5-0.2,3,0.2c1.5,0.4,1.5,1.3,2.2,1.9c0.1,0.1,0.2,0.2,0.2,0.3c0.2,0.3-0.2,0.5,0.5,1.4c0.9,1.1-0.6,2.8-0.7,3.2
		c-0.1,0.5-0.2,1,0.3,1.4c0.4,0.4,0.6,0.9,0.6,1.5s-0.4,1.2-0.4,1.2s0.1-0.6,0.2-0.9c0-0.4-0.2-0.6-0.5-0.8
		c-0.2-0.2-0.5,0.4-0.5,0.7c-0.1,0.3,0.1,1.1,0.5,1.2c0.4,0.2,0.1,0.8,0.1,1.3c0,0.5-0.5,0.8-0.5,0.8c0,0,0.1-0.2,0.3-0.6
		c0.2-0.4,0-0.8-0.2-1.1c0-0.1-0.1-0.1-0.1-0.1c-0.2-0.1-0.4,0.2-0.6,0.5c-0.2,0.4,0,0.5,0.2,1.2c0,0.1,0.1,0.3,0.1,0.5
		c0.2,1.1-0.5,2-0.5,2s0.3-0.6,0.4-1.7c0-0.2,0-0.4,0-0.5c-0.1-0.8-0.5-1.1-0.5-1.1s-0.5,0.4-0.1,0.8c0.2,0.2,0.2,0.8,0.1,1.3
		c0,0.3-0.1,0.5,0,0.7c0,0.2-0.2,0.4-0.5,0.6c-0.4,0.2-1,0.4-1,0.5c0,0.2-0.9,1.7-1.1,2c-0.1,0.2-1.2,2.3-1.7,2.7
		c-0.5,0.4-1.2,1.8-1.5,2.3c-0.3,0.5-1,0.7-1,0.7s0.5,1,0.6,0.9c0.1-0.1,0.5-0.3,1.1-0.3h2c0.5,0,1.8-0.1,2.2-0.6
		c0.5-0.4,2.5-0.1,2.6,0.6c0.1,0.6,1.3,0.8,2.3,1.2c0.2,0.1,0.3,0.1,0.5,0.2c1.1,0.5,4.6,4,4.6,4s0.7,0.6,1.5,1.3
		C224.5,73.6,224.6,73.7,224.8,73.8z"/>
	<g>
		<path class="st1" d="M282.3,103.7c-2.5-3-5.5-7.3-7.2-8.3c-1.7-1-1.7-1.6-2.5-3.7c0,0-1.3-6.7-1.4-7c-0.1-0.3-1.2-4.3-1.2-6.8
			c0-1.9,0.2-5.6,0.9-8c0.2-0.7,0.4-1.3,0.6-1.7c0.5-0.8,1.1-3.8,1.5-7.2c0.2-1.7,0.4-3.4,0.4-5c2.1,1,3.6,1.7,3.8,1.8
			c-0.5-0.4-1.9-1.2-3.8-2.1c0.1-1.9,0-3.6-0.2-4.6c-0.3-1.3-0.5-2.8-0.7-4.3c0.8,0.1,1.7,0.3,2.5,0.4c-0.8-0.2-1.6-0.4-2.5-0.6
			c-0.1-0.8-0.2-1.7-0.3-2.6c5-0.1,9.9-0.3,9.6-0.3c-0.2,0-4.9,0-9.6,0c-0.2-2.1-0.5-4.1-1.1-5.7c-1.2-3.5-4.4-11.2-5-12.7
			c-0.6-1.5-1.7-3.5-1.7-3.5s0.7-4.5,0.7-6.5c0-2.1-0.1-3.7-0.4-4c-0.3-0.3-0.7-0.7-1.1-0.6c-0.4,0-0.3-0.3-0.7,0.2
			c-0.4,0.5-1.2,3.1-1.2,3.1l-0.5-0.3c0,0,1.5-2.8,1.2-3.8c-0.2-1-0.5-1.2-0.9-1.3c-0.4,0-1,0.2-1,0.4c0,0.2-0.5,3.4-0.5,3.9
			l0.2-3.9c0,0-0.4-1.2-1.2-1c-0.7,0.2-1.3,2.6-1.3,3c-0.1-0.2-0.6-1.3-0.6-3.2c-0.1-2.2-0.3-2.1-0.2-3c0.2-0.8,0.4-1.8-0.2-2
			c-0.6-0.1-1-0.1-1.4,0.8c-0.4,0.9-0.1,6.6-0.4,7.1c-0.3,0.5-0.6,0.4-0.8,0.5c-0.2,0.2-0.4,0.6-0.3,1.1c0.1,0.5,1,1.9,0.7,3.8
			c-0.2,2-0.1,1.9,0.3,3c0.4,1,0.2,1.2,1.1,2.2c0.9,1,1.8,1.4,1.8,1.4s2.7,6.8,2.6,6.9c-0.1,0.1,0.6,1.9,0.6,1.9s1.6,5.8,1.7,6.6
			c0.1,0.5,1.2,3.1,1.8,5.2c-0.8,0-1.4-0.1-1.5-0.1c-0.9-0.4-10.5-3-12.4-4c-1.9-1-5.3-3.6-5.3-3.6c-0.9-0.7-4.3-1.2-6.7-0.8
			c-2.4,0.4-4.5,2.5-6.8,6.1c-2.3,3.6-1.7,5.6-2.5,8.1c-0.8,2.6,2.2,10.3,0.8,14.1c-1.6,4.7-3.5,7.9-4.6,9.6
			c-0.3,0.1-0.6,0.2-0.9,0.3c-3.5,1.2-6.7,2.3-6.7,2.3s-0.9,0.2-0.9-0.4c0-0.6,0-2.4,0.2-3.7c0.1-0.5,0.4-2,0.9-3.7
			c0.6-2.4,1.3-5.1,1.6-5.8c0.5-1.2,1.7-6.2,2.6-7.2c0.8-0.9,1.8-2.4,1.8-3.5c0-1.1-0.1-2.5-0.5-2.9c-0.5-0.4-0.8-0.1-1,0
			c-0.2,0-0.5,0.4-0.7,1.1c-0.2,0.7,0.3,1-0.1,1.5c-0.4,0.4-0.8,0.5-1,0.3c-0.2-0.3-0.3-0.7-0.4-1.2c-0.1-0.5-1-0.5-0.8-1.5
			c0.2-1,0.4-2,0.5-2.5c0.1-0.4,0.7-0.6,0.4-0.9c-0.3-0.3-0.8-3-1.8-3c-0.5,0-0.8,0.2-0.8,0.5c-0.1,0.5,0,0.6-0.1,1.1
			c-0.1,0.5-0.2,0.8-1,0.8c-0.8,0-0.6-0.5-1.4,0c0,0,0,0,0,0c-0.9,0.5-1.1,1-1.4,1.5c-0.2,0.5-0.5,0.7-0.9,2c0,0-0.1,1.7,0.6,3
			c0.5,0.9,1.1,1.8,1.2,2.7c0,0.3,0,0.6-0.1,1c-0.1,0.2-0.2,0.5-0.3,0.8c0,0.1-0.1,0.2-0.1,0.3c-0.1,0.3-0.2,0.6-0.4,0.9
			c-0.2,0.4-0.4,0.9-0.6,1.3c-0.9,1.8-1.9,4-2.4,5.4c-0.3,0.8-0.8,2-1.4,3.4c-1.2,2.8-2.7,6.1-3.1,7.3c-0.6,1.8-0.9,3.1-1.2,4.3
			c-0.2,1.2-0.7,2.2,0.6,3.3c1,0.8,4.6,2.2,6.9,3c0.8,0.3,1.5,0.5,1.7,0.5c1,0.2,4.8,2.3,8.5,1.2c3.7-1.1,4.2-1,5.7-0.1
			c1.5,0.9,6.1,3.2,7,5.4c0.9,2.2,3.3,6.3,4.3,8c1.1,1.7,3.2,6.1,3.7,7.3c0.2,0.4,0.5,1.2,0.9,2.1c0.7-0.1,1.7,3.5,2.1,4
			c0.8,0.8,1.8,1.5,2.8,2h34.2C283.3,112.1,282.5,103.9,282.3,103.7z M228.6,72c-0.9,0.3-1.8,0.6-2.8,1c2.7-4.1,7.1-13.3,6.8-11.8
			C232.4,62.3,230.2,68.1,228.6,72z M234.2,66.9c-0.8,1.3-1.3,2.6-1.7,3.8c-0.4,0.1-1,0.3-1.6,0.5c0.2-0.3,0.5-0.6,0.8-1
			c1.4-1.9,4.8-7.7,6.3-10.4l0.2,0.4C237.2,61.9,235.7,64.3,234.2,66.9z M261.6,43.8c0.5,0.1,1.5,0.2,2.8,0.2c0,0.2,0.1,0.4,0.1,0.6
			C262,44,260.6,43.6,261.6,43.8z M260.4,44.5c0.4,0.1,0.9,0.2,1.7,0.4c0.3,0.1,0.7,0.1,1.2,0.2c0.4,0.1,0.8,0.2,1.3,0.2
			c0,0.2,0,0.5,0,0.6c-0.1,0.8-0.4,1.5-0.6,2.2c-0.3,0.9-0.6,1.7-0.7,2.5c-0.5-0.2-0.9-0.4-1.2-0.5c-1.1-0.4-2.2-1.5-3.2-2.7
			c-1.3-1.6-2.2-3.4-2.2-3.4C256.7,44.2,257.3,43.6,260.4,44.5z M259.3,48.8c0.4,0.4,2,1.2,3.9,2.2c0,0.5,0,1.2-0.1,2
			C261.1,50.9,259.5,49.1,259.3,48.8z M259.9,61.1c-0.3,0.2-0.6,0.4-0.8,0.6c0.1-0.3,0.3-0.5,0.4-0.8c0.9-1.8-2.8-7-2.1-7.3
			c0.2-0.1,1.4,0.6,3,1.6c0.7,0.4,1.5,0.9,2.2,1.4c-0.1,0.3-0.2,0.5-0.3,0.7c0,0-0.1,0.1-0.1,0.2C261.5,58.6,261.8,59.6,259.9,61.1z
			"/>
		<path class="st1" d="M244.5,65.1c-2.5,0.4-4.3,0.7-4.3,0.7C241.1,65.7,242.7,65.4,244.5,65.1z"/>
	</g>
	<polygon class="st0" points="339.2,35.2 339.2,35.3 339.1,35.6 338.7,36 336.9,37.3 336.5,37.8 336.2,38.4 335.7,39.8 335.4,40.3 
		335.2,40.7 334.3,42.3 333.5,44.3 333,46 332.9,46.6 334.1,47.3 334.6,47.6 334.7,47.8 334.7,48 334.3,48.6 333.3,50.3 332.1,52.6 
		331.9,53.6 331.7,54.3 331.4,55.1 330.8,56.4 330.2,58 328.9,60.6 328.6,61.2 327.8,63.3 327.2,64.5 326.2,65.9 325.5,66.9 
		325.3,67.3 324.9,68.6 324.5,70.7 324.1,71.9 323.8,72.8 322.4,75 321.6,76.5 321.7,77.6 321.8,78.4 322.3,80.4 322.8,82.9 
		323,84.4 323.1,85.4 323.2,85.7 323.2,85.9 323.1,86.6 323.2,88.2 323.1,90.1 322.8,94.6 323.4,97 323.9,99.2 324.7,102.8 
		325,104.4 325.7,106.3 326,107.1 326.4,108.7 326.9,115 297,115 296.5,108.8 295,103.1 294.7,101.6 294.5,99.9 294.4,98.6 
		294.3,97.8 294,97.3 293.8,97.1 291.3,94.6 290,93.2 289.3,92.5 288.9,91.9 288.4,91.2 288.1,90.7 287.1,89.5 286.6,88.7 
		285.9,87.5 285.3,86.3 284,83.7 282.9,81.6 282.3,80.6 281.7,79.9 279.6,77.3 278.4,75.9 277.5,75 277.3,74.6 277.2,74.3 277.1,74 
		276.9,73.9 276.3,73.8 275.9,73.7 275.3,73.5 274.8,73 273.5,72 272.8,71.4 271.5,70.3 271.2,70.2 270.9,70.1 270.8,70 270.6,69.9 
		270.4,69.6 269.9,68.8 269.6,68.6 268.9,67.8 268.2,67.3 267.7,66.8 267.4,66.4 267.3,66 267.3,65.8 267.1,65.7 266.8,65.6 
		266.7,65.5 266.7,65.3 266.6,65.1 266.1,64.6 264,62.7 263.8,62.4 263.7,61.9 263.7,61.5 263.8,60.8 264.1,60.4 264.5,59.8 
		264,59.1 263.3,58.4 262.2,57.5 262.1,57.5 261.7,57 260.5,55.5 260.3,55.2 260,54.6 259.3,53.3 259.1,52.9 258.3,52.2 257.6,51.4 
		257.4,51 257.3,50.6 257.3,50.4 257.5,50.2 257.6,50.2 257.9,50.3 258.1,50.4 258.4,50.8 259.7,51.8 259.7,51.9 259.8,51.9 
		260,51.7 260.1,51.4 260.1,51.1 259.7,50.3 258.8,47.8 258.8,47.6 258.7,47.2 258.8,47 259,46.8 259.4,46.7 258.9,45.8 258.9,45.6 
		258.9,45.3 259.1,45.1 259.3,44.9 259.5,44.9 259.8,45 260,45.1 261.1,46.9 261.4,47.4 261.6,47.9 262,48.6 262.1,48.8 262.2,48.8 
		262.2,48.4 262.3,47.9 262.2,46.6 262,45.3 262,45 262.1,44.9 262.1,44.7 262.3,44.6 262.5,44.5 262.8,44.5 263,44.7 263.2,45.1 
		263.2,45.1 263.8,47.6 263.9,48.3 264.2,50 265.1,50.8 265.2,50.9 265.3,50.8 265.4,50.8 265.6,50.5 265.7,50.2 266.4,48.3 
		266.6,47.8 266.9,47.5 267.4,47.2 267.6,47.2 268,47.2 268.1,47.3 268.1,47.5 268,47.7 267.8,48.3 267.6,48.8 267.5,49.8 267.3,51 
		267.1,52.5 266.7,53.6 266.4,54.8 266.4,55.2 266.8,55.9 267.4,56.7 267.7,56.9 268.1,57.1 268.8,57.8 270.2,59.2 271.3,60.6 
		271.4,60.7 271.9,60.7 272.8,61.1 272.9,61.1 273.5,61.4 275.6,62.8 277.6,64 280.7,66.2 281.8,67.1 283.4,68.7 284.2,69.7 
		285.2,71.1 285.5,71.4 286.5,71.8 287.1,72.1 287.4,72.4 287.8,72.9 287.9,73.4 288.1,74.2 289,74.8 289.2,75 289.3,75.2 
		290.2,75.4 290.8,75.7 291.1,76 291.3,76 291.7,75.7 292,75.6 293.1,75.5 293.1,75.4 295.7,75.2 296.4,75.4 297.3,75.5 297.6,75.6 
		298,75.6 298.1,75.5 297.9,75.1 297.7,74.8 297,74.9 296.6,74.8 296.1,74.5 295.8,74.1 295.4,73.5 294.9,72.7 294.8,72.4 294.7,72 
		294.6,71.6 294.5,71.3 294.5,71.1 294.7,70.8 294.7,70.6 294.5,70.3 294.4,70.1 294.2,69.1 293.9,68.6 293.8,68.3 293.7,67.9 
		293.6,67.7 293.3,67 293.2,66.7 293.3,66.2 293.3,65 293.4,64.7 293.4,64.4 293.4,64.2 293.7,63.7 294,63.3 294.2,62.9 294.8,62.3 
		295.1,62 295.2,61.8 295.8,61 296.8,60.5 297.2,60.4 297.6,60.3 298,60.2 298.2,60.1 298.2,60.2 298.4,60.1 298.5,59.9 298.7,59.8 
		298.9,59.7 299.1,59.6 299.3,59.6 299.4,59.5 300.2,59.3 300.3,59.3 300.5,59.3 300.7,59.3 301,59.3 301.2,59.3 301.4,59.2 
		301.5,59.2 301.5,59.3 301.4,59.4 301.6,59.4 301.8,59.3 302.2,59.2 302.6,59.4 302.7,59.4 303,59.5 303.6,59.6 304.1,59.6 
		304.7,59.8 305.1,60.1 305.5,60.4 305.7,60.6 305.8,60.7 306.6,61.3 307.1,61.8 307.2,62.1 307.3,62.3 307.5,62.7 307.7,63.1 
		307.8,63.9 307.9,64.3 307.8,64.5 307.9,65.3 308,65.4 308.1,66.1 308.3,66.6 308.3,66.9 308.4,67.3 308.6,68.7 308.9,70.7 
		308.8,71 308.8,71.1 308.8,71.4 308.7,71.6 308.3,71.8 308,71.8 307.9,71.9 307.9,72.7 307.8,73.6 307.7,74.2 307.8,74.5 
		307.9,74.6 308.4,74.5 308.5,74.5 309.7,74.2 309.8,74.2 310.1,74.2 310.6,74.2 311.3,74.2 311.4,74.2 311.6,74.2 311.9,74.2 
		312.2,74.1 312.3,73.6 312.5,73 312.6,72.6 312.9,72.4 315.1,67.5 315,67.2 315.1,66.8 315.4,65.3 315.6,63.8 318.3,58.1 321,54.6 
		322.1,53 322.6,52.4 324,51.4 324.1,51.3 324.9,50.9 326.2,50.3 326.3,50.2 326.5,49.8 326.8,49.3 327.5,47.7 328.1,46.4 
		328.4,45.4 328.6,45.1 328.7,45 328.8,45 328.8,44.9 329,44.3 329.6,42.1 329.7,41.7 329.6,41 329.3,40.6 327.6,38.8 327.1,38 
		326.1,36.6 325.9,36.3 325.5,35.8 324.8,35.2 324.8,35 324.8,34.9 325,34.7 325.4,34.6 325.6,34.6 326,34.7 326.4,34.8 327.3,35.8 
		328.2,36.6 328.7,36.9 328.9,37 329.1,36.9 329.5,36.8 329.8,36.3 330,35.9 330,35.3 329.8,33.8 329.8,33.8 329.7,33.5 329.6,32.2 
		329.7,31.8 329.8,31.5 330.1,31.4 330.4,31.4 330.6,31.5 330.8,31.7 330.9,32.1 331.1,33.2 331.6,34.6 331.8,34.7 332.2,34.7 
		332.2,34.6 332.4,33.5 332.8,32.5 333.3,30.9 333.5,30.7 333.7,30.4 334,30.4 334.3,30.5 334.5,30.6 334.6,30.8 334.6,31 
		334.5,31.6 334,33 333.7,34.7 333.7,34.9 334,35.1 334,35.1 334,35.1 334.2,34.7 334.5,34.2 334.9,33 335.2,32.2 335.3,32 
		335.5,31.8 335.8,31.8 336.1,31.9 336.3,32.1 336.4,32.3 336.3,32.8 335.9,34.1 335.3,35.6 335.2,36 335.6,36.3 335.7,36.4 
		336,36.3 336.6,36.1 337.5,35.6 338,35.2 338.5,34.9 338.8,34.8 339.1,35 	"/>
	<path class="st1" d="M506.8,17.6l-0.4,1.2c0,0-0.2,0.7-0.7,1c-0.4,0.4-0.4,0.6-0.7,1.1c-0.3,0.5-0.4,0.6-0.7,0.9s-0.6,0.8-0.7,1
		s0,0.7-0.3,0.9c-0.3,0.2-0.6,0.7-0.6,1.4c-0.1,0.7-0.5,1.8-0.5,2.2s-0.6,1.4-0.6,1.7s-0.2,0.8-0.2,1s0.2,0.9,0.2,0.9
		s-0.1,1-0.2,1.2c-0.1,0.2-0.4,0.7-0.4,0.7l-0.2,0.5c0,0,1.3,9.7,1.1,11.3c0,0,0.4,2,0.3,3.3c-0.1,1.3-0.5,3.7-0.3,4.5
		c0.2,0.7,0.2,2.7,0.1,3.6c-0.1,0.9-0.6,4-0.6,4.3c0,0.3-0.4,0.8-0.3,1.6c0.1,0.8,0,1.5-0.1,1.7c-0.1,0.2,0.2,0.6,0.2,0.6
		s1.8,0.7,1.7,2.2c-0.1,1.5-0.8,2.4-0.5,2.9c0.3,0.5,0.7,2.5,0.4,3.1c-0.3,0.6-0.1,1.2,0.2,1.8s0.1,1.4-0.3,2.5s-0.9,1.7-0.9,2.3
		c0,0.7-0.4,1.4-0.4,2.3c0.1,1,0.1,2.5,0.1,3.1c0,0.3-0.1,1.4-0.2,2.5c0,0.5,0,3.7,0,7.5c0,2.2-3.5,5.7-3.5,8c0,2.8,2,8.8,3.4,12.5
		h-53.9c1.3-3.3,3.1-8.4,3-11.9c0-1.9-2.3-7-2.4-8.5c-0.1-2.2-0.1-3.9-0.1-4.1c-0.1-1.2-0.1-2.9,0.1-3.4c0.4-0.9-4-3.1-3.4-5
		c0.6-1.9,0.9-2.5,1.1-2.8c0.1-0.3-1.1-0.7-1.5-2c-0.4-1.3-0.4-4.8,0-4.6c0.4,0.1-0.9-2.4-0.3-2.4c0.6,0,1.8-2.1,1.8-2.1
		s-0.8-7.4,0-8.2c0,0,0.9-2.7,0.1-3.9c0,0,1.2-10,1.8-11.2c0.6-1.2,1.4-6.9,1.4-7.4c0-0.5-0.1-2.2-0.1-2.2s-1.4-9.7,0.1-11.8
		c0,0,1.5-0.8,1.6,0.8c0,0,0.7-1.7,1.6-1c0,0,1.2-2,2-0.7c0,0,0.1,1.7,0.4,1.8c0.3,0.1,0.5-2.3,0.5-2.3l-0.2-3.2c0,0-0.3-2.2,0.3-2
		c0,0,1-0.6,1.3,0.7l0.3,3.3c0,0,0,1.6,0,1.8c-0.1,0.2,0.2,1.5,0,1.6c-0.1,0.2,1,1.3,1.6,1.7c0.5,0.4,0.9,0.9,0.9,1.5s0,2.3,0,2.3
		s0,1-0.2,1.4c-0.2,0.4-1.4,2-1.9,2.1c-0.4,0.1-1.5,1.6-1.5,1.6s-0.9,0.7-0.8,1.3c0.1,0.6-0.1,1.6-0.1,1.6s-0.4,0.5-0.5,1
		c-0.1,0.5-0.4,3-0.4,3s-0.2,3.3-0.2,3.7c0.1,0.5-0.2,3.6-0.2,4.8c0,1.2,0.2,4.8,0,6.1c-0.3,1.3-0.7,8.3-0.6,9.9
		c0.1,1.6,2.3,2.4,2.6,3.2c0.3,0.8,0,2.1-0.2,2.4c-0.3,0.4-0.6,1.1-0.3,1.6c0.3,0.5,0.6,0.7,0.9,1.3c0.3,0.5,0.4,1,0.4,1.8
		c0,0.8,0,1,0.3,1.4c0.3,0.4,0.5,0.3,0.5,1.2c0,0.8,1.2,2,1.2,2.7c0,0.8,0.5,1.2,0.4,1.6c-0.1,0.5,0.6,1,0.6,1.4
		c0,0.5,0.7,1.2,0.7,1.9c0,0.7-0.3,0.7,0,1c0.3,0.3,3.4,0.8,4.2-1.1c0.8-1.9,0.3-2.4,0.3-2.4s-2.1-0.8-2.6-2.4
		c-0.5-1.6-0.4-2.3-0.4-2.3s0-0.8,0.6-0.1c0,0-3.5-16.3,7.2-15.2c0,0,6.4-2.9,9.6,5.3c0,0,2,3.6,2,5.3s0,3.1,0,3.1s0.7-1,0.8-0.3
		c0.2,0.7,0,2.2,0,2.2s-0.5,2-1.1,2.3c-0.6,0.3-0.5,2-0.5,2s0.3,0.3,0.6,0.9c0.3,0.6,3.4,1.6,4,1.6c0.6,0,2.5-0.6,2.5-0.6
		s3.1-0.4,3.1-1.5c0,0,0.6-3.2,0-4.1c-0.6-0.8-1.3-2.2,0-2.2c1.4,0,0.5-1.7,1.6-2.5c0,0-1.9-2.3-0.4-3.6c0.2-0.1,0.3-0.2,0.4-0.3
		l0,0c0.1-0.1,0.3-0.5,0.4-0.8c0.1-0.4-1.6-2.5-0.7-2.9c0.9-0.3,1.6-1.5,1.2-2.8c-0.4-1.3,0.8-1,1.2-0.8c0.4,0.2,0.6-0.8,0.6-0.8
		h0.5c0,0-0.5-6.3-0.5-9.4c0-3,1.5-7.7,1.2-11.2c-0.2-3.5-0.6-9-0.3-9c0.3-0.1-1.2-1.1-0.7-2.1c0.6-0.9,0.6-1,0.6-1
		s-3.7-4.8-3.8-5.8c-0.1-1,0.8-1.5,0.6-2.4c-0.2-0.9-0.4-3.9-0.7-4.1c-0.3-0.2,1.6-1.4,2,2.2c0.3,3.6,0.1,2.6,0.4,2.6
		c0.2,0,0.9-1.3,1.5-1.8c0.6-0.5,0.5-2.3,0.6-2.7c0.1-0.4,0-3.8,0-4.3c0-0.5,0-3.7,0.8-3.6c0.8,0.1,1,0.5,1,0.7c0,0.2-0.3,2.6-0.3,3
		c0,0.4,0.4,1.3,0.2,1.5c-0.2,0.2-0.3,1.8-0.3,1.8l0.3,0.8c0,0,0.4,0.3,0.8,0.3c0.4,0,0.5-1.3,0.5-1.3l0.8-2.2l0.6-2.2l1-2
		c0,0,0.3-0.9,0.9-0.6c0.6,0.2,1.2,0.4,0.9,1.4l-1,2c0,0-0.3,1.4-0.4,1.6c-0.1,0.2-0.4,1.2-0.4,1.2l-0.6,1.3l-0.1,0.9
		c0,0-0.2,0.5,0.1,0.5c0.4,0,2.7-5.4,2.9-6.7c0,0,1.6-0.2,1.4,0.9c-0.2,1.1-0.6,1.7-0.6,1.7L504,17c0,0-0.8,1.4-0.8,1.6
		c0,0.2-0.4,0.9-0.4,1.1c-0.1,0.2-0.2,0.8-0.2,0.8s0.2,0.8,0.9-0.2c0.7-1,1.7-2.3,1.7-2.3s0.9-1.2,1.2-1.1
		C506.5,17,506.8,17.6,506.8,17.6z"/>
	<path class="st1" d="M444,17.4c-0.4,0.8-1.1,4-0.7,5.2c0.3,1.2-0.5,4.3-0.2,5c0.3,0.6-1,5.8-1,5.8c2,0.6,0.7,4.5,0.7,4.5
		c1.2,1.6-0.3,4.9-0.5,5.6c-0.3,0.7-1.6,4.5-0.2,5.3c1.3,0.8-0.3,4.1-0.4,4.7c-0.2,0.5-1.5,4-1.1,4.5s-0.5,2.8-1.1,4.9
		s-2.8,4.9-3.2,6c-0.4,1.1-2.6,7.4-2,7.4c0.6,0,0,5.5,0.7,7.1c0.7,1.6,0.6,6.5,0.6,6.5c2,5.7,0.2,4.8,0.5,9.1
		c0.2,3.9-4.2,14.1-5,15.9h-37.2c-0.1-3.1-0.3-7.4-0.4-7.5c-0.2-0.1-0.3-5.9-0.3-6.4c0-0.5,0.6-2.4,0.5-2.8
		c-0.1-0.4,0.2-1.6,0.5-2.6c0.3-0.9,0.3-1.5,0.3-2c0-0.5,0.1-1.3,0.2-1.9c0.1-0.5,1.1-3.5,1.1-3.5s1.2-5.4,2.3-7.9
		c1-2.5,7.3-5.9,7.6-6.6c0.3-0.7,3.7-2.5,3.7-2.5l0.2-0.7c-0.4-0.4-1.6-5-1.6-5c-1.8,0.4-1.4-5.1-1.4-5.1l-0.3-1.4
		c-0.5-1,0.6-2.9,0.6-2.9l0.6-2.1c0,0,0-0.2,0.5-2.7c0.5-2.5,4.3-3.6,4.3-3.6c1.1-1.2,5.3-0.1,5.3-0.1s4.1,2.2,5.3,4s1.6,8,1.6,8
		s0.3,0.5,0.4,0.5c0.1,0,0.5,1.1,0.5,1.1l-0.4,1.4c0,0-0.1,1.2,0.3,1.1c0.3-0.1,0.8-0.9,0.8-1.5c0-0.7,0.5-3,0.5-3s1.3-1.8,1-2.9
		c-0.3-1.1,1.4-3.5,1.4-3.5s0.9-3.3,0.4-4c-0.5-0.7,1.4-4.7,1.5-5.8c0.1-1.1,2.7-9.5,2.7-9.6c0-0.1,1.8-5.5,1.8-5.5l1.6-5.9
		c0,0,0.8-4,0.9-4.5c0.2-0.5-0.4-2.1-0.9-2.4c-0.5-0.3-2.9-2.8-2.8-3.1c0.1-0.3,0-1.6-0.2-1.6c-0.2,0-0.8-1.7-0.7-1.8
		c0.1,0,0.2-1.2,0.2-1.2l-0.7-0.8l-0.3-1.5l0.3-1.3c0,0,0-0.6-0.1-1.6c-0.1-0.9,0.2-1.7,0.2-1.7c0.9-0.6,1.2,0.5,1.2,0.5
		c0.2,0.1,0.4,2.1,0.3,2.5c-0.1,0.4,0.4,1.5,0.4,1.5l0.3-1c0,0,0.4-2,0.5-3c0-1,0.5-1.6,1.1-1.5c0.6,0.2,0.5,1.4,0.4,1.8
		c-0.1,0.4-0.2,2.4-0.2,2.4c-0.5,1.5,0.9,2.5,0.7,2.1c-0.2-0.3,0.1-1.2,0.1-1.2l0.8-2.3c0,0,0.8-2.1,1.5-1.9
		c0.8,0.3-0.2,2.1-0.2,2.1L439,5.5c0,0,0.2,0.4,0.4,1.7c0.1,1.3,1.3,1.2,1.3,1.2l0.3-1.5l0.6-1.9c0,0,0-0.9,1.1-1.2
		c1.1-0.3-0.2,2.3-0.2,2.3s0,0.7-0.3,1.7c-0.3,0.9,0.6,2.3,0.6,2.3c1.1,1.2,1,3.9,1.4,4.1C444.5,14.4,444.4,16.7,444,17.4z"/>
	<polygon class="st0" points="423.1,22.8 423,23.5 422.7,24.1 421.8,25.2 420.7,26.4 420.4,26.9 419.6,28.9 418.9,30.2 417.4,32.6 
		416.8,33.3 415.2,34.8 414.2,35.9 413.5,36.9 414.3,37.7 414.6,38.3 414.9,39.3 415,39.9 414.9,40.6 414.6,41.1 411.8,44.1 
		411.1,44.8 411,45.1 411,45.4 410.9,45.5 410.4,45.7 410.2,45.9 410.1,46.1 410.1,46.9 409.8,47.5 409.1,48.2 408.1,49 407.2,50.2 
		406.7,50.6 406,51.7 405.8,52.2 405.5,52.5 404.9,52.7 404.5,52.9 402.8,54.6 401.9,55.6 400.1,57.2 399.4,57.9 398.6,58.3 
		398,58.5 397.1,58.7 396.9,58.9 396.7,59.4 396.7,59.8 396.3,60.4 395.2,61.8 393.5,64 390.8,67.9 390,69 389.2,70.5 387.8,73.6 
		386.3,77.5 385.5,79.4 384.7,81.2 384,82.4 382.6,84.3 382.3,85 381.7,86.1 381.1,87 380.2,88.1 378.4,90.3 375.1,94.1 374.9,94.5 
		374.5,95.1 374.4,96.4 374.4,98.2 374.3,100.8 374,103 372.4,111.4 371.7,115 329.1,115 329.2,114.4 329.5,112 329.8,110.9 
		330.7,108 331,105.7 331.7,100.4 332.2,97.1 332.9,93.6 332,87.1 331.6,84.3 331.5,82 331.3,81 331.3,80.8 331.5,80.4 331.4,78.9 
		331.5,76.6 332,73 332.5,70 332.6,68.8 332.6,67.3 331.3,65.2 329.1,62.1 328.6,61.2 328.5,60.9 327.7,59.2 326.9,56.1 326.3,54.3 
		325.9,53.7 324.8,52.4 324,51.4 323.2,50.5 322.2,48.8 320.3,45 318.2,41.4 317.1,39.2 316.1,37.4 315.5,36.2 315.3,35.2 
		314.8,33.8 312.8,30.5 311.3,28.1 310.6,27.4 310.5,27.1 310.7,26.8 311.3,26.2 313,25.1 312.8,24.3 311.9,21.8 310.6,19.1 
		309,16.9 308.2,15.5 307.4,13.6 306.9,12.8 306.2,12.1 303.5,10.3 302.8,9.8 302.6,9.5 302.6,9.3 302.8,9 303.2,8.7 303.7,8.7 
		304.4,9.2 305.2,9.7 306.5,10.3 307.4,10.6 307.8,10.6 308,10.5 308.5,9.9 308.4,9.4 307.4,7.3 306.6,5.4 306.5,4.8 306.6,4.4 
		306.8,4.1 307.2,3.9 307.7,4 308,4.2 308.2,4.5 308.6,5.7 309.4,7.3 309.9,8.1 310.1,8.5 310.2,8.6 310.2,8.5 310.6,8.2 310.6,8 
		309.9,5.6 309.1,3.5 308.9,2.7 308.9,2.4 309,2.1 309.2,1.9 309.7,1.8 310.1,1.8 310.5,2.1 310.8,2.4 311.7,4.6 312.3,6.1 
		312.7,7.7 312.8,7.8 313.3,7.7 313.6,7.6 314.2,5.5 314.4,4 314.5,3.3 314.7,3 315,2.8 315.5,2.8 315.9,3 316.1,3.3 316.2,3.9 
		316.2,5.7 316.2,6.2 316,8.4 316,9.3 316.3,9.9 316.9,10.5 317.5,10.7 317.8,10.7 318.1,10.6 318.7,10.2 319.9,8.8 321.2,7.4 
		321.7,7.1 322.3,6.9 322.6,6.9 323.2,7 323.5,7.3 323.6,7.5 323.5,7.7 322.5,8.7 322,9.5 321.8,10 320.5,12 319.8,13.2 317.5,16 
		317.2,16.7 317.2,17.6 317.3,18.2 318.4,21.4 318.8,22.3 318.8,22.4 318.9,22.4 319.1,22.4 319.3,22.9 320,24.3 321,26.1 
		322.1,28.4 322.6,29 323,29.6 323.2,29.8 325.1,30.5 326.2,31 328.6,32.4 329.4,33.3 329.8,33.8 331.1,35.4 335.3,40.2 335.4,40.3 
		339.9,48.2 340.4,50.3 341,52.5 341.2,53.1 341.1,53.5 344.8,60.4 345.2,60.7 345.5,61.2 345.8,62 346,62.8 346.4,62.9 346.9,62.9 
		347.3,62.9 348.3,62.8 348.6,62.7 348.8,62.7 349,62.7 349.4,62.7 349.7,62.7 351.4,62.9 351.5,63 352.3,63.1 352.4,62.9 
		352.5,62.5 352.2,61.6 352.1,60.2 352,59.1 351.9,59 351.4,59 350.9,58.8 350.6,58.5 350.5,58.1 350.5,57.9 350.4,57.4 350.5,54.5 
		350.7,52.6 350.8,51.9 350.8,51.5 351,50.8 351.2,49.8 351.2,49.6 351.3,48.4 351.2,48.1 351.3,47.5 351.3,46.3 351.6,45.7 
		351.8,45.2 351.9,44.9 352.1,44.4 352.8,43.5 353.8,42.7 353.9,42.5 354.2,42.2 354.7,41.7 355.3,41.3 356.2,40.9 356.8,40.8 
		357.8,40.7 358.1,40.5 358.3,40.4 358.8,40.2 359.5,40.2 359.8,40.3 360,40.3 360,40.2 359.9,40 360,40 360.3,40.2 360.3,40.2 
		360.6,40.2 361.1,40.1 361.3,40 361.7,40 361.9,40 363,40.2 363.2,40.3 363.4,40.3 363.7,40.4 364,40.7 364.2,40.8 364.5,41 
		364.7,41.1 364.8,41 365,41.1 365.7,41.1 366.3,41.3 366.9,41.4 368.4,42.1 369.4,43.1 369.5,43.3 369.9,43.8 370.8,44.6 
		371.2,45.1 371.7,45.7 372.1,46.4 372.2,46.7 372.2,47.1 372.4,47.6 372.6,49.3 372.7,50 372.6,50.4 372.2,51.4 372.1,51.7 
		372.1,52.4 372,52.8 371.6,53.6 371.3,55.1 371.2,55.4 371,55.8 371,56.1 371.3,56.5 371.3,56.9 371.3,57.2 371.1,57.8 371,58.4 
		370.8,58.9 370.3,60 369.8,61.1 369.4,61.6 368.7,62.1 368.1,62.3 367.1,62.3 366.8,62.7 366.6,63.3 366.7,63.4 367,63.4 
		367.2,63.3 367.3,63.3 367.7,63.3 369,63 370.1,62.6 373.8,62.6 373.8,62.8 375.4,62.8 375.9,62.9 376.5,63.3 376.8,63.3 
		377.2,62.8 377.9,62.3 379.3,61.9 379.5,61.6 379.8,61.2 380.9,60.3 381.1,59.2 381.3,58.4 381.8,57.6 382.2,57.2 382.9,56.7 
		384.4,55.9 384.7,55.5 386.1,53.4 387.1,51.8 389.2,49.4 390.8,47.9 395.1,44.5 397.9,42.5 400.7,40.3 401.6,39.7 402.9,39.1 
		403.7,39 403.8,38.8 405.3,36.6 407.2,34.6 408,33.4 408.6,33.1 409,32.8 409.8,31.6 410.3,30.5 410.3,29.9 409.8,28.2 409,26.6 
		408.6,24.5 408.1,22.7 407.9,21.4 407.6,20.6 407.2,19.8 407,19.4 407,19.3 407.2,19.1 407.7,18.9 408.1,19 408.7,19.3 409.2,19.7 
		409.7,20.4 410.8,23.1 411,23.5 411.3,23.9 411.5,24 411.7,24 411.8,24 413,22.8 413.3,19.2 413.9,15.5 414.1,14.9 414.4,14.6 
		414.8,14.6 415.1,14.6 415.4,14.8 415.6,15.1 415.6,15.7 415.4,17.6 415.5,19.4 415.7,20.1 415.8,20.7 415.9,20.7 416.1,20.4 
		416.5,19.4 416.8,18.6 417.2,17.8 418.5,15.2 418.8,14.9 419.2,14.8 419.5,14.8 419.9,15 420.1,15.3 420.2,15.7 420.2,16 
		419.6,17.3 420.2,17.5 420.5,17.8 420.6,18.1 420.5,18.9 419.5,22.7 419.1,23.8 419.1,24.3 419.3,24.7 419.5,24.9 419.7,24.9 
		419.7,24.9 421.4,23.2 421.9,22.6 422.2,22.4 422.5,22.3 422.7,22.3 422.9,22.5 	"/>
	<polygon class="st0" points="87.5,39.1 87.5,39.3 87.3,39.5 86.8,39.9 84.9,41.2 84.3,41.7 84,42.2 83.4,43.6 82.8,44.6 81.7,46.2 
		80.7,48.2 80.1,50 79.9,50.6 81.2,51.4 81.6,51.8 81.7,52 81.7,52.2 81.2,52.8 80.1,54.5 78.6,56.9 78.3,57.9 78.1,58.7 77.7,59.5 
		77,60.8 76.2,62.4 74.6,65 73.2,67.8 72.5,69 71.3,70.4 70.5,71.4 70.3,71.8 69.8,73.1 69.2,75.3 68.7,76.6 68.2,77.5 66.6,79.7 
		65.7,81.2 65.7,82.4 65.7,83.2 66.1,85.3 66.5,88 66.5,89.6 66.5,90.7 66.6,91 66.6,91.2 66.5,91.9 66.4,93.6 66.2,95.6 
		65.5,100.4 66,102.9 66.4,105.2 66.9,109.1 67.1,110.8 67.7,112.9 67.9,113.7 68.1,115 37.1,115 36.8,113.3 35.6,107.1 35.4,105.5 
		35.3,103.7 35.4,102.3 35.3,101.4 35,101 34.8,100.7 32.4,97.9 31.2,96.3 30.5,95.5 30,94.9 29.6,94.1 29.4,93.6 28.4,92.2 
		27.9,91.4 27.2,90 26.7,88.6 25.6,85.8 24.6,83.5 24,82.5 23.5,81.7 21.5,78.8 20.2,77.3 19.4,76.2 19.2,75.8 19.1,75.5 19,75.1 
		18.9,75 18.2,74.8 17.8,74.7 17.2,74.4 16.7,73.9 15.4,72.7 14.8,72 13.5,70.8 13.2,70.7 12.8,70.5 12.5,70.2 12.4,69.9 11.9,69.1 
		11.5,68.8 10.9,67.9 10.2,67.4 9.7,66.8 9.4,66.4 9.4,65.9 9.3,65.7 9.2,65.5 8.8,65.4 8.7,65.3 8.7,65.1 8.7,64.9 8.2,64.4 
		6.1,62.2 5.9,61.8 5.9,61.4 5.9,60.9 6.1,60.2 6.4,59.8 6.9,59.2 6.4,58.4 5.7,57.6 4.6,56.6 4.1,56 3,54.3 2.5,53.4 1.9,51.9 
		1.7,51.5 1,50.6 0.3,49.8 0.1,49.4 0,48.9 0.1,48.7 0.3,48.6 0.4,48.6 0.7,48.6 0.9,48.8 1.2,49.2 2.5,50.4 2.5,50.5 2.5,50.5 
		2.8,50.3 2.9,50 2.9,49.7 2.6,48.8 1.9,46.1 1.8,45.5 1.9,45.3 2.1,45.1 2.5,44.9 2.1,44 2.1,43.8 2.2,43.5 2.3,43.3 2.6,43.1 
		2.8,43.1 3.1,43.2 3.3,43.4 4.3,45.3 4.6,45.9 4.8,46.4 5.1,47.2 5.2,47.4 5.3,47.4 5.4,47 5.5,46.4 5.5,45.1 5.4,43.8 5.4,43.4 
		5.6,43.1 5.8,43 6,42.9 6.3,43 6.5,43.2 6.7,43.6 7.1,46.3 7.3,48.9 8.2,49.8 8.3,49.8 8.4,49.8 8.5,49.7 8.8,49.4 8.9,49.1 
		9.8,47.2 10.1,46.7 10.4,46.4 10.9,46.2 11.2,46.1 11.5,46.2 11.7,46.3 11.7,46.5 11.5,46.7 11.2,47.3 11,47.9 10.8,48.9 
		10.5,50.2 10.2,51.7 9.7,52.8 9.3,54 9.3,54.5 9.7,55.3 10.2,56.2 10.5,56.4 10.9,56.6 11.5,57.5 12.9,59 14,60.5 14.1,60.6 
		14.6,60.7 15.6,61.2 16.3,61.6 18.3,63.2 20.3,64.7 23.4,67.1 24.6,68.2 26.1,70 26.8,71.1 27.8,72.7 28,73 29.1,73.5 29.7,73.9 
		30,74.2 30.3,74.8 30.5,75.3 30.6,76.2 31.5,76.8 31.7,77.1 31.8,77.3 32.8,77.6 33.3,78 33.6,78.3 33.8,78.3 34.2,78 34.6,78 
		35.8,78 35.8,77.8 38.5,77.8 39.2,78.1 40.2,78.3 40.5,78.3 40.6,78.4 40.7,78.4 40.9,78.4 41,78.3 40.9,77.9 40.6,77.6 39.9,77.6 
		39.5,77.5 39,77.1 38.7,76.7 38.3,75.9 37.9,75.1 37.8,74.8 37.7,74.3 37.6,73.9 37.6,73.7 37.6,73.4 37.8,73.1 37.8,72.9 
		37.6,72.6 37.6,72.4 37.4,71.3 37.1,70.7 37,70.4 37,69.9 36.9,69.7 36.6,69 36.6,68.7 36.7,68.1 36.8,66.9 36.9,66.5 36.9,66.3 
		37,66.1 37.3,65.5 37.7,65.1 38,64.8 38.6,64.1 38.9,63.8 39,63.6 39.7,62.9 40.8,62.5 41.2,62.3 41.6,62.2 42.2,62.2 42.3,62.1 
		42.4,62.2 42.5,62.1 42.7,62 42.9,61.9 43.1,61.7 43.3,61.7 43.5,61.6 43.6,61.6 44.5,61.4 44.6,61.4 44.8,61.4 45,61.5 45.4,61.5 
		45.6,61.5 45.8,61.4 45.9,61.4 45.8,61.5 45.8,61.6 45.9,61.6 46.2,61.6 46.6,61.5 47,61.7 47.2,61.8 47.4,61.9 48.1,62 48.6,62.1 
		49.2,62.3 49.6,62.6 50,63 50.2,63.2 50.3,63.3 51,64 51.6,64.6 51.7,64.9 51.8,65.2 51.9,65.6 52.1,66 52.1,66.8 52.2,67.3 
		52.1,67.5 52.2,68.4 52.2,68.5 52.3,69.3 52.5,69.7 52.5,70 52.5,70.5 52.7,72 52.7,74.1 52.7,74.4 52.7,74.5 52.6,74.8 52.4,75 
		52,75.2 51.7,75.2 51.6,75.2 51.5,76.1 51.4,77.1 51.3,77.7 51.3,78.1 51.4,78.2 52,78.1 52.1,78 53.3,77.9 53.5,77.9 53.8,77.9 
		54,77.9 54.1,77.9 54.2,77.9 55,78 55.7,78 56,78 56.2,77.4 56.4,76.8 56.6,76.4 56.9,76.2 59.5,71.2 59.5,70.9 59.6,70.5 60,68.9 
		60.4,67.3 63.7,61.5 66.8,58.1 68,56.5 68.6,55.9 70.3,54.9 71.1,54.5 72.5,54 72.7,53.9 72.9,53.4 73.3,53 74.2,51.3 74.8,50 
		75.3,49 75.5,48.7 75.6,48.6 75.7,48.6 75.7,48.6 76,47.9 76.8,45.6 76.9,45.2 76.9,44.5 76.6,44 75,42 74.5,41.1 73.5,39.6 
		73.3,39.3 73,38.7 72.3,38 72.2,37.8 72.3,37.7 72.6,37.5 72.9,37.4 73.2,37.4 73.6,37.5 73.9,37.7 74.9,38.8 75.8,39.7 76.2,40.1 
		76.4,40.2 76.7,40.1 77.1,40 77.5,39.6 77.8,39.1 77.8,38.4 77.6,36.9 77.6,36.5 77.6,35.2 77.7,34.8 77.8,34.5 78.1,34.4 
		78.4,34.4 78.7,34.5 78.8,34.8 78.9,35.2 79,36.4 79.5,37.9 79.7,38 80.1,38 80.1,37.9 80.4,36.8 80.9,35.7 81.5,34.1 81.8,33.9 
		82,33.7 82.3,33.6 82.7,33.8 82.8,33.9 82.9,34.1 82.9,34.3 82.7,34.9 82.2,36.4 81.6,38.2 81.7,38.3 81.9,38.6 82,38.6 82,38.6 
		82.2,38.2 82.5,37.6 83.1,36.5 83.4,35.7 83.6,35.4 83.8,35.3 84.1,35.2 84.4,35.4 84.6,35.6 84.7,35.8 84.6,36.3 84,37.6 
		83.3,39.2 83.2,39.6 83.5,39.9 83.7,40 84,40 84.6,39.9 85.6,39.4 86.2,39 86.7,38.7 87,38.7 87.3,38.9 	"/>
	<g>
		<path class="st1" d="M191.2,68.4c-0.7-1.1-1.4-2.3-2.6-3.9c-0.9-1.1-3.6-4-5.8-6.3c-1-1-1.8-2-2.4-2.7c-1.8-2.1-5.9-6-6.8-7.2
			c-0.9-1.2-0.5-2.5-0.2-4c0.3-1.5-0.5-3.2-0.5-3.2c-0.9-1.2-1.1-1.2-1.5-1.7c-0.4-0.4-0.9-0.8-1.9-1c-1-0.2-0.6,0.2-1.4,0.5
			c-0.8,0.3-1,0-1.3-0.4c-0.3-0.5-0.2-0.5-0.5-1c-0.2-0.3-0.6-0.4-1-0.2c-0.9,0.4-0.5,3.2-0.7,3.6c-0.2,0.4,0.5,0.3,0.7,0.7
			c0.2,0.4,0.8,1.3,1.4,2.2c0.6,1-0.4,1.2-0.2,1.8c0.1,0.6,0.2,1,0.1,1.4c-0.1,0.3-0.5,0.3-1,0.1c-0.5-0.3-0.1-0.8-0.6-1.4
			c-0.5-0.6-0.8-0.8-1-0.8c-0.2,0-0.6-0.2-1,0.4c-0.3,0.5,0,2,0.5,3c0.4,1,1.9,2.2,3.1,2.8c1.2,0.6,4.2,5.2,5,6.2
			c0.8,1,5.1,7.3,5.7,8.5c0.7,1.2,1.3,3,1.5,3.6c0.2,0.6-0.8,0.7-0.8,0.7s-4.2,0-8.4,0c-1.7-1.4-4.6-3.9-7.9-8
			c-2.7-3.3-2.4-12-4.1-14.3c-1.7-2.2-1.7-4.4-5.3-7.1c-3.6-2.7-6.4-4.1-8.9-3.6c-2.5,0.4-5.7,2.1-6.3,3.1c0,0-2.4,3.7-4,5.4
			c-1.6,1.6-10.1,7.6-10.9,8.3c-0.1,0.1-0.7,0.3-1.5,0.6c-0.2-2.3,0-5.3,0-5.8c-0.2-0.8-0.6-7.1-0.6-7.1s0.1-2,0-2
			c-0.1,0,0.2-7.7,0.2-7.7s0.8-0.7,1.3-2c0.5-1.3,0.3-1.4,0.3-2.6c0-1.2,0.2-1.1-0.8-3c-0.9-1.9-0.5-3.5-0.6-4.1
			c-0.1-0.5-0.4-0.9-0.7-1c-0.3-0.1-0.5,0.2-1-0.3c-0.5-0.4-2.2-6.1-2.9-6.9c-0.8-0.8-1.1-0.7-1.7-0.3c-0.6,0.3,0,1.2,0.4,2
			c0.5,0.8,0.2,0.8,0.9,3c0.6,1.9,0.5,3.1,0.5,3.4c-0.1-0.4-1.6-2.5-2.3-2.5c-0.8,0-0.8,1.4-0.8,1.4l1.5,3.7
			c-0.3-0.7-1.8-3.5-1.9-3.7c-0.1-0.2-0.8-0.2-1.2-0.1c-0.4,0.2-0.5,0.5-0.4,1.6c0.1,1.1,2.5,3.3,2.5,3.3l-0.3,0.5
			c0,0-1.8-2.3-2.3-2.7c-0.5-0.4-0.4,0-0.7,0c-0.4,0.1-0.7,0.6-0.9,1c-0.2,0.3,0.3,2,1,4.1c0.7,2,3,6.2,3,6.2s-0.4,2.3-0.4,4.1
			c-0.1,1.7-0.5,10.4-0.5,14.3c0,1.7,0.4,3.8,0.9,6c-0.7,0.3-1.5,0.5-2.2,0.8c-3.8,1.3-7.2,2.5-7.3,2.6c-0.2,0.1,3.3-1,7.5-2.3
			c0.7-0.2,1.4-0.5,2.1-0.7c0.2,0.9,0.4,1.7,0.6,2.6c-0.8,0.5-1.5,1-2.3,1.4c0.7-0.4,1.5-0.8,2.3-1.3c0.4,1.6,0.7,3.1,0.8,4.5
			c0.1,1.1,0.6,2.8,1.4,4.7c-1.5,1.6-2.7,2.9-3,3.5c0,0,1.3-1.3,3.1-3.1c0.5,1.2,1.1,2.5,1.7,3.8v0c1.7,3.6,3.7,6.9,4.5,7.6
			c1.6,1.4,4,6.6,4.8,9.1c0.8,2.4,1.1,6.8,1.1,7.2c0,0.3,1,7.4,1,7.4c-0.1,2.3,0.1,2.9-1.2,4.5c-0.8,0.9-1.6,3-2.5,5.4h37.8
			c-0.1-2.1-0.2-4.6-0.2-4.9c0-1.4,0.7-6.4,1.1-8.5c0.4-2.1,1.4-7,1.5-9.5c0.1-2.5,3.9-6.4,5-7.8c1.2-1.4,1.7-1.7,5.7-1.9
			c2.4-0.1,4.4-1.3,5.9-2.4c1-0.8,1.8-1.5,2.1-1.7c0.9-0.6,6.3-5,7.3-6.5C192.7,70.3,191.9,69.5,191.2,68.4z M123.4,53.9
			c0.2-0.1,0.2-0.1,0.3-0.1c-0.1,0.1-1.2,0.9-2.8,2c0-0.2-0.1-0.4-0.1-0.6C122,54.6,123,54.1,123.4,53.9z M121.3,57.1
			c-0.1-0.2-0.2-0.4-0.2-0.6c1.7-1,3.1-1.8,3.8-2.3c2.7-2,3.5-1.6,3.6-1.7c0.1-0.1-0.8,6-3.2,8c-0.3,0.2-0.7,0.6-1,0.9
			C123.6,60,122.3,58.8,121.3,57.1z M124.3,61.6c1.6-1.7,2.8-3,3.1-3.6c-0.1,0.3-1.1,2.6-2.3,5.5C124.8,62.8,124.5,62.1,124.3,61.6z
			 M131,70.3c-2.5-0.9-2.4-2-3.6-2.8c-0.2-0.1-0.4-0.3-0.6-0.6c2-2.6,3.8-4.9,4.1-4.9c0.7,0-1.1,6.5,0.4,7.9
			c0.2,0.2,0.4,0.4,0.7,0.6C131.7,70.6,131.4,70.5,131,70.3z M161.5,70.3c-0.8-1-1.8-2.2-3-3.2c-2.4-2-4.8-3.8-6.2-5.2l0-0.5
			c2.5,2.1,7.8,6.7,9.9,8.1c0.4,0.2,0.7,0.5,1.1,0.7C162.6,70.3,162,70.3,161.5,70.3z M165.8,70.2c-2.9-3.3-7.1-8.2-7.8-9.3
			c-0.9-1.4,6.7,6.2,10.8,9.3C167.8,70.2,166.8,70.2,165.8,70.2z"/>
		<path class="st1" d="M123.2,71c-3.1,1.7-5.5,3-5.5,3C119,73.4,121,72.3,123.2,71z"/>
	</g>
</g>
</svg>
